G04 ================== begin FILE IDENTIFICATION RECORD ==================*
G04 Layout Name:  C:/Users/user/Desktop/work/0730/allegro/PULSE_MODULATION.brd*
G04 Film Name:    Design*
G04 File Format:  Gerber RS274X*
G04 File Origin:  Cadence Allegro 17.2-S052*
G04 Origin Date:  Tue Jul 30 16:44:27 2019*
G04 *
G04 Layer:  VIA CLASS/BOTTOM*
G04 Layer:  VIA CLASS/TOP*
G04 Layer:  ROUTE KEEPIN/ALL*
G04 Layer:  REF DES/SILKSCREEN_TOP*
G04 Layer:  REF DES/SILKSCREEN_BOTTOM*
G04 Layer:  PIN/BOTTOM*
G04 Layer:  PIN/TOP*
G04 Layer:  PACKAGE KEEPIN/ALL*
G04 Layer:  PACKAGE GEOMETRY/PIN_NUMBER*
G04 Layer:  PACKAGE GEOMETRY/SILKSCREEN_TOP*
G04 Layer:  PACKAGE GEOMETRY/SILKSCREEN_BOTTOM*
G04 Layer:  PACKAGE GEOMETRY/SOLDERMASK_TOP*
G04 Layer:  PACKAGE GEOMETRY/SOLDERMASK_BOTTOM*
G04 Layer:  PACKAGE GEOMETRY/PASTEMASK_TOP*
G04 Layer:  PACKAGE GEOMETRY/PASTEMASK_BOTTOM*
G04 Layer:  ETCH/BOTTOM*
G04 Layer:  ETCH/TOP*
G04 Layer:  BOARD GEOMETRY/OUTLINE*
G04 Layer:  BOARD GEOMETRY/SILKSCREEN_TOP*
G04 Layer:  BOARD GEOMETRY/SILKSCREEN_BOTTOM*
G04 Layer:  BOARD GEOMETRY/SOLDERMASK_TOP*
G04 Layer:  BOARD GEOMETRY/SOLDERMASK_BOTTOM*
G04 Layer:  BOARD GEOMETRY/DESIGN_OUTLINE*
G04 *
G04 Offset:    (0.0000 0.0000)*
G04 Mirror:    No*
G04 Mode:      Positive*
G04 Rotation:  0*
G04 FullContactRelief:  No*
G04 UndefLineWidth:     0.0000*
G04 ================== end FILE IDENTIFICATION RECORD ====================*
%FSLAX25Y25*MOMM*%
%IR0*IPPOS*OFA0.00000B0.00000*MIA0B0*SFA1.00000B1.00000*%
%ADD10C,.635*%
%ADD15O,1.524X1.016*%
%ADD14R,1.524X1.016*%
%ADD11C,1.524*%
%ADD13C,1.651*%
%ADD12R,1.524X1.524*%
%ADD16C,1.397*%
%ADD17R,1.397X1.397*%
%ADD18C,.4*%
%ADD19C,.5*%
%ADD20C,.2032*%
%ADD21C,1.*%
%ADD24C,2.2704*%
%ADD25C,2.5244*%
%ADD22R,5.0804X5.0804*%
%ADD23C,2.3974*%
G75*
%LPD*%
G75*
G36*
G01X100010Y6899990D02*
X9899990D01*
Y100010D01*
X100010D01*
Y6899990D01*
G37*
%LPC*%
G75*
G36*
G01X4267770Y449110D02*
X4268330Y450040D01*
G02X4381500Y513570I113170J-69033D01*
G02X4408850Y510720I9J-132571D01*
G01X4409260Y510630D01*
G02X4514070Y381000I-27759J-129630D01*
G02X4248930I-132570J0D01*
G02X4267770Y449110I132568J-9D01*
G37*
G36*
G01X5397500Y248430D02*
G02Y513570I0J132570D01*
G02X5506800Y456020I0J-132567D01*
G02X5530070Y381000I-109293J-75020D01*
G02X5506800Y305980I-132563J0D01*
G02X5397500Y248430I-109300J75017D01*
G37*
G36*
G01X4306480Y998300D02*
G02X4381500Y1021570I75020J-109293D01*
G02X4456520Y998300I0J-132563D01*
G02X4514070Y889000I-75017J-109300D01*
G02X4381500Y756430I-132570J0D01*
G02X4311600Y776360I7J132568D01*
G03X4311370Y776500I-5399J-8611D01*
G02X4248930Y889000I70127J112500D01*
G02X4251400Y914470I132570J-1D01*
G03X4251450Y914710I-9922J2192D01*
G02X4306480Y998300I130052J-25708D01*
G37*
G36*
G01X5397500Y756430D02*
G02Y1021570I0J132570D01*
G02X5459430Y1006210I-10J-132568D01*
G01X5460420Y1005690D01*
G02X5530070Y889000I-62925J-116690D01*
G02X5528520Y868760I-132572J-27D01*
G01X5528430Y868220D01*
G02X5397500Y756430I-130930J20779D01*
G37*
G36*
G01X6509580Y1138370D02*
X6510510Y1138600D01*
G02X6540500Y1142220I30012J-122597D01*
G02X6666720Y1016000I0J-126220D01*
G02X6586500Y898460I-126221J0D01*
G03Y879540I3703J-9460D01*
G02X6666720Y762000I-46001J-117540D01*
G02X6414280I-126220J0D01*
G02X6494500Y879540I126221J0D01*
G03Y898460I-3703J9460D01*
G02X6414280Y1016000I46001J117540D01*
G02X6509580Y1138370I126215J0D01*
G37*
G36*
G01X4011880Y1042980D02*
X3924910Y1243020D01*
X4088510D01*
X4175490Y1042980D01*
X4011880D01*
G37*
G36*
G01X6511120Y1160350D02*
G02X6426980Y1270000I29377J109650D01*
G02X6540500Y1156480I113520J0D01*
G02X6511390Y1160280I16J113518D01*
G03X6511120Y1160350I-2685J-9801D01*
G37*
G36*
G01X4306480Y1287700D02*
G02X4248930Y1397000I75017J109300D01*
G02X4381500Y1529570I132570J0D01*
G02X4430750Y1520080I-5J-132569D01*
G03X4430930Y1520010I3772J9434D01*
G02X4514070Y1397000I-49430J-123010D01*
G02X4456520Y1287700I-132567J0D01*
G01Y1107200D01*
X4421600Y1072280D01*
G02X4350880Y1042980I-70728J70717D01*
G01X4306480D01*
Y1243020D01*
X4309450D01*
X4327360Y1260930D01*
G03X4324540Y1277290I-7183J7185D01*
G02X4306480Y1287700I56969J119705D01*
G37*
G36*
G01X6464300Y1650220D02*
X6616700D01*
G02X6666720Y1600200I0J-50020D01*
G01Y1447800D01*
G02X6616700Y1397780I-50020J0D01*
G01X6464300D01*
G02X6414280Y1447800I0J50020D01*
G01Y1600200D01*
G02X6414300Y1601520I50019J-98D01*
G01X6414320Y1602120D01*
G02X6464300Y1650220I49980J-1917D01*
G37*
G36*
G01X7256500Y1406460D02*
G02X7176280Y1524000I46001J117540D01*
G02X7428720I126220J0D01*
G02X7348500Y1406460I-126221J0D01*
G03Y1387540I3703J-9460D01*
G02Y1152460I-46001J-117540D01*
G03Y1133540I3703J-9460D01*
G02Y898460I-46001J-117540D01*
G03Y879540I3703J-9460D01*
G02X7428720Y762000I-46001J-117540D01*
G02X7176280I-126220J0D01*
G02X7256500Y879540I126221J0D01*
G03Y898460I-3703J9460D01*
G02Y1133540I46001J117540D01*
G03Y1152460I-3703J9460D01*
G02Y1387540I46001J117540D01*
G03Y1406460I-3703J9460D01*
G37*
G36*
G01X9509100Y1722690D02*
G02X9405130Y1841500I15899J118810D01*
G02X9525000Y1961370I119870J0D01*
G02X9643810Y1857400I0J-119869D01*
G03X9643830Y1857270I10051J1480D01*
G02X9644870Y1841500I-118831J-15756D01*
G02X9525000Y1721630I-119870J0D01*
G02X9509230Y1722670I-14J119871D01*
G03X9509100Y1722690I-1610J-10031D01*
G37*
G36*
G01X7519980Y1811240D02*
Y1961490D01*
X7720020Y1972020D01*
Y1821770D01*
X7519980Y1811240D01*
G37*
G36*
G01X2699430Y1970380D02*
X2700160Y1970550D01*
G02X2730500Y1974070I30346J-129049D01*
G02X2597930Y1841500I0J-132570D01*
G01Y1841560D01*
G02X2598560Y1854440I132572J-29D01*
G01X2598710Y1855960D01*
G03X2598780Y1856450I-10021J1682D01*
G02X2699430Y1970380I131721J-14943D01*
G37*
G36*
G01X3718740Y1711870D02*
G02X3613930Y1841500I27759J129630D01*
G02X3879070I132570J0D01*
G02X3860230Y1773390I-132568J9D01*
G01X3859670Y1772460D01*
G02X3746500Y1708930I-113170J69033D01*
G02X3719150Y1711780I-9J132571D01*
G01X3718740Y1711870D01*
G37*
G36*
G01X8433980Y1950800D02*
G02X8509000Y1974070I75020J-109293D01*
G02X8584020Y1950800I0J-132563D01*
G02X8641570Y1841500I-75017J-109300D01*
G02X8376430I-132570J0D01*
G02X8433980Y1950800I132567J0D01*
G37*
G36*
G01X6448490Y2345460D02*
X6448900Y2345550D01*
G02X6477000Y2348720I28110J-123049D01*
G02Y2096280I0J-126220D01*
G02X6366830Y2160900I0J126224D01*
G01X6366010Y2162380D01*
X6303300Y2190250D01*
X6351820Y2238770D01*
X6352060Y2240450D01*
G02X6448490Y2345460I124941J-17952D01*
G37*
G36*
G01X500000Y2111780D02*
G02Y2364220I0J126220D01*
G02X570520Y2342680I0J-126208D01*
G01X570980Y2342370D01*
G02X626220Y2238000I-70978J-104370D01*
G02X581380Y2141520I-126216J0D01*
G01X580600Y2140870D01*
G02X500000Y2111780I-80605J97128D01*
G37*
G36*
G01X5987980Y2330390D02*
X5823440Y2403520D01*
X6025980Y2532410D01*
X6190520Y2459280D01*
X5987980Y2330390D01*
G37*
G36*
G01X3129520Y2349320D02*
G02X3112280Y2413000I108989J63680D01*
G02X3238500Y2286780I126220J0D01*
G02X3129710Y2349000I0J126218D01*
G01X3129520Y2349320D01*
G37*
G36*
G01X2176500Y2422460D02*
G02X2096280Y2540000I46001J117540D01*
G02X2222500Y2666220I126220J0D01*
G02X2331290Y2604000I0J-126218D01*
G01X2331440Y2603740D01*
G02X2348720Y2540000I-108938J-63746D01*
G02X2312420Y2451430I-126218J6D01*
G01X2312190Y2451190D01*
G02X2268500Y2422460I-89691J88809D01*
G03Y2403540I3703J-9460D01*
G02X2348720Y2286000I-46001J-117540D01*
G02X2348470Y2278090I-126219J30D01*
G01X2348440Y2277640D01*
G02X2342760Y2247670I-125957J8348D01*
G03X2352440Y2234420I9678J-3091D01*
G01X2395380D01*
X2623990Y2034380D01*
X2396140D01*
X2249510Y2162680D01*
X2247060Y2162190D01*
G02X2222530Y2159780I-24547J123811D01*
G01X2222500D01*
G02X2096280Y2286000I0J126220D01*
G02X2176500Y2403540I126221J0D01*
G03Y2422460I-3703J9460D01*
G37*
G36*
G01X7478890Y2953200D02*
G02X7474730Y2984500I115709J31305D01*
G02X7594600Y2864630I119870J0D01*
G02X7479010Y2952740I0J119875D01*
G01X7478890Y2953200D01*
G37*
G36*
G01X8439150Y3104370D02*
X8578850D01*
G02X8627940Y3063930I0J-50015D01*
G01X8628050Y3063360D01*
G02X8628870Y3054350I-49199J-9020D01*
G01Y2914650D01*
G02X8628140Y2906150I-50019J14D01*
G01X8628040Y2905600D01*
G02X8606070Y2872690I-49192J9051D01*
G02X8578850Y2864630I-27227J41958D01*
G01X8439150D01*
G02X8389130Y2914650I0J50020D01*
G01Y3054350D01*
G02X8439150Y3104370I50020J0D01*
G37*
G36*
G01X6400800Y3110720D02*
X6553200D01*
G02X6603220Y3060700I0J-50020D01*
G01Y2908300D01*
G02X6553200Y2858280I-50020J0D01*
G01X6546030D01*
G03X6540890Y2839360I1J-10158D01*
G02X6603220Y2730500I-63898J-108860D01*
G02X6350780I-126220J0D01*
G02X6413110Y2839360I126228J0D01*
G03X6407970Y2858280I-5141J8762D01*
G01X6400800D01*
G02X6350780Y2908300I0J50020D01*
G01Y3060700D01*
G02X6400800Y3110720I50020J0D01*
G37*
G36*
G01X7193000Y2866960D02*
G02X7112780Y2984500I46001J117540D01*
G02X7365220I126220J0D01*
G02X7285000Y2866960I-126221J0D01*
G03Y2848040I3703J-9460D01*
G02X7349730Y2791080I-46003J-117538D01*
G03X7349770Y2791020I8442J5585D01*
G02X7357990Y2772600I-110787J-60483D01*
G01X7358560Y2771000D01*
X7480040Y2690010D01*
X7358690Y2516660D01*
X7359430Y2514280D01*
G02X7365220Y2476500I-120428J-37790D01*
G02X7285000Y2358960I-126221J0D01*
G03Y2340040I3703J-9460D01*
G02X7365220Y2222500I-46001J-117540D01*
G02X7112780I-126220J0D01*
G02X7193000Y2340040I126221J0D01*
G03Y2358960I-3703J9460D01*
G02Y2594040I46001J117540D01*
G03Y2612960I-3703J9460D01*
G02X7121790Y2683670I46002J117539D01*
G01X7121650Y2684010D01*
G02X7193000Y2848040I117349J46488D01*
G03Y2866960I-3703J9460D01*
G37*
G36*
G01X432870Y3106890D02*
G03X433070Y3107010I-5127J8772D01*
G02X500000Y3126220I66935J-107009D01*
G02X569630Y3105270I-9J-126217D01*
G01X570480Y3104710D01*
G02X626220Y3000000I-70481J-104710D01*
G02X533500Y2878310I-126216J0D01*
G01X532540Y2878040D01*
X527730Y2874360D01*
X532630Y2867940D01*
X534260Y2867480D01*
G02X626220Y2746000I-34258J-121480D01*
G02X500000Y2619780I-126220J0D01*
G02X373790Y2744690I0J126217D01*
G01X373780Y2745420D01*
G02Y2746000I126220J290D01*
G02X454000Y2863540I126221J0D01*
G03Y2882460I-3703J9460D01*
G02X373780Y3000000I46001J117540D01*
G02X432870Y3106890I126224J0D01*
G37*
G36*
G01X9398540Y3075080D02*
X9398650Y3075230D01*
G02X9500000Y3126220I101350J-75229D01*
G02X9373780Y3000000I0J-126220D01*
G02X9398540Y3075080I126213J0D01*
G37*
G36*
G01X1384300Y3174220D02*
X1536700D01*
G02X1586720Y3124200I0J-50020D01*
G01Y2971800D01*
G02X1536700Y2921780I-50020J0D01*
G01X1529530D01*
G03X1524390Y2902860I1J-10158D01*
G02X1586720Y2794000I-63898J-108860D01*
G02X1506500Y2676460I-126221J0D01*
G03Y2657540I3703J-9460D01*
G02Y2422460I-46001J-117540D01*
G03Y2403540I3703J-9460D01*
G02X1586720Y2286000I-46001J-117540D01*
G02X1460500Y2159780I-126220J0D01*
G02X1389980Y2181320I0J126208D01*
G01X1389520Y2181630D01*
G02X1334280Y2286000I70978J104370D01*
G02X1379080Y2382450I126224J0D01*
G01X1379900Y2383130D01*
G02X1414500Y2403540I80612J-97124D01*
G03Y2422460I-3703J9460D01*
G02X1334280Y2540000I46001J117540D01*
G02X1343900Y2588320I126218J-11D01*
G01X1344190Y2589040D01*
G02X1414500Y2657540I116305J-49044D01*
G03Y2676460I-3703J9460D01*
G02X1334280Y2794000I46001J117540D01*
G02X1396610Y2902860I126228J0D01*
G03X1391470Y2921780I-5141J8762D01*
G01X1384300D01*
G02X1340320Y2947980I0J50013D01*
G01X1324520D01*
X1249700Y2943610D01*
X1237920Y3143300D01*
X1315770Y3147850D01*
G02X1321600Y3148020I5829J-99850D01*
G01X1340320D01*
G02X1384300Y3174220I43980J-23813D01*
G37*
G36*
G01X1133540Y3919500D02*
G03X1152460I9460J3703D01*
G02X1270000Y3999720I117540J-46001D01*
G02X1396220Y3873500I0J-126220D01*
G02X1352760Y3778200I-126218J0D01*
G01X1352400Y3777890D01*
G02X1270000Y3747280I-82400J95603D01*
G02X1199380Y3768880I-6J126223D01*
G01X1199020Y3769130D01*
G02X1152460Y3827500I70978J104372D01*
G03X1133540I-9460J-3703D01*
G02X1016000Y3747280I-117540J46001D01*
G02Y3999720I0J126220D01*
G02X1133540Y3919500I0J-126221D01*
G37*
G36*
G01X5478700Y4774020D02*
G02X5588000Y4831570I109300J-75017D01*
G02Y4566430I0J-132570D01*
G02X5478700Y4623980I0J132567D01*
G02X5455430Y4699000I109293J75020D01*
G02X5478700Y4774020I132563J0D01*
G37*
G36*
G01X6223000Y4566430D02*
G02Y4831570I0J132570D01*
G02X6230530Y4831360I71J-132572D01*
G01X6231280Y4831310D01*
G02X6351250Y4732550I-8283J-132309D01*
G01X6351510Y4731550D01*
G02X6355570Y4699000I-128509J-32557D01*
G02X6296580Y4588720I-132578J0D01*
G01X6296150Y4588440D01*
G02X6223000Y4566430I-73150J110552D01*
G37*
G36*
G01X4669750Y5663020D02*
G02X4737100Y5688820I67350J-75007D01*
G01X4787900D01*
G02X4888720Y5588000I0J-100820D01*
G02X4866210Y5524500I-100821J0D01*
G02X4888720Y5461000I-78311J-63500D01*
G01Y5460980D01*
G02X4886680Y5440830I-100821J29D01*
G02X4878000Y5415750I-98788J20148D01*
G02X4888720Y5384810I-39302J-30944D01*
G01Y5283200D01*
G02X4842240Y5233310I-50015J0D01*
G03X4842040Y5233290I405J-5064D01*
G02X4838700Y5233180I-3316J49911D01*
G01X4686300D01*
G02X4682960Y5233290I-25J50016D01*
G03X4682760Y5233310I-605J-5044D01*
G02X4650090Y5248690I3532J49891D01*
G02X4643730Y5256940I36217J34496D01*
G01X4643530Y5257260D01*
G02X4636280Y5283200I42766J25936D01*
G01Y5384810D01*
G02X4644080Y5411630I50022J-4D01*
G01X4644260Y5411910D01*
G02X4647000Y5415750I42044J-27103D01*
G02X4636280Y5460980I90102J45241D01*
G01Y5461000D01*
G02X4658790Y5524500I100821J0D01*
G02X4636280Y5588000I78311J63500D01*
G02X4669750Y5663020I100810J0D01*
G37*
G36*
G01X3201060Y5502060D02*
G02X3169430Y5588000I100936J85940D01*
G02X3302000Y5720570I132570J0D01*
G02X3411300Y5663020I0J-132567D01*
G02X3434570Y5588000I-109293J-75020D01*
G02X3411300Y5512980I-132578J4D01*
G02X3377020Y5478700I-109300J75020D01*
G01Y5316300D01*
G02X3434570Y5207000I-75017J-109300D01*
G02X3169430I-132570J0D01*
G02X3226980Y5316300I132567J0D01*
G01Y5316580D01*
G03Y5330450I-7425J6935D01*
G01Y5478700D01*
G02X3201100Y5502010I75012J109304D01*
G03X3201060Y5502060I-7950J-6319D01*
G37*
G36*
G01X1414500Y5597460D02*
G02X1334280Y5715000I46001J117540D01*
G02X1586720I126220J0D01*
G02X1506500Y5597460I-126221J0D01*
G03Y5578540I3703J-9460D01*
G02Y5343460I-46001J-117540D01*
G03Y5324540I3703J-9460D01*
G02X1586720Y5207000I-46001J-117540D01*
G02X1334280I-126220J0D01*
G02X1414500Y5324540I126221J0D01*
G03Y5343460I-3703J9460D01*
G02Y5578540I46001J117540D01*
G03Y5597460I-3703J9460D01*
G37*
G36*
G01X5579720Y5582690D02*
G02X5455430Y5715000I8279J132310D01*
G02X5588000Y5582430I132570J0D01*
G02X5580470Y5582640I-71J132572D01*
G01X5579720Y5582690D01*
G37*
G36*
G01X6355570Y5715000D02*
G02X6223000Y5847570I-132570J0D01*
G02X6261420Y5841880I-2J-132570D01*
G01X6261980Y5841710D01*
G02X6355480Y5719940I-38979J-126711D01*
G01X6355490Y5719590D01*
G02X6355570Y5715000I-132490J-4605D01*
G37*
G36*
G01X1346980Y6045200D02*
G02X1384300Y6082520I37320J0D01*
G01X1536700D01*
G02X1574020Y6045200I0J-37320D01*
G01Y5892800D01*
G02X1536700Y5855480I-37320J0D01*
G01X1384300D01*
G02X1346980Y5892800I0J37320D01*
G01Y6045200D01*
G37*
G36*
G01X2176500Y5851460D02*
G02X2096280Y5969000I46001J117540D01*
G02X2348720I126220J0D01*
G02X2268500Y5851460I-126221J0D01*
G03Y5832540I3703J-9460D01*
G02Y5597460I-46001J-117540D01*
G03Y5578540I3703J-9460D01*
G02X2326400Y5532670I-45999J-117540D01*
G01X2326530Y5532480D01*
G02X2348720Y5461000I-104033J-71480D01*
G02X2318670Y5379250I-126224J0D01*
G01X2318350Y5378880D01*
G02X2268500Y5343460I-95855J82117D01*
G03Y5324540I3703J-9460D01*
G02X2348720Y5207000I-46001J-117540D01*
G02X2096280I-126220J0D01*
G02X2176500Y5324540I126221J0D01*
G03Y5343460I-3703J9460D01*
G02Y5578540I46001J117540D01*
G03Y5597460I-3703J9460D01*
G02Y5832540I46001J117540D01*
G03Y5851460I-3703J9460D01*
G37*
G36*
G01X7015570Y6228150D02*
G02X6922280Y6350000I32932J121850D01*
G02X7048500Y6223780I126220J0D01*
G02X7016180Y6227990I7J126219D01*
G01X7015570Y6228150D01*
G37*
G36*
G01X3219070Y6500570D02*
G02X3169430Y6604000I82933J103430D01*
G02X3302000Y6471430I132570J0D01*
G02X3219500Y6500230I0J132564D01*
G01X3219070Y6500570D01*
G37*
G54D24*
X6477000Y2476500D03*
X500000Y2492000D03*
X3238500Y2667000D03*
X9500000Y2746000D03*
X2222500Y2794000D03*
X762000Y3873500D03*
X2476500Y4572000D03*
X4508500Y4699000D03*
G54D25*
X2222500Y3048000D03*
X4762500Y4699000D03*
X2476500Y4826000D03*
X7302500Y6096000D03*
X4318000Y6223000D03*
X4826000D03*
X4572000Y6477000D03*
X7302500Y6604000D03*
G54D22*
X500000Y500000D03*
X9500000D03*
X500000Y6500000D03*
X9500000D03*
G54D23*
X5397500Y1397000D03*
X3302000Y4191000D03*
%LPD*%
G75*
G36*
G01X1563910Y2721630D02*
G02X1580360Y2721900I8323J-5827D01*
G01X2009560Y2150520D01*
G02X1996980Y2135290I-8122J-6102D01*
G01X1573590Y2342080D01*
X1572820Y2343580D01*
G03X1506500Y2403540I-112322J-57578D01*
G02Y2422460I3703J9460D01*
G03Y2657540I-46001J117540D01*
G02Y2676460I3703J9460D01*
G03X1563910Y2721630I-46003J117538D01*
G37*
G54D10*
X500000Y500000D03*
D03*
Y6500000D03*
D03*
X9500000Y500000D03*
D03*
Y6500000D03*
D03*
G54D20*
G01X4950970Y5649470D02*
X4864350Y5707130D01*
G01X4660650D02*
X4574030Y5649470D01*
G01D02*
X4516370Y5562850D01*
G01D02*
X4496050Y5461000D01*
G01D02*
X4516370Y5359150D01*
G01D02*
X4574030Y5272530D01*
G01D02*
X4660650Y5214870D01*
G01D02*
X4762500Y5194550D01*
G01D02*
X4864350Y5214870D01*
G01D02*
X4950970Y5272530D01*
G01X4864350Y5707130D02*
X4762500Y5727450D01*
G01D02*
X4660650Y5707130D01*
G01X4950970Y5272530D02*
Y5649470D01*
G01Y5272530D02*
X4953000Y5274560D01*
G54D11*
X500000Y2238000D03*
D03*
Y2492000D03*
D03*
Y2746000D03*
D03*
Y3000000D03*
D03*
X762000Y3873500D03*
D03*
X1016000D03*
D03*
X1460500Y2286000D03*
D03*
Y2540000D03*
D03*
Y2794000D03*
D03*
X1270000Y3873500D03*
D03*
X1460500Y5207000D03*
D03*
Y5461000D03*
D03*
Y5715000D03*
D03*
X2222500Y2286000D03*
D03*
Y2540000D03*
D03*
Y2794000D03*
D03*
Y3048000D03*
D03*
X2476500Y4826000D03*
D03*
Y4572000D03*
D03*
X2222500Y5207000D03*
D03*
Y5461000D03*
D03*
Y5715000D03*
D03*
Y5969000D03*
D03*
X3238500Y2667000D03*
D03*
Y2413000D03*
D03*
X4762500Y4699000D03*
D03*
X4508500D03*
D03*
X4318000Y6223000D03*
D03*
X4572000Y6477000D03*
D03*
X4826000Y6223000D03*
D03*
X6540500Y762000D03*
D03*
Y1016000D03*
D03*
Y1270000D03*
D03*
X6477000Y2222500D03*
D03*
Y2476500D03*
D03*
Y2730500D03*
D03*
X7302500Y762000D03*
D03*
Y1016000D03*
D03*
Y1270000D03*
D03*
Y1524000D03*
D03*
X7239000Y2222500D03*
D03*
Y2476500D03*
D03*
Y2730500D03*
D03*
Y2984500D03*
D03*
X7302500Y6096000D03*
D03*
X7048500Y6350000D03*
D03*
X7302500Y6604000D03*
D03*
X9500000Y2746000D03*
D03*
Y3000000D03*
D03*
G54D21*
G01X190500Y2730500D02*
X500000Y2492000D01*
G01X539720Y5492720D02*
X190500Y5143500D01*
Y2730500D01*
G01X2411990Y6577030D02*
X1206500Y6540500D01*
X774720Y6196000D01*
X317500Y5842000D01*
Y2984500D01*
X500000Y2746000D01*
G01Y2492000D02*
X825500Y2730500D01*
G01X500000Y2238000D02*
X1460500Y2286000D01*
G01X825500Y2730500D02*
X762000Y3873500D01*
G01X500000Y3000000D02*
X1321600Y3048000D01*
X1460500D01*
G01X2730500Y2730500D02*
X539720Y5492720D01*
G01D02*
X1016000Y5969000D01*
G01D02*
X1460500D01*
G01X7239000Y2730500D02*
X6198510Y3365500D01*
X4781050D01*
X3116800Y2134400D01*
X2159700D01*
X2107720Y2186380D01*
X1460500Y3048000D01*
G01X6477000Y2222500D02*
X5334000Y2730500D01*
X4572000Y2222500D01*
X4536910Y1329030D01*
X4350880Y1143000D01*
X3800730D01*
X2834010Y1615160D01*
X1460500Y2286000D01*
G01X2222500Y2794000D02*
X2730500Y2730500D01*
G01X3302000Y4191000D02*
X2476500Y4572000D01*
G01X2222500Y5969000D02*
X2411990Y6577030D01*
G01X3302000Y6604000D02*
X2411990Y6577030D01*
G01X3238500Y2667000D02*
X2730500Y2730500D01*
G01X3238500Y2667000D02*
X3302000Y4191000D01*
G01X4394620Y3103120D02*
X3238500Y2667000D01*
G01X4508500Y4699000D02*
X3302000Y4191000D01*
G01Y6604000D02*
X4572000Y6477000D01*
G01X5397500Y1397000D02*
X4723600Y3075280D01*
G01D02*
Y3091940D01*
X4679440Y3136100D01*
X4464560D01*
X4431580Y3103120D01*
X4394620D01*
G01X4318000Y6223000D02*
X4572000Y6477000D01*
G01X5397500Y1397000D02*
Y1333500D01*
X5905500Y254000D01*
G01X5397500Y1397000D02*
X6540500Y1206500D01*
Y1270000D01*
G01X5905500Y254000D02*
X7937500D01*
G01X6477000Y2222500D02*
X6032500Y1778000D01*
Y1270000D01*
X6540500Y762000D01*
G01X6477000Y2476500D02*
X6858000Y2159000D01*
G01Y1524000D02*
X6540500Y1270000D01*
G01X6858000Y2159000D02*
Y1524000D01*
G01X7239000Y2730500D02*
X7620000Y2476500D01*
Y1587500D01*
X7302500Y1270000D01*
G01X7937500Y254000D02*
X9525000Y1841500D01*
G01D02*
X9500000Y2746000D01*
G54D12*
X1460500Y3048000D03*
D03*
Y5969000D03*
D03*
X6540500Y1524000D03*
D03*
X6477000Y2984500D03*
D03*
G54D13*
X2730500Y1841500D03*
D03*
X3302000Y4191000D03*
D03*
Y5588000D03*
D03*
Y5207000D03*
D03*
Y6604000D03*
D03*
X3746500Y1841500D03*
D03*
X4381500Y381000D03*
D03*
Y889000D03*
D03*
Y1397000D03*
D03*
X5397500Y381000D03*
D03*
Y889000D03*
D03*
Y1397000D03*
D03*
X5588000Y4699000D03*
D03*
Y5715000D03*
D03*
X6223000Y4699000D03*
D03*
Y5715000D03*
D03*
X8509000Y1841500D03*
D03*
X9525000D03*
D03*
G54D14*
X4762500Y5334000D03*
D03*
G54D15*
Y5461000D03*
D03*
Y5588000D03*
D03*
G54D16*
X7594600Y2984500D03*
D03*
G54D17*
X8509000D03*
D03*
G54D18*
G01X4358820Y3475250D02*
Y3875250D01*
G01X4414700Y3741910D02*
Y3475250D01*
G01Y3848580D02*
X4413350Y3855240D01*
Y3868580D01*
X4414700Y3875250D01*
X4416050Y3868580D01*
Y3855240D01*
X4414700Y3848580D01*
G01X4459060Y3475250D02*
Y3741910D01*
G01Y3675240D02*
X4461770Y3708580D01*
X4465840Y3735240D01*
X4471260Y3741910D01*
X4476000Y3735240D01*
X4480060Y3708580D01*
X4482100Y3661910D01*
Y3475250D01*
G01X4516300Y3655250D02*
X4537980D01*
X4535940Y3701920D01*
X4532560Y3728580D01*
X4527810Y3741910D01*
X4523070Y3735240D01*
X4519010Y3715250D01*
X4516300Y3668580D01*
X4514940Y3628570D01*
Y3588580D01*
X4516300Y3548580D01*
X4519690Y3508580D01*
X4523750Y3481920D01*
X4528490Y3475250D01*
X4533230Y3488580D01*
X4537980Y3528570D01*
G01X4621290Y3741910D02*
X4629410Y3475250D01*
X4638220Y3741910D01*
X4647030Y3475250D01*
X4655150Y3741910D01*
G01X4694100D02*
Y3475250D01*
G01Y3848580D02*
X4692750Y3855240D01*
Y3868580D01*
X4694100Y3875250D01*
X4695450Y3868580D01*
Y3855240D01*
X4694100Y3848580D01*
G01X4762170Y3875250D02*
Y3475250D01*
G01Y3535240D02*
X4759460Y3501910D01*
X4755400Y3481920D01*
X4750660Y3475250D01*
X4745240Y3488580D01*
X4741170Y3521910D01*
X4738460Y3561910D01*
X4737790Y3608580D01*
X4738460Y3655250D01*
X4741170Y3695250D01*
X4745240Y3728580D01*
X4750660Y3741910D01*
X4755400Y3735240D01*
X4758790Y3721910D01*
X4762170Y3695250D01*
G01X4805860Y3875250D02*
Y3475250D01*
G01X4796380Y3741910D02*
X4815340D01*
G01X4850220Y3475250D02*
Y3875250D01*
G01Y3681920D02*
X4853610Y3715250D01*
X4857000Y3735240D01*
X4862420Y3741910D01*
X4866480Y3735240D01*
X4871220Y3708580D01*
X4873260Y3668580D01*
Y3475250D01*
G01X4973500Y3461920D02*
X4972150Y3468580D01*
Y3481920D01*
X4973500Y3488580D01*
X4974850Y3481920D01*
Y3468580D01*
X4973500Y3461920D01*
G01Y3641910D02*
X4972150Y3648580D01*
Y3661910D01*
X4973500Y3668580D01*
X4974850Y3661910D01*
Y3648580D01*
X4973500Y3641910D01*
G01X5085260Y3875250D02*
X5079840Y3861920D01*
X5075780Y3828580D01*
X5073070Y3788590D01*
X5071040Y3735240D01*
X5070360Y3675240D01*
X5071040Y3615240D01*
X5073070Y3561910D01*
X5075780Y3521910D01*
X5079840Y3488580D01*
X5085260Y3475250D01*
X5090680Y3488580D01*
X5094740Y3521910D01*
X5097450Y3561910D01*
X5099480Y3615240D01*
X5100160Y3675240D01*
X5099480Y3735240D01*
X5097450Y3788590D01*
X5094740Y3828580D01*
X5090680Y3861920D01*
X5085260Y3875250D01*
G01X5141140Y3461920D02*
X5139790Y3468580D01*
Y3481920D01*
X5141140Y3488580D01*
X5142490Y3481920D01*
Y3468580D01*
X5141140Y3461920D01*
G01X5205150Y3475250D02*
Y3875250D01*
X5180090Y3588580D01*
X5213950D01*
G01X5288460Y3475250D02*
Y3741910D01*
G01Y3668580D02*
X5290490Y3701920D01*
X5293880Y3728580D01*
X5298620Y3741910D01*
X5303360Y3728580D01*
X5306750Y3701920D01*
X5308780Y3668580D01*
Y3475250D01*
G01Y3668580D02*
X5310810Y3701920D01*
X5314200Y3728580D01*
X5318940Y3741910D01*
X5323680Y3728580D01*
X5327070Y3701920D01*
X5329100Y3661910D01*
Y3475250D01*
G01X5344340D02*
Y3741910D01*
G01Y3668580D02*
X5346370Y3701920D01*
X5349760Y3728580D01*
X5354500Y3741910D01*
X5359240Y3728580D01*
X5362630Y3701920D01*
X5364660Y3668580D01*
Y3475250D01*
G01Y3668580D02*
X5366690Y3701920D01*
X5370080Y3728580D01*
X5374820Y3741910D01*
X5379560Y3728580D01*
X5382950Y3701920D01*
X5384980Y3661910D01*
Y3475250D01*
G01X5475070Y3401920D02*
X5477770Y3488580D01*
G01X5576660Y3475250D02*
Y3875250D01*
G01Y3681920D02*
X5580050Y3715250D01*
X5583440Y3735240D01*
X5588860Y3741910D01*
X5592920Y3735240D01*
X5597660Y3708580D01*
X5599700Y3668580D01*
Y3475250D01*
G01X5633900Y3655250D02*
X5655580D01*
X5653540Y3701920D01*
X5650160Y3728580D01*
X5645410Y3741910D01*
X5640670Y3735240D01*
X5636610Y3715250D01*
X5633900Y3668580D01*
X5632540Y3628570D01*
Y3588580D01*
X5633900Y3548580D01*
X5637290Y3508580D01*
X5641350Y3481920D01*
X5646090Y3475250D01*
X5650830Y3488580D01*
X5655580Y3528570D01*
G01X5699940Y3741910D02*
Y3475250D01*
G01Y3848580D02*
X5698590Y3855240D01*
Y3868580D01*
X5699940Y3875250D01*
X5701290Y3868580D01*
Y3855240D01*
X5699940Y3848580D01*
G01X5746340Y3375250D02*
X5751080Y3348590D01*
X5756500Y3341920D01*
X5761240Y3348590D01*
X5765300Y3381910D01*
X5768010Y3428580D01*
Y3741910D01*
G01Y3688590D02*
X5765300Y3715250D01*
X5761240Y3735240D01*
X5756500Y3741910D01*
X5751080Y3728580D01*
X5747690Y3701920D01*
X5744980Y3655250D01*
X5743630Y3608580D01*
X5744300Y3568580D01*
X5747010Y3521910D01*
X5751080Y3488580D01*
X5756500Y3475250D01*
X5760560Y3481920D01*
X5765300Y3508580D01*
X5768010Y3535240D01*
G01X5800180Y3475250D02*
Y3875250D01*
G01Y3681920D02*
X5803570Y3715250D01*
X5806960Y3735240D01*
X5812380Y3741910D01*
X5816440Y3735240D01*
X5821180Y3708580D01*
X5823220Y3668580D01*
Y3475250D01*
G01X5923460Y3461920D02*
X5922110Y3468580D01*
Y3481920D01*
X5923460Y3488580D01*
X5924810Y3481920D01*
Y3468580D01*
X5923460Y3461920D01*
G01Y3641910D02*
X5922110Y3648580D01*
Y3661910D01*
X5923460Y3668580D01*
X5924810Y3661910D01*
Y3648580D01*
X5923460Y3641910D01*
G01X6043350Y3475250D02*
Y3875250D01*
X6018290Y3588580D01*
X6052150D01*
G01X6126660Y3475250D02*
Y3741910D01*
G01Y3668580D02*
X6128690Y3701920D01*
X6132080Y3728580D01*
X6136820Y3741910D01*
X6141560Y3728580D01*
X6144950Y3701920D01*
X6146980Y3668580D01*
Y3475250D01*
G01Y3668580D02*
X6149010Y3701920D01*
X6152400Y3728580D01*
X6157140Y3741910D01*
X6161880Y3728580D01*
X6165270Y3701920D01*
X6167300Y3661910D01*
Y3475250D01*
G01X6182540D02*
Y3741910D01*
G01Y3668580D02*
X6184570Y3701920D01*
X6187960Y3728580D01*
X6192700Y3741910D01*
X6197440Y3728580D01*
X6200830Y3701920D01*
X6202860Y3668580D01*
Y3475250D01*
G01Y3668580D02*
X6204890Y3701920D01*
X6208280Y3728580D01*
X6213020Y3741910D01*
X6217760Y3728580D01*
X6221150Y3701920D01*
X6223180Y3661910D01*
Y3475250D01*
G01X5456460Y3953750D02*
X5483560D01*
Y4353750D01*
X5456460D01*
G01X5467300Y4160420D02*
X5483560D01*
G01X5414130Y3953750D02*
Y4353750D01*
G01X5368410Y4133750D02*
X5346730D01*
X5348770Y4180420D01*
X5352150Y4207080D01*
X5356900Y4220410D01*
X5361640Y4213740D01*
X5365700Y4193750D01*
X5368410Y4147080D01*
X5369770Y4107070D01*
Y4067080D01*
X5368410Y4027080D01*
X5365020Y3987080D01*
X5360960Y3960420D01*
X5356220Y3953750D01*
X5351480Y3967080D01*
X5346730Y4007070D01*
G01X5291530Y4187080D02*
X5296270Y4213740D01*
X5300340Y4220410D01*
X5305760Y4207080D01*
X5309820Y4180420D01*
X5312530Y4133750D01*
X5313210Y4087080D01*
X5312530Y4040410D01*
X5309820Y4000410D01*
X5305760Y3967080D01*
X5300340Y3953750D01*
X5295600Y3967080D01*
X5291530Y3993740D01*
G01X5246490Y4353750D02*
Y3953750D01*
G01X5255970Y4220410D02*
X5237010D01*
G01X5200090Y3953750D02*
Y4220410D01*
G01Y4167090D02*
X5196710Y4193750D01*
X5193320Y4213740D01*
X5188580Y4220410D01*
X5185190Y4213740D01*
X5181130Y4193750D01*
G01X5134730Y3953750D02*
X5138790Y3960420D01*
X5142860Y3987080D01*
X5145570Y4033750D01*
X5146920Y4087080D01*
X5145570Y4140410D01*
X5142860Y4187080D01*
X5138790Y4213740D01*
X5134730Y4220410D01*
X5130670Y4213740D01*
X5126600Y4187080D01*
X5123890Y4140410D01*
X5123210Y4087080D01*
X5123890Y4033750D01*
X5126600Y3987080D01*
X5130670Y3960420D01*
X5134730Y3953750D01*
G01X5090370D02*
Y4220410D01*
G01Y4153740D02*
X5087660Y4187080D01*
X5083590Y4213740D01*
X5078170Y4220410D01*
X5073430Y4213740D01*
X5069370Y4187080D01*
X5067330Y4140410D01*
Y3953750D01*
G01X5022970Y4220410D02*
Y3953750D01*
G01Y4327080D02*
X5024320Y4333740D01*
Y4347080D01*
X5022970Y4353750D01*
X5021620Y4347080D01*
Y4333740D01*
X5022970Y4327080D01*
G01X4956250Y4187080D02*
X4960990Y4213740D01*
X4965060Y4220410D01*
X4970480Y4207080D01*
X4974540Y4180420D01*
X4977250Y4133750D01*
X4977930Y4087080D01*
X4977250Y4040410D01*
X4974540Y4000410D01*
X4970480Y3967080D01*
X4965060Y3953750D01*
X4960320Y3967080D01*
X4956250Y3993740D01*
G01X4840430Y4320410D02*
X4844490Y4340420D01*
X4849230Y4353750D01*
X4854650D01*
X4860750Y4333740D01*
X4865490Y4300420D01*
X4868880Y4260410D01*
X4871590Y4193750D01*
X4872260Y4133750D01*
X4870910Y4073750D01*
X4868880Y4033750D01*
X4864810Y3993740D01*
X4860070Y3967080D01*
X4855330Y3953750D01*
X4850590D01*
X4845850Y3967080D01*
X4841780Y3987080D01*
X4838400Y4013740D01*
G01X4816380Y3953750D02*
X4799450Y4353750D01*
X4782520Y3953750D01*
G01X4788610Y4093740D02*
X4810290D01*
G01X4758470Y3953750D02*
Y4353750D01*
X4744920D01*
X4739510Y4333740D01*
X4735440Y4307080D01*
X4732050Y4267090D01*
X4729350Y4220410D01*
X4728670Y4153740D01*
X4729350Y4087080D01*
X4732050Y4040410D01*
X4735440Y4000410D01*
X4739510Y3973750D01*
X4744920Y3953750D01*
X4758470D01*
G01X5707520D02*
Y4353750D01*
X5723780D01*
X5729200Y4333740D01*
X5733260Y4287090D01*
X5734620Y4233750D01*
X5733260Y4180420D01*
X5729880Y4140410D01*
X5723780Y4120410D01*
X5707520D01*
G01X5762050Y4353750D02*
Y4067080D01*
X5764760Y4007070D01*
X5770180Y3967080D01*
X5776950Y3953750D01*
X5783720Y3967080D01*
X5789140Y4007070D01*
X5791850Y4067080D01*
Y4353750D01*
G01X5819280D02*
Y3953750D01*
X5846380D01*
G01X5874490Y4007070D02*
X5879900Y3973750D01*
X5886000Y3953750D01*
X5891420D01*
X5896840Y3973750D01*
X5900900Y4007070D01*
X5902930Y4053750D01*
X5901580Y4100410D01*
X5898190Y4140410D01*
X5892100Y4167090D01*
X5883970Y4180420D01*
X5879230Y4207080D01*
X5877190Y4253750D01*
X5878550Y4300420D01*
X5881940Y4333740D01*
X5886680Y4353750D01*
X5891420D01*
X5896160Y4340420D01*
X5900230Y4307080D01*
G01X5958140Y3953750D02*
X5931040D01*
Y4353750D01*
X5958140D01*
G01X5947300Y4160420D02*
X5931040D01*
G01X6038740Y3953750D02*
Y4353750D01*
X6056350Y4020410D01*
X6073960Y4353750D01*
Y3953750D01*
G01X6112230D02*
X6106810Y3960420D01*
X6102070Y3987080D01*
X6098010Y4027080D01*
X6095300Y4073750D01*
X6093940Y4127080D01*
Y4180420D01*
X6095300Y4233750D01*
X6098010Y4280420D01*
X6102070Y4320410D01*
X6106810Y4347080D01*
X6112230Y4353750D01*
X6117650Y4347080D01*
X6122390Y4320410D01*
X6126450Y4280420D01*
X6129160Y4233750D01*
X6130520Y4180420D01*
Y4127080D01*
X6129160Y4073750D01*
X6126450Y4027080D01*
X6122390Y3987080D01*
X6117650Y3960420D01*
X6112230Y3953750D01*
G01X6153210D02*
Y4353750D01*
X6166760D01*
X6172170Y4333740D01*
X6176240Y4307080D01*
X6179630Y4267090D01*
X6182330Y4220410D01*
X6183010Y4153740D01*
X6182330Y4087080D01*
X6179630Y4040410D01*
X6176240Y4000410D01*
X6172170Y3973750D01*
X6166760Y3953750D01*
X6153210D01*
G01X6209090Y4353750D02*
Y4067080D01*
X6211800Y4007070D01*
X6217220Y3967080D01*
X6223990Y3953750D01*
X6230760Y3967080D01*
X6236180Y4007070D01*
X6238890Y4067080D01*
Y4353750D01*
G01X6266320D02*
Y3953750D01*
X6293420D01*
G01X6318820D02*
X6335750Y4353750D01*
X6352680Y3953750D01*
G01X6346590Y4093740D02*
X6324910D01*
G01X6391630Y4353750D02*
Y3953750D01*
G01X6376050Y4353750D02*
X6407210D01*
G01X6439380D02*
X6455640D01*
G01X6447510D02*
Y3953750D01*
G01X6439380D02*
X6455640D01*
G01X6503390D02*
X6497970Y3960420D01*
X6493230Y3987080D01*
X6489170Y4027080D01*
X6486460Y4073750D01*
X6485100Y4127080D01*
Y4180420D01*
X6486460Y4233750D01*
X6489170Y4280420D01*
X6493230Y4320410D01*
X6497970Y4347080D01*
X6503390Y4353750D01*
X6508810Y4347080D01*
X6513550Y4320410D01*
X6517610Y4280420D01*
X6520320Y4233750D01*
X6521680Y4180420D01*
Y4127080D01*
X6520320Y4073750D01*
X6517610Y4027080D01*
X6513550Y3987080D01*
X6508810Y3960420D01*
X6503390Y3953750D01*
G01X6543690D02*
Y4353750D01*
X6574850Y3953750D01*
Y4353750D01*
G01X8567240Y3444000D02*
Y3844000D01*
G01X8511360Y3710660D02*
Y3444000D01*
G01Y3817330D02*
X8512710Y3823990D01*
Y3837330D01*
X8511360Y3844000D01*
X8510010Y3837330D01*
Y3823990D01*
X8511360Y3817330D01*
G01X8467000Y3444000D02*
Y3710660D01*
G01Y3643990D02*
X8464290Y3677330D01*
X8460220Y3703990D01*
X8454800Y3710660D01*
X8450060Y3703990D01*
X8446000Y3677330D01*
X8443960Y3630660D01*
Y3444000D01*
G01X8409760Y3624000D02*
X8388080D01*
X8390120Y3670670D01*
X8393500Y3697330D01*
X8398250Y3710660D01*
X8402990Y3703990D01*
X8407050Y3684000D01*
X8409760Y3637330D01*
X8411120Y3597320D01*
Y3557330D01*
X8409760Y3517330D01*
X8406370Y3477330D01*
X8402310Y3450670D01*
X8397570Y3444000D01*
X8392830Y3457330D01*
X8388080Y3497320D01*
G01X8304770Y3710660D02*
X8296650Y3444000D01*
X8287840Y3710660D01*
X8279030Y3444000D01*
X8270910Y3710660D01*
G01X8231960D02*
Y3444000D01*
G01Y3817330D02*
X8233310Y3823990D01*
Y3837330D01*
X8231960Y3844000D01*
X8230610Y3837330D01*
Y3823990D01*
X8231960Y3817330D01*
G01X8163890Y3844000D02*
Y3444000D01*
G01Y3503990D02*
X8166600Y3470660D01*
X8170660Y3450670D01*
X8175400Y3444000D01*
X8180820Y3457330D01*
X8184890Y3490660D01*
X8187600Y3530660D01*
X8188270Y3577330D01*
X8187600Y3624000D01*
X8184890Y3664000D01*
X8180820Y3697330D01*
X8175400Y3710660D01*
X8170660Y3703990D01*
X8167270Y3690660D01*
X8163890Y3664000D01*
G01X8120200Y3844000D02*
Y3444000D01*
G01X8129680Y3710660D02*
X8110720D01*
G01X8075840Y3444000D02*
Y3844000D01*
G01Y3650670D02*
X8072450Y3684000D01*
X8069060Y3703990D01*
X8063640Y3710660D01*
X8059580Y3703990D01*
X8054840Y3677330D01*
X8052800Y3637330D01*
Y3444000D01*
G01X7952560Y3430670D02*
X7953910Y3437330D01*
Y3450670D01*
X7952560Y3457330D01*
X7951210Y3450670D01*
Y3437330D01*
X7952560Y3430670D01*
G01Y3610660D02*
X7953910Y3617330D01*
Y3630660D01*
X7952560Y3637330D01*
X7951210Y3630660D01*
Y3617330D01*
X7952560Y3610660D01*
G01X7840800Y3844000D02*
X7846220Y3830670D01*
X7850280Y3797330D01*
X7852990Y3757340D01*
X7855020Y3703990D01*
X7855700Y3643990D01*
X7855020Y3583990D01*
X7852990Y3530660D01*
X7850280Y3490660D01*
X7846220Y3457330D01*
X7840800Y3444000D01*
X7835380Y3457330D01*
X7831320Y3490660D01*
X7828610Y3530660D01*
X7826580Y3583990D01*
X7825900Y3643990D01*
X7826580Y3703990D01*
X7828610Y3757340D01*
X7831320Y3797330D01*
X7835380Y3830670D01*
X7840800Y3844000D01*
G01X7784920Y3430670D02*
X7786270Y3437330D01*
Y3450670D01*
X7784920Y3457330D01*
X7783570Y3450670D01*
Y3437330D01*
X7784920Y3430670D01*
G01X7720910Y3444000D02*
Y3844000D01*
X7745970Y3557330D01*
X7712110D01*
G01X7637600Y3444000D02*
Y3710660D01*
G01Y3637330D02*
X7635570Y3670670D01*
X7632180Y3697330D01*
X7627440Y3710660D01*
X7622700Y3697330D01*
X7619310Y3670670D01*
X7617280Y3637330D01*
Y3444000D01*
G01Y3637330D02*
X7615250Y3670670D01*
X7611860Y3697330D01*
X7607120Y3710660D01*
X7602380Y3697330D01*
X7598990Y3670670D01*
X7596960Y3630660D01*
Y3444000D01*
G01X7581720D02*
Y3710660D01*
G01Y3637330D02*
X7579690Y3670670D01*
X7576300Y3697330D01*
X7571560Y3710660D01*
X7566820Y3697330D01*
X7563430Y3670670D01*
X7561400Y3637330D01*
Y3444000D01*
G01Y3637330D02*
X7559370Y3670670D01*
X7555980Y3697330D01*
X7551240Y3710660D01*
X7546500Y3697330D01*
X7543110Y3670670D01*
X7541080Y3630660D01*
Y3444000D01*
G01X7450990Y3370670D02*
X7448290Y3457330D01*
G01X7349400Y3444000D02*
Y3844000D01*
G01Y3650670D02*
X7346010Y3684000D01*
X7342620Y3703990D01*
X7337200Y3710660D01*
X7333140Y3703990D01*
X7328400Y3677330D01*
X7326360Y3637330D01*
Y3444000D01*
G01X7292160Y3624000D02*
X7270480D01*
X7272520Y3670670D01*
X7275900Y3697330D01*
X7280650Y3710660D01*
X7285390Y3703990D01*
X7289450Y3684000D01*
X7292160Y3637330D01*
X7293520Y3597320D01*
Y3557330D01*
X7292160Y3517330D01*
X7288770Y3477330D01*
X7284710Y3450670D01*
X7279970Y3444000D01*
X7275230Y3457330D01*
X7270480Y3497320D01*
G01X7226120Y3710660D02*
Y3444000D01*
G01Y3817330D02*
X7227470Y3823990D01*
Y3837330D01*
X7226120Y3844000D01*
X7224770Y3837330D01*
Y3823990D01*
X7226120Y3817330D01*
G01X7179720Y3344000D02*
X7174980Y3317340D01*
X7169560Y3310670D01*
X7164820Y3317340D01*
X7160760Y3350660D01*
X7158050Y3397330D01*
Y3710660D01*
G01Y3657340D02*
X7160760Y3684000D01*
X7164820Y3703990D01*
X7169560Y3710660D01*
X7174980Y3697330D01*
X7178370Y3670670D01*
X7181080Y3624000D01*
X7182430Y3577330D01*
X7181760Y3537330D01*
X7179050Y3490660D01*
X7174980Y3457330D01*
X7169560Y3444000D01*
X7165500Y3450670D01*
X7160760Y3477330D01*
X7158050Y3503990D01*
G01X7125880Y3444000D02*
Y3844000D01*
G01Y3650670D02*
X7122490Y3684000D01*
X7119100Y3703990D01*
X7113680Y3710660D01*
X7109620Y3703990D01*
X7104880Y3677330D01*
X7102840Y3637330D01*
Y3444000D01*
G01X7058480Y3844000D02*
Y3444000D01*
G01X7067960Y3710660D02*
X7049000D01*
G01X6946720Y3430670D02*
X6948070Y3437330D01*
Y3450670D01*
X6946720Y3457330D01*
X6945370Y3450670D01*
Y3437330D01*
X6946720Y3430670D01*
G01Y3610660D02*
X6948070Y3617330D01*
Y3630660D01*
X6946720Y3637330D01*
X6945370Y3630660D01*
Y3617330D01*
X6946720Y3610660D01*
G01X6826830Y3444000D02*
Y3844000D01*
X6851890Y3557330D01*
X6818030D01*
G01X6743520Y3444000D02*
Y3710660D01*
G01Y3637330D02*
X6741490Y3670670D01*
X6738100Y3697330D01*
X6733360Y3710660D01*
X6728620Y3697330D01*
X6725230Y3670670D01*
X6723200Y3637330D01*
Y3444000D01*
G01Y3637330D02*
X6721170Y3670670D01*
X6717780Y3697330D01*
X6713040Y3710660D01*
X6708300Y3697330D01*
X6704910Y3670670D01*
X6702880Y3630660D01*
Y3444000D01*
G01X6687640D02*
Y3710660D01*
G01Y3637330D02*
X6685610Y3670670D01*
X6682220Y3697330D01*
X6677480Y3710660D01*
X6672740Y3697330D01*
X6669350Y3670670D01*
X6667320Y3637330D01*
Y3444000D01*
G01Y3637330D02*
X6665290Y3670670D01*
X6661900Y3697330D01*
X6657160Y3710660D01*
X6652420Y3697330D01*
X6649030Y3670670D01*
X6647000Y3630660D01*
Y3444000D01*
G54D19*
G01X500000Y2373400D02*
Y2492000D01*
G01D02*
Y2610600D01*
G01X381400Y2492000D02*
X500000D01*
G01D02*
X618600D01*
G01X500000Y2373400D02*
Y2492000D01*
G01D02*
Y2610600D01*
G01X381400Y2492000D02*
X500000D01*
G01D02*
X618600D01*
G01X762000Y3754900D02*
Y3873500D01*
G01D02*
Y3992100D01*
G01X643400Y3873500D02*
X762000D01*
G01D02*
X880600D01*
G01X762000Y3754900D02*
Y3873500D01*
G01D02*
Y3992100D01*
G01X643400Y3873500D02*
X762000D01*
G01D02*
X880600D01*
G01X2222500Y3048000D02*
Y3619500D01*
X1662570Y4179430D01*
X1125190D01*
X1016000Y4070240D01*
Y3873500D01*
G01X1460500Y2540000D02*
X1335870Y2756760D01*
X1270000Y3873500D01*
G01X1460500Y5850400D02*
Y5969000D01*
G01D02*
Y6087600D01*
G01Y5969000D02*
X1579100D01*
G01X1460500Y5850400D02*
Y5969000D01*
G01D02*
Y6087600D01*
G01X1341900Y5969000D02*
X1460500D01*
G01D02*
X1579100D01*
G01X2222500Y2540000D02*
X3238500Y2413000D01*
G01X2730500Y1841500D02*
X2222500Y2286000D01*
G01Y2675400D02*
Y2794000D01*
G01D02*
Y2912600D01*
G01X2103900Y2794000D02*
X2222500D01*
G01D02*
X2341100D01*
G01X2222500Y2675400D02*
Y2794000D01*
G01D02*
Y2912600D01*
G01X2103900Y2794000D02*
X2222500D01*
G01D02*
X2341100D01*
G01X2476500Y4453400D02*
Y4572000D01*
G01D02*
Y4690600D01*
G01X2357900Y4572000D02*
X2476500D01*
G01D02*
X2595100D01*
G01X2476500Y4453400D02*
Y4572000D01*
G01D02*
Y4690600D01*
G01X2357900Y4572000D02*
X2476500D01*
G01D02*
X2595100D01*
G01X2222500Y5207000D02*
X2476500Y4826000D01*
G01X2222500Y5715000D02*
Y5461000D01*
G01X4762500Y5334000D02*
X4648600D01*
X2222500Y5461000D01*
G01X3238500Y2548400D02*
Y2667000D01*
G01Y2548400D02*
Y2667000D01*
G01D02*
Y2785600D01*
G01X3119900Y2667000D02*
X3238500D01*
G01D02*
X3357100D01*
G01X3238500D02*
Y2785600D01*
G01X3119900Y2667000D02*
X3238500D01*
G01D02*
X3357100D01*
G01X3302000Y4066050D02*
Y4191000D01*
G01Y4066050D02*
Y4191000D01*
G01D02*
Y4315950D01*
G01X3177050Y4191000D02*
X3302000D01*
G01D02*
X3426950D01*
G01X3302000D02*
Y4315950D01*
G01X3177050Y4191000D02*
X3302000D01*
G01D02*
X3426950D01*
G01X3302000Y5588000D02*
Y5207000D01*
G01Y5588000D02*
X4762500D01*
G01X4381500Y381000D02*
X3746500Y1841500D01*
G01X4381500Y889000D02*
Y1397000D01*
G01X4508500Y4580400D02*
Y4699000D01*
G01D02*
Y4817600D01*
G01X4389900Y4699000D02*
X4508500D01*
G01D02*
X4627100D01*
G01X4508500Y4580400D02*
Y4699000D01*
G01D02*
Y4817600D01*
G01X4389900Y4699000D02*
X4508500D01*
G01D02*
X4627100D01*
G01X5588000D02*
X4762500D01*
G01Y5334000D02*
Y4699000D01*
G01X4826000Y6223000D02*
X4889100Y5593060D01*
Y5546080D01*
X4848320Y5505300D01*
X4762500Y5461000D01*
G01X5397500Y381000D02*
X7429500D01*
X8064500Y1016000D01*
G01X6477000Y2730500D02*
X5778500Y2286000D01*
Y1079500D01*
X5397500Y889000D01*
G01Y1397000D02*
Y1521950D01*
G01X5272550Y1397000D02*
X5397500D01*
G01D02*
X5522450D01*
G01X5397500Y1272050D02*
Y1397000D01*
G01D02*
Y1521950D01*
G01X5272550Y1397000D02*
X5397500D01*
G01D02*
X5522450D01*
G01X6223000Y4699000D02*
X5588000Y5715000D01*
G01X6223000Y4699000D02*
X8382000Y3873500D01*
Y2667000D01*
X7874000Y1905000D01*
X6667500Y1841500D01*
X6223000Y1587500D01*
Y1270000D01*
X6540500Y1016000D01*
G01X6421900Y1270000D02*
X6540500D01*
G01X6421900D02*
X6540500D01*
G01X6358400Y2476500D02*
X6477000D01*
G01X6358400D02*
X6477000D01*
G01X6223000Y5715000D02*
X7048500Y6350000D01*
G01X6540500Y1270000D02*
Y1388600D01*
G01Y1270000D02*
X6659100D01*
G01X6540500Y1151400D02*
Y1270000D01*
G01D02*
Y1388600D01*
G01Y1270000D02*
X6659100D01*
G01X6477000Y2357900D02*
Y2476500D01*
G01D02*
Y2595100D01*
G01Y2476500D02*
X6595600D01*
G01X6477000Y2357900D02*
Y2476500D01*
G01D02*
Y2595100D01*
G01Y2476500D02*
X6595600D01*
G01X7302500Y6604000D02*
X7048500Y6350000D01*
G01X8064500Y1016000D02*
X7302500D01*
G01X7594600Y2984500D02*
X7239000Y2476500D01*
G01X7302500Y6096000D02*
X9779000Y3619500D01*
Y1863400D01*
X8931600Y1016000D01*
X8064500D01*
G01X8509000Y1841500D02*
Y2984500D01*
G01D02*
X8616550D01*
X9500000Y3000000D01*
G01X9400050Y1841500D02*
X9525000D01*
G01X9400050D02*
X9525000D01*
G01X9500000Y2627400D02*
Y2746000D01*
G01Y2627400D02*
Y2746000D01*
G01D02*
Y2864600D01*
G01X9381400Y2746000D02*
X9500000D01*
G01D02*
X9618600D01*
G01X9500000D02*
Y2864600D01*
G01X9381400Y2746000D02*
X9500000D01*
G01D02*
X9618600D01*
G01X9525000Y1716550D02*
Y1841500D01*
G01D02*
Y1966450D01*
G01Y1841500D02*
X9649950D01*
G01X9525000D02*
Y1966450D01*
M02*
