G04 ================== begin FILE IDENTIFICATION RECORD ==================*
G04 Layout Name:  C:/Users/user/Desktop/work/0730/allegro/PULSE_MODULATION.brd*
G04 Film Name:    Design*
G04 File Format:  Gerber RS274X*
G04 File Origin:  Cadence Allegro 17.2-S052*
G04 Origin Date:  Tue Jul 30 17:03:15 2019*
G04 *
G04 Layer:  VIA CLASS/BOTTOM*
G04 Layer:  VIA CLASS/TOP*
G04 Layer:  ROUTE KEEPIN/ALL*
G04 Layer:  REF DES/SILKSCREEN_TOP*
G04 Layer:  REF DES/SILKSCREEN_BOTTOM*
G04 Layer:  PIN/BOTTOM*
G04 Layer:  PIN/TOP*
G04 Layer:  PACKAGE KEEPIN/ALL*
G04 Layer:  PACKAGE GEOMETRY/PIN_NUMBER*
G04 Layer:  PACKAGE GEOMETRY/SILKSCREEN_TOP*
G04 Layer:  PACKAGE GEOMETRY/SILKSCREEN_BOTTOM*
G04 Layer:  PACKAGE GEOMETRY/SOLDERMASK_TOP*
G04 Layer:  PACKAGE GEOMETRY/SOLDERMASK_BOTTOM*
G04 Layer:  PACKAGE GEOMETRY/PASTEMASK_TOP*
G04 Layer:  PACKAGE GEOMETRY/PASTEMASK_BOTTOM*
G04 Layer:  ETCH/BOTTOM*
G04 Layer:  ETCH/TOP*
G04 Layer:  BOARD GEOMETRY/OUTLINE*
G04 Layer:  BOARD GEOMETRY/SILKSCREEN_TOP*
G04 Layer:  BOARD GEOMETRY/SILKSCREEN_BOTTOM*
G04 Layer:  BOARD GEOMETRY/SOLDERMASK_TOP*
G04 Layer:  BOARD GEOMETRY/SOLDERMASK_BOTTOM*
G04 Layer:  BOARD GEOMETRY/DESIGN_OUTLINE*
G04 *
G04 Offset:    (0.0000 0.0000)*
G04 Mirror:    No*
G04 Mode:      Positive*
G04 Rotation:  0*
G04 FullContactRelief:  No*
G04 UndefLineWidth:     0.0000*
G04 ================== end FILE IDENTIFICATION RECORD ====================*
%FSLAX25Y25*MOMM*%
%IR0*IPPOS*OFA0.00000B0.00000*MIA0B0*SFA1.00000B1.00000*%
%ADD10C,.635*%
%ADD15O,1.524X1.016*%
%ADD14R,1.524X1.016*%
%ADD11C,1.524*%
%ADD13C,1.651*%
%ADD12R,1.524X1.524*%
%ADD16C,1.397*%
%ADD17R,1.397X1.397*%
%ADD18C,.4*%
%ADD19C,.5*%
%ADD20C,1.*%
%ADD23C,2.2704*%
%ADD24C,2.5244*%
%ADD21R,5.0804X5.0804*%
%ADD22C,2.3974*%
G75*
%LPD*%
G75*
G36*
G01X100010Y6899990D02*
X9899990D01*
Y100010D01*
X100010D01*
Y6899990D01*
G37*
%LPC*%
G75*
G36*
G01X4267770Y449110D02*
X4268330Y450040D01*
G02X4381500Y513570I113170J-69033D01*
G02X4408850Y510720I9J-132571D01*
G01X4409260Y510630D01*
G02X4514070Y381000I-27759J-129630D01*
G02X4248930I-132570J0D01*
G02X4267770Y449110I132568J-9D01*
G37*
G36*
G01X5397500Y248430D02*
G02Y513570I0J132570D01*
G02X5506800Y456020I0J-132567D01*
G02X5530070Y381000I-109293J-75020D01*
G02X5506800Y305980I-132563J0D01*
G02X5397500Y248430I-109300J75017D01*
G37*
G36*
G01X4306480Y998300D02*
G02X4381500Y1021570I75020J-109293D01*
G02X4456520Y998300I0J-132563D01*
G02X4514070Y889000I-75017J-109300D01*
G02X4381500Y756430I-132570J0D01*
G02X4311600Y776360I7J132568D01*
G03X4311370Y776500I-5399J-8611D01*
G02X4248930Y889000I70127J112500D01*
G02X4251400Y914470I132570J-1D01*
G03X4251450Y914710I-9922J2192D01*
G02X4306480Y998300I130052J-25708D01*
G37*
G36*
G01X5397500Y756430D02*
G02Y1021570I0J132570D01*
G02X5459430Y1006210I-10J-132568D01*
G01X5460420Y1005690D01*
G02X5530070Y889000I-62925J-116690D01*
G02X5528520Y868760I-132572J-27D01*
G01X5528430Y868220D01*
G02X5397500Y756430I-130930J20779D01*
G37*
G36*
G01X6509580Y1138370D02*
X6510510Y1138600D01*
G02X6540500Y1142220I30012J-122597D01*
G02X6666720Y1016000I0J-126220D01*
G02X6586500Y898460I-126221J0D01*
G03Y879540I3703J-9460D01*
G02X6666720Y762000I-46001J-117540D01*
G02X6414280I-126220J0D01*
G02X6494500Y879540I126221J0D01*
G03Y898460I-3703J9460D01*
G02X6414280Y1016000I46001J117540D01*
G02X6509580Y1138370I126215J0D01*
G37*
G36*
G01X4011880Y1042980D02*
X3924910Y1243020D01*
X4088510D01*
X4175490Y1042980D01*
X4011880D01*
G37*
G36*
G01X6511120Y1160350D02*
G02X6426980Y1270000I29377J109650D01*
G02X6540500Y1156480I113520J0D01*
G02X6511390Y1160280I16J113518D01*
G03X6511120Y1160350I-2685J-9801D01*
G37*
G36*
G01X4306480Y1287700D02*
G02X4248930Y1397000I75017J109300D01*
G02X4381500Y1529570I132570J0D01*
G02X4430750Y1520080I-5J-132569D01*
G03X4430930Y1520010I3772J9434D01*
G02X4514070Y1397000I-49430J-123010D01*
G02X4456520Y1287700I-132567J0D01*
G01Y1107200D01*
X4421600Y1072280D01*
G02X4350880Y1042980I-70728J70717D01*
G01X4306480D01*
Y1243020D01*
X4309450D01*
X4327360Y1260930D01*
G03X4324540Y1277290I-7183J7185D01*
G02X4306480Y1287700I56969J119705D01*
G37*
G36*
G01X6464300Y1650220D02*
X6616700D01*
G02X6666720Y1600200I0J-50020D01*
G01Y1447800D01*
G02X6616700Y1397780I-50020J0D01*
G01X6464300D01*
G02X6414280Y1447800I0J50020D01*
G01Y1600200D01*
G02X6414300Y1601520I50019J-98D01*
G01X6414320Y1602120D01*
G02X6464300Y1650220I49980J-1917D01*
G37*
G36*
G01X7256500Y1406460D02*
G02X7176280Y1524000I46001J117540D01*
G02X7428720I126220J0D01*
G02X7348500Y1406460I-126221J0D01*
G03Y1387540I3703J-9460D01*
G02Y1152460I-46001J-117540D01*
G03Y1133540I3703J-9460D01*
G02Y898460I-46001J-117540D01*
G03Y879540I3703J-9460D01*
G02X7428720Y762000I-46001J-117540D01*
G02X7176280I-126220J0D01*
G02X7256500Y879540I126221J0D01*
G03Y898460I-3703J9460D01*
G02Y1133540I46001J117540D01*
G03Y1152460I-3703J9460D01*
G02Y1387540I46001J117540D01*
G03Y1406460I-3703J9460D01*
G37*
G36*
G01X9509100Y1722690D02*
G02X9405130Y1841500I15899J118810D01*
G02X9525000Y1961370I119870J0D01*
G02X9643810Y1857400I0J-119869D01*
G03X9643830Y1857270I10051J1480D01*
G02X9644870Y1841500I-118831J-15756D01*
G02X9525000Y1721630I-119870J0D01*
G02X9509230Y1722670I-14J119871D01*
G03X9509100Y1722690I-1610J-10031D01*
G37*
G36*
G01X7519980Y1811240D02*
Y1961490D01*
X7720020Y1972020D01*
Y1821770D01*
X7519980Y1811240D01*
G37*
G36*
G01X2699430Y1970380D02*
X2700160Y1970550D01*
G02X2730500Y1974070I30346J-129049D01*
G02X2597930Y1841500I0J-132570D01*
G01Y1841560D01*
G02X2598560Y1854440I132572J-29D01*
G01X2598710Y1855960D01*
G03X2598780Y1856450I-10021J1682D01*
G02X2699430Y1970380I131721J-14943D01*
G37*
G36*
G01X3718740Y1711870D02*
G02X3613930Y1841500I27759J129630D01*
G02X3879070I132570J0D01*
G02X3860230Y1773390I-132568J9D01*
G01X3859670Y1772460D01*
G02X3746500Y1708930I-113170J69033D01*
G02X3719150Y1711780I-9J132571D01*
G01X3718740Y1711870D01*
G37*
G36*
G01X8433980Y1950800D02*
G02X8509000Y1974070I75020J-109293D01*
G02X8584020Y1950800I0J-132563D01*
G02X8641570Y1841500I-75017J-109300D01*
G02X8376430I-132570J0D01*
G02X8433980Y1950800I132567J0D01*
G37*
G36*
G01X6448490Y2345460D02*
X6448900Y2345550D01*
G02X6477000Y2348720I28110J-123049D01*
G02Y2096280I0J-126220D01*
G02X6366830Y2160900I0J126224D01*
G01X6366010Y2162380D01*
X6303300Y2190250D01*
X6351820Y2238770D01*
X6352060Y2240450D01*
G02X6448490Y2345460I124941J-17952D01*
G37*
G36*
G01X500000Y2111780D02*
G02Y2364220I0J126220D01*
G02X570520Y2342680I0J-126208D01*
G01X570980Y2342370D01*
G02X626220Y2238000I-70978J-104370D01*
G02X581380Y2141520I-126216J0D01*
G01X580600Y2140870D01*
G02X500000Y2111780I-80605J97128D01*
G37*
G36*
G01X5987980Y2330390D02*
X5823440Y2403520D01*
X6025980Y2532410D01*
X6190520Y2459280D01*
X5987980Y2330390D01*
G37*
G36*
G01X3129520Y2349320D02*
G02X3112280Y2413000I108989J63680D01*
G02X3238500Y2286780I126220J0D01*
G02X3129710Y2349000I0J126218D01*
G01X3129520Y2349320D01*
G37*
G36*
G01X2176500Y2422460D02*
G02X2096280Y2540000I46001J117540D01*
G02X2222500Y2666220I126220J0D01*
G02X2331290Y2604000I0J-126218D01*
G01X2331440Y2603740D01*
G02X2348720Y2540000I-108938J-63746D01*
G02X2312420Y2451430I-126218J6D01*
G01X2312190Y2451190D01*
G02X2268500Y2422460I-89691J88809D01*
G03Y2403540I3703J-9460D01*
G02X2348720Y2286000I-46001J-117540D01*
G02X2348470Y2278090I-126219J30D01*
G01X2348440Y2277640D01*
G02X2342760Y2247670I-125957J8348D01*
G03X2352440Y2234420I9678J-3091D01*
G01X2395380D01*
X2623990Y2034380D01*
X2396140D01*
X2249510Y2162680D01*
X2247060Y2162190D01*
G02X2222530Y2159780I-24547J123811D01*
G01X2222500D01*
G02X2096280Y2286000I0J126220D01*
G02X2176500Y2403540I126221J0D01*
G03Y2422460I-3703J9460D01*
G37*
G36*
G01X7478890Y2953200D02*
G02X7474730Y2984500I115709J31305D01*
G02X7594600Y2864630I119870J0D01*
G02X7479010Y2952740I0J119875D01*
G01X7478890Y2953200D01*
G37*
G36*
G01X8439150Y3104370D02*
X8578850D01*
G02X8627940Y3063930I0J-50015D01*
G01X8628050Y3063360D01*
G02X8628870Y3054350I-49199J-9020D01*
G01Y2914650D01*
G02X8628140Y2906150I-50019J14D01*
G01X8628040Y2905600D01*
G02X8606070Y2872690I-49192J9051D01*
G02X8578850Y2864630I-27227J41958D01*
G01X8439150D01*
G02X8389130Y2914650I0J50020D01*
G01Y3054350D01*
G02X8439150Y3104370I50020J0D01*
G37*
G36*
G01X6400800Y3110720D02*
X6553200D01*
G02X6603220Y3060700I0J-50020D01*
G01Y2908300D01*
G02X6553200Y2858280I-50020J0D01*
G01X6546030D01*
G03X6540890Y2839360I1J-10158D01*
G02X6603220Y2730500I-63898J-108860D01*
G02X6350780I-126220J0D01*
G02X6413110Y2839360I126228J0D01*
G03X6407970Y2858280I-5141J8762D01*
G01X6400800D01*
G02X6350780Y2908300I0J50020D01*
G01Y3060700D01*
G02X6400800Y3110720I50020J0D01*
G37*
G36*
G01X7193000Y2866960D02*
G02X7112780Y2984500I46001J117540D01*
G02X7365220I126220J0D01*
G02X7285000Y2866960I-126221J0D01*
G03Y2848040I3703J-9460D01*
G02X7349730Y2791080I-46003J-117538D01*
G03X7349770Y2791020I8442J5585D01*
G02X7357990Y2772600I-110787J-60483D01*
G01X7358560Y2771000D01*
X7480040Y2690010D01*
X7358690Y2516660D01*
X7359430Y2514280D01*
G02X7365220Y2476500I-120428J-37790D01*
G02X7285000Y2358960I-126221J0D01*
G03Y2340040I3703J-9460D01*
G02X7365220Y2222500I-46001J-117540D01*
G02X7112780I-126220J0D01*
G02X7193000Y2340040I126221J0D01*
G03Y2358960I-3703J9460D01*
G02Y2594040I46001J117540D01*
G03Y2612960I-3703J9460D01*
G02X7121790Y2683670I46002J117539D01*
G01X7121650Y2684010D01*
G02X7193000Y2848040I117349J46488D01*
G03Y2866960I-3703J9460D01*
G37*
G36*
G01X432870Y3106890D02*
G03X433070Y3107010I-5127J8772D01*
G02X500000Y3126220I66935J-107009D01*
G02X569630Y3105270I-9J-126217D01*
G01X570480Y3104710D01*
G02X626220Y3000000I-70481J-104710D01*
G02X533500Y2878310I-126216J0D01*
G01X532540Y2878040D01*
X527730Y2874360D01*
X532630Y2867940D01*
X534260Y2867480D01*
G02X626220Y2746000I-34258J-121480D01*
G02X500000Y2619780I-126220J0D01*
G02X373790Y2744690I0J126217D01*
G01X373780Y2745420D01*
G02Y2746000I126220J290D01*
G02X454000Y2863540I126221J0D01*
G03Y2882460I-3703J9460D01*
G02X373780Y3000000I46001J117540D01*
G02X432870Y3106890I126224J0D01*
G37*
G36*
G01X9398540Y3075080D02*
X9398650Y3075230D01*
G02X9500000Y3126220I101350J-75229D01*
G02X9373780Y3000000I0J-126220D01*
G02X9398540Y3075080I126213J0D01*
G37*
G36*
G01X1384300Y3174220D02*
X1536700D01*
G02X1586720Y3124200I0J-50020D01*
G01Y2971800D01*
G02X1536700Y2921780I-50020J0D01*
G01X1529530D01*
G03X1524390Y2902860I1J-10158D01*
G02X1586720Y2794000I-63898J-108860D01*
G02X1506500Y2676460I-126221J0D01*
G03Y2657540I3703J-9460D01*
G02Y2422460I-46001J-117540D01*
G03Y2403540I3703J-9460D01*
G02X1586720Y2286000I-46001J-117540D01*
G02X1460500Y2159780I-126220J0D01*
G02X1389980Y2181320I0J126208D01*
G01X1389520Y2181630D01*
G02X1334280Y2286000I70978J104370D01*
G02X1379080Y2382450I126224J0D01*
G01X1379900Y2383130D01*
G02X1414500Y2403540I80612J-97124D01*
G03Y2422460I-3703J9460D01*
G02X1334280Y2540000I46001J117540D01*
G02X1343900Y2588320I126218J-11D01*
G01X1344190Y2589040D01*
G02X1414500Y2657540I116305J-49044D01*
G03Y2676460I-3703J9460D01*
G02X1334280Y2794000I46001J117540D01*
G02X1396610Y2902860I126228J0D01*
G03X1391470Y2921780I-5141J8762D01*
G01X1384300D01*
G02X1340320Y2947980I0J50013D01*
G01X1324520D01*
X1249700Y2943610D01*
X1237920Y3143300D01*
X1315770Y3147850D01*
G02X1321600Y3148020I5829J-99850D01*
G01X1340320D01*
G02X1384300Y3174220I43980J-23813D01*
G37*
G36*
G01X1133540Y3919500D02*
G03X1152460I9460J3703D01*
G02X1270000Y3999720I117540J-46001D01*
G02X1396220Y3873500I0J-126220D01*
G02X1352760Y3778200I-126218J0D01*
G01X1352400Y3777890D01*
G02X1270000Y3747280I-82400J95603D01*
G02X1199380Y3768880I-6J126223D01*
G01X1199020Y3769130D01*
G02X1152460Y3827500I70978J104372D01*
G03X1133540I-9460J-3703D01*
G02X1016000Y3747280I-117540J46001D01*
G02Y3999720I0J126220D01*
G02X1133540Y3919500I0J-126221D01*
G37*
G36*
G01X5478700Y4774020D02*
G02X5588000Y4831570I109300J-75017D01*
G02Y4566430I0J-132570D01*
G02X5478700Y4623980I0J132567D01*
G02X5455430Y4699000I109293J75020D01*
G02X5478700Y4774020I132563J0D01*
G37*
G36*
G01X6223000Y4566430D02*
G02Y4831570I0J132570D01*
G02X6230530Y4831360I71J-132572D01*
G01X6231280Y4831310D01*
G02X6351250Y4732550I-8283J-132309D01*
G01X6351510Y4731550D01*
G02X6355570Y4699000I-128509J-32557D01*
G02X6296580Y4588720I-132578J0D01*
G01X6296150Y4588440D01*
G02X6223000Y4566430I-73150J110552D01*
G37*
G36*
G01X4669750Y5663020D02*
G02X4737100Y5688820I67350J-75007D01*
G01X4787900D01*
G02X4888720Y5588000I0J-100820D01*
G02X4866210Y5524500I-100821J0D01*
G02X4888720Y5461000I-78311J-63500D01*
G01Y5460980D01*
G02X4886680Y5440830I-100821J29D01*
G02X4878000Y5415750I-98788J20148D01*
G02X4888720Y5384810I-39302J-30944D01*
G01Y5283200D01*
G02X4842240Y5233310I-50015J0D01*
G03X4842040Y5233290I405J-5064D01*
G02X4838700Y5233180I-3316J49911D01*
G01X4686300D01*
G02X4682960Y5233290I-25J50016D01*
G03X4682760Y5233310I-605J-5044D01*
G02X4650090Y5248690I3532J49891D01*
G02X4643730Y5256940I36217J34496D01*
G01X4643530Y5257260D01*
G02X4636280Y5283200I42766J25936D01*
G01Y5384810D01*
G02X4644080Y5411630I50022J-4D01*
G01X4644260Y5411910D01*
G02X4647000Y5415750I42044J-27103D01*
G02X4636280Y5460980I90102J45241D01*
G01Y5461000D01*
G02X4658790Y5524500I100821J0D01*
G02X4636280Y5588000I78311J63500D01*
G02X4669750Y5663020I100810J0D01*
G37*
G36*
G01X3201060Y5502060D02*
G02X3169430Y5588000I100936J85940D01*
G02X3302000Y5720570I132570J0D01*
G02X3411300Y5663020I0J-132567D01*
G02X3434570Y5588000I-109293J-75020D01*
G02X3411300Y5512980I-132578J4D01*
G02X3377020Y5478700I-109300J75020D01*
G01Y5316300D01*
G02X3434570Y5207000I-75017J-109300D01*
G02X3169430I-132570J0D01*
G02X3226980Y5316300I132567J0D01*
G01Y5316580D01*
G03Y5330450I-7425J6935D01*
G01Y5478700D01*
G02X3201100Y5502010I75012J109304D01*
G03X3201060Y5502060I-7950J-6319D01*
G37*
G36*
G01X1414500Y5597460D02*
G02X1334280Y5715000I46001J117540D01*
G02X1586720I126220J0D01*
G02X1506500Y5597460I-126221J0D01*
G03Y5578540I3703J-9460D01*
G02Y5343460I-46001J-117540D01*
G03Y5324540I3703J-9460D01*
G02X1586720Y5207000I-46001J-117540D01*
G02X1334280I-126220J0D01*
G02X1414500Y5324540I126221J0D01*
G03Y5343460I-3703J9460D01*
G02Y5578540I46001J117540D01*
G03Y5597460I-3703J9460D01*
G37*
G36*
G01X5579720Y5582690D02*
G02X5455430Y5715000I8279J132310D01*
G02X5588000Y5582430I132570J0D01*
G02X5580470Y5582640I-71J132572D01*
G01X5579720Y5582690D01*
G37*
G36*
G01X6355570Y5715000D02*
G02X6223000Y5847570I-132570J0D01*
G02X6261420Y5841880I-2J-132570D01*
G01X6261980Y5841710D01*
G02X6355480Y5719940I-38979J-126711D01*
G01X6355490Y5719590D01*
G02X6355570Y5715000I-132490J-4605D01*
G37*
G36*
G01X1346980Y6045200D02*
G02X1384300Y6082520I37320J0D01*
G01X1536700D01*
G02X1574020Y6045200I0J-37320D01*
G01Y5892800D01*
G02X1536700Y5855480I-37320J0D01*
G01X1384300D01*
G02X1346980Y5892800I0J37320D01*
G01Y6045200D01*
G37*
G36*
G01X2176500Y5851460D02*
G02X2096280Y5969000I46001J117540D01*
G02X2348720I126220J0D01*
G02X2268500Y5851460I-126221J0D01*
G03Y5832540I3703J-9460D01*
G02Y5597460I-46001J-117540D01*
G03Y5578540I3703J-9460D01*
G02X2326400Y5532670I-45999J-117540D01*
G01X2326530Y5532480D01*
G02X2348720Y5461000I-104033J-71480D01*
G02X2318670Y5379250I-126224J0D01*
G01X2318350Y5378880D01*
G02X2268500Y5343460I-95855J82117D01*
G03Y5324540I3703J-9460D01*
G02X2348720Y5207000I-46001J-117540D01*
G02X2096280I-126220J0D01*
G02X2176500Y5324540I126221J0D01*
G03Y5343460I-3703J9460D01*
G02Y5578540I46001J117540D01*
G03Y5597460I-3703J9460D01*
G02Y5832540I46001J117540D01*
G03Y5851460I-3703J9460D01*
G37*
G36*
G01X7015570Y6228150D02*
G02X6922280Y6350000I32932J121850D01*
G02X7048500Y6223780I126220J0D01*
G02X7016180Y6227990I7J126219D01*
G01X7015570Y6228150D01*
G37*
G36*
G01X3219070Y6500570D02*
G02X3169430Y6604000I82933J103430D01*
G02X3302000Y6471430I132570J0D01*
G02X3219500Y6500230I0J132564D01*
G01X3219070Y6500570D01*
G37*
G54D23*
X6477000Y2476500D03*
X500000Y2492000D03*
X3238500Y2667000D03*
X9500000Y2746000D03*
X2222500Y2794000D03*
X762000Y3873500D03*
X2476500Y4572000D03*
X4508500Y4699000D03*
G54D24*
X2222500Y3048000D03*
X4762500Y4699000D03*
X2476500Y4826000D03*
X7302500Y6096000D03*
X4318000Y6223000D03*
X4826000D03*
X4572000Y6477000D03*
X7302500Y6604000D03*
G54D21*
X500000Y500000D03*
X9500000D03*
X500000Y6500000D03*
X9500000D03*
G54D22*
X5397500Y1397000D03*
X3302000Y4191000D03*
%LPD*%
G75*
G36*
G01X1563910Y2721630D02*
G02X1580360Y2721900I8323J-5827D01*
G01X2009560Y2150520D01*
G02X1996980Y2135290I-8122J-6102D01*
G01X1573590Y2342080D01*
X1572820Y2343580D01*
G03X1506500Y2403540I-112322J-57578D01*
G02Y2422460I3703J9460D01*
G03Y2657540I-46001J117540D01*
G02Y2676460I3703J9460D01*
G03X1563910Y2721630I-46003J117538D01*
G37*
G54D10*
X500000Y500000D03*
D03*
Y6500000D03*
D03*
X9500000Y500000D03*
D03*
Y6500000D03*
D03*
G54D20*
G01X500000Y2492000D02*
X190500Y2730500D01*
G01D02*
Y5143500D01*
X539720Y5492720D01*
G01X2411990Y6577030D02*
X1206500Y6540500D01*
X774720Y6196000D01*
X317500Y5842000D01*
Y2984500D01*
X500000Y2746000D01*
G01X825500Y2730500D02*
X500000Y2492000D01*
G01Y2238000D02*
X1460500Y2286000D01*
G01X762000Y3873500D02*
X825500Y2730500D01*
G01X500000Y3000000D02*
X1321600Y3048000D01*
X1460500D01*
G01X2730500Y2730500D02*
X539720Y5492720D01*
G01D02*
X1016000Y5969000D01*
G01D02*
X1460500D01*
G01X7239000Y2730500D02*
X6198510Y3365500D01*
X4781050D01*
X3116800Y2134400D01*
X2159700D01*
X2107720Y2186380D01*
X1460500Y3048000D01*
G01X6477000Y2222500D02*
X5334000Y2730500D01*
X4572000Y2222500D01*
X4536910Y1329030D01*
X4350880Y1143000D01*
X3800730D01*
X2834010Y1615160D01*
X1460500Y2286000D01*
G01X2222500Y2794000D02*
X2730500Y2730500D01*
G01X3302000Y4191000D02*
X2476500Y4572000D01*
G01X2222500Y5969000D02*
X2411990Y6577030D01*
G01X3302000Y6604000D02*
X2411990Y6577030D01*
G01X3238500Y2667000D02*
X2730500Y2730500D01*
G01X3238500Y2667000D02*
X3302000Y4191000D01*
G01X3238500Y2667000D02*
X4394620Y3103120D01*
G01X4508500Y4699000D02*
X3302000Y4191000D01*
G01Y6604000D02*
X4572000Y6477000D01*
G01X4723600Y3075280D02*
X5397500Y1397000D01*
G01X4394620Y3103120D02*
X4431580D01*
X4464560Y3136100D01*
X4679440D01*
X4723600Y3091940D01*
Y3075280D01*
G01X4318000Y6223000D02*
X4572000Y6477000D01*
G01X5905500Y254000D02*
X5397500Y1333500D01*
Y1397000D01*
G01D02*
X6540500Y1206500D01*
Y1270000D01*
G01X7937500Y254000D02*
X5905500D01*
G01X6477000Y2222500D02*
X6032500Y1778000D01*
Y1270000D01*
X6540500Y762000D01*
G01X6858000Y2159000D02*
X6477000Y2476500D01*
G01X6540500Y1270000D02*
X6858000Y1524000D01*
G01D02*
Y2159000D01*
G01X7239000Y2730500D02*
X7620000Y2476500D01*
Y1587500D01*
X7302500Y1270000D01*
G01X9525000Y1841500D02*
X7937500Y254000D01*
G01X9525000Y1841500D02*
X9500000Y2746000D01*
G54D11*
X500000Y2238000D03*
D03*
Y2492000D03*
D03*
Y2746000D03*
D03*
Y3000000D03*
D03*
X762000Y3873500D03*
D03*
X1016000D03*
D03*
X1460500Y2286000D03*
D03*
Y2540000D03*
D03*
Y2794000D03*
D03*
X1270000Y3873500D03*
D03*
X1460500Y5207000D03*
D03*
Y5461000D03*
D03*
Y5715000D03*
D03*
X2222500Y2286000D03*
D03*
Y2540000D03*
D03*
Y2794000D03*
D03*
Y3048000D03*
D03*
X2476500Y4826000D03*
D03*
Y4572000D03*
D03*
X2222500Y5207000D03*
D03*
Y5461000D03*
D03*
Y5715000D03*
D03*
Y5969000D03*
D03*
X3238500Y2667000D03*
D03*
Y2413000D03*
D03*
X4762500Y4699000D03*
D03*
X4508500D03*
D03*
X4318000Y6223000D03*
D03*
X4572000Y6477000D03*
D03*
X4826000Y6223000D03*
D03*
X6540500Y762000D03*
D03*
Y1016000D03*
D03*
Y1270000D03*
D03*
X6477000Y2222500D03*
D03*
Y2476500D03*
D03*
Y2730500D03*
D03*
X7302500Y762000D03*
D03*
Y1016000D03*
D03*
Y1270000D03*
D03*
Y1524000D03*
D03*
X7239000Y2222500D03*
D03*
Y2476500D03*
D03*
Y2730500D03*
D03*
Y2984500D03*
D03*
X7302500Y6096000D03*
D03*
X7048500Y6350000D03*
D03*
X7302500Y6604000D03*
D03*
X9500000Y2746000D03*
D03*
Y3000000D03*
D03*
G54D12*
X1460500Y3048000D03*
D03*
Y5969000D03*
D03*
X6540500Y1524000D03*
D03*
X6477000Y2984500D03*
D03*
G54D13*
X2730500Y1841500D03*
D03*
X3302000Y4191000D03*
D03*
Y5588000D03*
D03*
Y5207000D03*
D03*
Y6604000D03*
D03*
X3746500Y1841500D03*
D03*
X4381500Y381000D03*
D03*
Y889000D03*
D03*
Y1397000D03*
D03*
X5397500Y381000D03*
D03*
Y889000D03*
D03*
Y1397000D03*
D03*
X5588000Y4699000D03*
D03*
Y5715000D03*
D03*
X6223000Y4699000D03*
D03*
Y5715000D03*
D03*
X8509000Y1841500D03*
D03*
X9525000D03*
D03*
G54D14*
X4762500Y5334000D03*
D03*
G54D15*
Y5461000D03*
D03*
Y5588000D03*
D03*
G54D16*
X7594600Y2984500D03*
D03*
G54D17*
X8509000D03*
D03*
G54D18*
G01X1562100Y3175000D02*
X1714500D01*
X1778000Y3111500D01*
X1905000D01*
X1968500Y3175000D01*
X2120900D01*
Y2159000D01*
X1562100D01*
Y3175000D01*
G01Y6096000D02*
X1714500D01*
X1778000Y6032500D01*
X1905000D01*
X1968500Y6096000D01*
X2120900D01*
Y5080000D01*
X1562100D01*
Y6096000D01*
G01X2730500Y4699000D02*
G03I-254000J0D01*
G01X3492500Y2540000D02*
G03I-254000J0D01*
G01X4388500Y3348250D02*
Y3748250D01*
G01X4503740Y3614910D02*
Y3348250D01*
G01Y3721580D02*
X4500410Y3728240D01*
Y3741580D01*
X4503740Y3748250D01*
X4507070Y3741580D01*
Y3728240D01*
X4503740Y3721580D01*
G01X4590650Y3348250D02*
Y3614910D01*
G01Y3548240D02*
X4597310Y3581580D01*
X4607310Y3608240D01*
X4620650Y3614910D01*
X4632310Y3608240D01*
X4642310Y3581580D01*
X4647310Y3534910D01*
Y3348250D01*
G01X4709220Y3528250D02*
X4762550D01*
X4757550Y3574920D01*
X4749220Y3601580D01*
X4737550Y3614910D01*
X4725890Y3608240D01*
X4715890Y3588250D01*
X4709220Y3541580D01*
X4705890Y3501570D01*
Y3461580D01*
X4709220Y3421580D01*
X4717550Y3381580D01*
X4727550Y3354920D01*
X4739220Y3348250D01*
X4750890Y3361580D01*
X4762550Y3401570D01*
G01X4923030Y3614910D02*
X4943030Y3348250D01*
X4964700Y3614910D01*
X4986370Y3348250D01*
X5006370Y3614910D01*
G01X5079940D02*
Y3348250D01*
G01Y3721580D02*
X5076610Y3728240D01*
Y3741580D01*
X5079940Y3748250D01*
X5083270Y3741580D01*
Y3728240D01*
X5079940Y3721580D01*
G01X5225180Y3748250D02*
Y3348250D01*
G01Y3408240D02*
X5218510Y3374910D01*
X5208510Y3354920D01*
X5196850Y3348250D01*
X5183510Y3361580D01*
X5173510Y3394910D01*
X5166850Y3434910D01*
X5165180Y3481580D01*
X5166850Y3528250D01*
X5173510Y3568250D01*
X5183510Y3601580D01*
X5196850Y3614910D01*
X5208510Y3608240D01*
X5216850Y3594910D01*
X5225180Y3568250D01*
G01X5310420Y3748250D02*
Y3348250D01*
G01X5287090Y3614910D02*
X5333750D01*
G01X5397330Y3348250D02*
Y3748250D01*
G01Y3554920D02*
X5405660Y3588250D01*
X5413990Y3608240D01*
X5427330Y3614910D01*
X5437330Y3608240D01*
X5448990Y3581580D01*
X5453990Y3541580D01*
Y3348250D01*
G01X5656140Y3334920D02*
X5652810Y3341580D01*
Y3354920D01*
X5656140Y3361580D01*
X5659470Y3354920D01*
Y3341580D01*
X5656140Y3334920D01*
G01Y3514910D02*
X5652810Y3521580D01*
Y3534910D01*
X5656140Y3541580D01*
X5659470Y3534910D01*
Y3521580D01*
X5656140Y3514910D01*
G01X5886620Y3748250D02*
X5873280Y3734920D01*
X5863290Y3701580D01*
X5856620Y3661590D01*
X5851620Y3608240D01*
X5849950Y3548240D01*
X5851620Y3488240D01*
X5856620Y3434910D01*
X5863290Y3394910D01*
X5873280Y3361580D01*
X5886620Y3348250D01*
X5899950Y3361580D01*
X5909950Y3394910D01*
X5916620Y3434910D01*
X5921620Y3488240D01*
X5923290Y3548240D01*
X5921620Y3608240D01*
X5916620Y3661590D01*
X5909950Y3701580D01*
X5899950Y3734920D01*
X5886620Y3748250D01*
G01X6001860Y3334920D02*
X5998530Y3341580D01*
Y3354920D01*
X6001860Y3361580D01*
X6005190Y3354920D01*
Y3341580D01*
X6001860Y3334920D01*
G01X6137100Y3348250D02*
Y3748250D01*
X6075430Y3461580D01*
X6158770D01*
G01X6297580Y3348250D02*
Y3614910D01*
G01Y3541580D02*
X6302580Y3574920D01*
X6310910Y3601580D01*
X6322580Y3614910D01*
X6334240Y3601580D01*
X6342580Y3574920D01*
X6347580Y3541580D01*
Y3348250D01*
G01Y3541580D02*
X6352580Y3574920D01*
X6360910Y3601580D01*
X6372580Y3614910D01*
X6384250Y3601580D01*
X6392580Y3574920D01*
X6397580Y3534910D01*
Y3348250D01*
G01X6412820D02*
Y3614910D01*
G01Y3541580D02*
X6417820Y3574920D01*
X6426150Y3601580D01*
X6437820Y3614910D01*
X6449480Y3601580D01*
X6457820Y3574920D01*
X6462820Y3541580D01*
Y3348250D01*
G01Y3541580D02*
X6467820Y3574920D01*
X6476150Y3601580D01*
X6487820Y3614910D01*
X6499490Y3601580D01*
X6507820Y3574920D01*
X6512820Y3534910D01*
Y3348250D01*
G01X6689970Y3274920D02*
X6696630Y3361580D01*
G01X6895450Y3348250D02*
Y3748250D01*
G01Y3554920D02*
X6903780Y3588250D01*
X6912110Y3608240D01*
X6925450Y3614910D01*
X6935450Y3608240D01*
X6947110Y3581580D01*
X6952110Y3541580D01*
Y3348250D01*
G01X7014020Y3528250D02*
X7067350D01*
X7062350Y3574920D01*
X7054020Y3601580D01*
X7042350Y3614910D01*
X7030690Y3608240D01*
X7020690Y3588250D01*
X7014020Y3541580D01*
X7010690Y3501570D01*
Y3461580D01*
X7014020Y3421580D01*
X7022350Y3381580D01*
X7032350Y3354920D01*
X7044020Y3348250D01*
X7055690Y3361580D01*
X7067350Y3401570D01*
G01X7154260Y3614910D02*
Y3348250D01*
G01Y3721580D02*
X7150930Y3728240D01*
Y3741580D01*
X7154260Y3748250D01*
X7157590Y3741580D01*
Y3728240D01*
X7154260Y3721580D01*
G01X7246170Y3248250D02*
X7257830Y3221590D01*
X7271170Y3214920D01*
X7282830Y3221590D01*
X7292830Y3254910D01*
X7299500Y3301580D01*
Y3614910D01*
G01Y3561590D02*
X7292830Y3588250D01*
X7282830Y3608240D01*
X7271170Y3614910D01*
X7257830Y3601580D01*
X7249500Y3574920D01*
X7242830Y3528250D01*
X7239500Y3481580D01*
X7241170Y3441580D01*
X7247830Y3394910D01*
X7257830Y3361580D01*
X7271170Y3348250D01*
X7281170Y3354920D01*
X7292830Y3381580D01*
X7299500Y3408240D01*
G01X7356410Y3348250D02*
Y3748250D01*
G01Y3554920D02*
X7364740Y3588250D01*
X7373070Y3608240D01*
X7386410Y3614910D01*
X7396410Y3608240D01*
X7408070Y3581580D01*
X7413070Y3541580D01*
Y3348250D01*
G01X7615220Y3334920D02*
X7611890Y3341580D01*
Y3354920D01*
X7615220Y3361580D01*
X7618550Y3354920D01*
Y3341580D01*
X7615220Y3334920D01*
G01Y3514910D02*
X7611890Y3521580D01*
Y3534910D01*
X7615220Y3541580D01*
X7618550Y3534910D01*
Y3521580D01*
X7615220Y3514910D01*
G01X7865700Y3348250D02*
Y3748250D01*
X7804030Y3461580D01*
X7887370D01*
G01X8026180Y3348250D02*
Y3614910D01*
G01Y3541580D02*
X8031180Y3574920D01*
X8039510Y3601580D01*
X8051180Y3614910D01*
X8062840Y3601580D01*
X8071180Y3574920D01*
X8076180Y3541580D01*
Y3348250D01*
G01Y3541580D02*
X8081180Y3574920D01*
X8089510Y3601580D01*
X8101180Y3614910D01*
X8112850Y3601580D01*
X8121180Y3574920D01*
X8126180Y3534910D01*
Y3348250D01*
G01X8141420D02*
Y3614910D01*
G01Y3541580D02*
X8146420Y3574920D01*
X8154750Y3601580D01*
X8166420Y3614910D01*
X8178080Y3601580D01*
X8186420Y3574920D01*
X8191420Y3541580D01*
Y3348250D01*
G01Y3541580D02*
X8196420Y3574920D01*
X8204750Y3601580D01*
X8216420Y3614910D01*
X8228090Y3601580D01*
X8236420Y3574920D01*
X8241420Y3534910D01*
Y3348250D01*
G01X8159160Y3175000D02*
Y3575000D01*
G01X8043920Y3441660D02*
Y3175000D01*
G01Y3548330D02*
X8047250Y3554990D01*
Y3568330D01*
X8043920Y3575000D01*
X8040590Y3568330D01*
Y3554990D01*
X8043920Y3548330D01*
G01X7957010Y3175000D02*
Y3441660D01*
G01Y3374990D02*
X7950350Y3408330D01*
X7940350Y3434990D01*
X7927010Y3441660D01*
X7915350Y3434990D01*
X7905350Y3408330D01*
X7900350Y3361660D01*
Y3175000D01*
G01X7838440Y3355000D02*
X7785110D01*
X7790110Y3401670D01*
X7798440Y3428330D01*
X7810110Y3441660D01*
X7821770Y3434990D01*
X7831770Y3415000D01*
X7838440Y3368330D01*
X7841770Y3328320D01*
Y3288330D01*
X7838440Y3248330D01*
X7830110Y3208330D01*
X7820110Y3181670D01*
X7808440Y3175000D01*
X7796770Y3188330D01*
X7785110Y3228320D01*
G01X7624630Y3441660D02*
X7604630Y3175000D01*
X7582960Y3441660D01*
X7561290Y3175000D01*
X7541290Y3441660D01*
G01X7467720D02*
Y3175000D01*
G01Y3548330D02*
X7471050Y3554990D01*
Y3568330D01*
X7467720Y3575000D01*
X7464390Y3568330D01*
Y3554990D01*
X7467720Y3548330D01*
G01X7322480Y3575000D02*
Y3175000D01*
G01Y3234990D02*
X7329150Y3201660D01*
X7339150Y3181670D01*
X7350810Y3175000D01*
X7364150Y3188330D01*
X7374150Y3221660D01*
X7380810Y3261660D01*
X7382480Y3308330D01*
X7380810Y3355000D01*
X7374150Y3395000D01*
X7364150Y3428330D01*
X7350810Y3441660D01*
X7339150Y3434990D01*
X7330810Y3421660D01*
X7322480Y3395000D01*
G01X7237240Y3575000D02*
Y3175000D01*
G01X7260570Y3441660D02*
X7213910D01*
G01X7150330Y3175000D02*
Y3575000D01*
G01Y3381670D02*
X7142000Y3415000D01*
X7133670Y3434990D01*
X7120330Y3441660D01*
X7110330Y3434990D01*
X7098670Y3408330D01*
X7093670Y3368330D01*
Y3175000D01*
G01X6891520Y3161670D02*
X6894850Y3168330D01*
Y3181670D01*
X6891520Y3188330D01*
X6888190Y3181670D01*
Y3168330D01*
X6891520Y3161670D01*
G01Y3341660D02*
X6894850Y3348330D01*
Y3361660D01*
X6891520Y3368330D01*
X6888190Y3361660D01*
Y3348330D01*
X6891520Y3341660D01*
G01X6661040Y3575000D02*
X6674380Y3561670D01*
X6684370Y3528330D01*
X6691040Y3488340D01*
X6696040Y3434990D01*
X6697710Y3374990D01*
X6696040Y3314990D01*
X6691040Y3261660D01*
X6684370Y3221660D01*
X6674380Y3188330D01*
X6661040Y3175000D01*
X6647710Y3188330D01*
X6637710Y3221660D01*
X6631040Y3261660D01*
X6626040Y3314990D01*
X6624370Y3374990D01*
X6626040Y3434990D01*
X6631040Y3488340D01*
X6637710Y3528330D01*
X6647710Y3561670D01*
X6661040Y3575000D01*
G01X6545800Y3161670D02*
X6549130Y3168330D01*
Y3181670D01*
X6545800Y3188330D01*
X6542470Y3181670D01*
Y3168330D01*
X6545800Y3161670D01*
G01X6410560Y3175000D02*
Y3575000D01*
X6472230Y3288330D01*
X6388890D01*
G01X6250080Y3175000D02*
Y3441660D01*
G01Y3368330D02*
X6245080Y3401670D01*
X6236750Y3428330D01*
X6225080Y3441660D01*
X6213420Y3428330D01*
X6205080Y3401670D01*
X6200080Y3368330D01*
Y3175000D01*
G01Y3368330D02*
X6195080Y3401670D01*
X6186750Y3428330D01*
X6175080Y3441660D01*
X6163410Y3428330D01*
X6155080Y3401670D01*
X6150080Y3361660D01*
Y3175000D01*
G01X6134840D02*
Y3441660D01*
G01Y3368330D02*
X6129840Y3401670D01*
X6121510Y3428330D01*
X6109840Y3441660D01*
X6098180Y3428330D01*
X6089840Y3401670D01*
X6084840Y3368330D01*
Y3175000D01*
G01Y3368330D02*
X6079840Y3401670D01*
X6071510Y3428330D01*
X6059840Y3441660D01*
X6048170Y3428330D01*
X6039840Y3401670D01*
X6034840Y3361660D01*
Y3175000D01*
G01X5857690Y3101670D02*
X5851030Y3188330D01*
G01X5652210Y3175000D02*
Y3575000D01*
G01Y3381670D02*
X5643880Y3415000D01*
X5635550Y3434990D01*
X5622210Y3441660D01*
X5612210Y3434990D01*
X5600550Y3408330D01*
X5595550Y3368330D01*
Y3175000D01*
G01X5533640Y3355000D02*
X5480310D01*
X5485310Y3401670D01*
X5493640Y3428330D01*
X5505310Y3441660D01*
X5516970Y3434990D01*
X5526970Y3415000D01*
X5533640Y3368330D01*
X5536970Y3328320D01*
Y3288330D01*
X5533640Y3248330D01*
X5525310Y3208330D01*
X5515310Y3181670D01*
X5503640Y3175000D01*
X5491970Y3188330D01*
X5480310Y3228320D01*
G01X5393400Y3441660D02*
Y3175000D01*
G01Y3548330D02*
X5396730Y3554990D01*
Y3568330D01*
X5393400Y3575000D01*
X5390070Y3568330D01*
Y3554990D01*
X5393400Y3548330D01*
G01X5301490Y3075000D02*
X5289830Y3048340D01*
X5276490Y3041670D01*
X5264830Y3048340D01*
X5254830Y3081660D01*
X5248160Y3128330D01*
Y3441660D01*
G01Y3388340D02*
X5254830Y3415000D01*
X5264830Y3434990D01*
X5276490Y3441660D01*
X5289830Y3428330D01*
X5298160Y3401670D01*
X5304830Y3355000D01*
X5308160Y3308330D01*
X5306490Y3268330D01*
X5299830Y3221660D01*
X5289830Y3188330D01*
X5276490Y3175000D01*
X5266490Y3181670D01*
X5254830Y3208330D01*
X5248160Y3234990D01*
G01X5191250Y3175000D02*
Y3575000D01*
G01Y3381670D02*
X5182920Y3415000D01*
X5174590Y3434990D01*
X5161250Y3441660D01*
X5151250Y3434990D01*
X5139590Y3408330D01*
X5134590Y3368330D01*
Y3175000D01*
G01X5047680Y3575000D02*
Y3175000D01*
G01X5071010Y3441660D02*
X5024350D01*
G01X4817200Y3161670D02*
X4820530Y3168330D01*
Y3181670D01*
X4817200Y3188330D01*
X4813870Y3181670D01*
Y3168330D01*
X4817200Y3161670D01*
G01Y3341660D02*
X4820530Y3348330D01*
Y3361660D01*
X4817200Y3368330D01*
X4813870Y3361660D01*
Y3348330D01*
X4817200Y3341660D01*
G01X4566720Y3175000D02*
Y3575000D01*
X4628390Y3288330D01*
X4545050D01*
G01X4406240Y3175000D02*
Y3441660D01*
G01Y3368330D02*
X4401240Y3401670D01*
X4392910Y3428330D01*
X4381240Y3441660D01*
X4369580Y3428330D01*
X4361240Y3401670D01*
X4356240Y3368330D01*
Y3175000D01*
G01Y3368330D02*
X4351240Y3401670D01*
X4342910Y3428330D01*
X4331240Y3441660D01*
X4319570Y3428330D01*
X4311240Y3401670D01*
X4306240Y3361660D01*
Y3175000D01*
G01X4291000D02*
Y3441660D01*
G01Y3368330D02*
X4286000Y3401670D01*
X4277670Y3428330D01*
X4266000Y3441660D01*
X4254340Y3428330D01*
X4246000Y3401670D01*
X4241000Y3368330D01*
Y3175000D01*
G01Y3368330D02*
X4236000Y3401670D01*
X4227670Y3428330D01*
X4216000Y3441660D01*
X4204330Y3428330D01*
X4196000Y3401670D01*
X4191000Y3361660D01*
Y3175000D01*
G01X6238040Y3953750D02*
X6304700D01*
Y4353750D01*
X6238040D01*
G01X6264700Y4160420D02*
X6304700D01*
G01X6156130Y3953750D02*
Y4353750D01*
G01X6065890Y4133750D02*
X6012560D01*
X6017560Y4180420D01*
X6025890Y4207080D01*
X6037560Y4220410D01*
X6049220Y4213740D01*
X6059220Y4193750D01*
X6065890Y4147080D01*
X6069220Y4107070D01*
Y4067080D01*
X6065890Y4027080D01*
X6057560Y3987080D01*
X6047560Y3960420D01*
X6035890Y3953750D01*
X6024220Y3967080D01*
X6012560Y4007070D01*
G01X5898980Y4187080D02*
X5910650Y4213740D01*
X5920650Y4220410D01*
X5933980Y4207080D01*
X5943980Y4180420D01*
X5950650Y4133750D01*
X5952320Y4087080D01*
X5950650Y4040410D01*
X5943980Y4000410D01*
X5933980Y3967080D01*
X5920650Y3953750D01*
X5908980Y3967080D01*
X5898980Y3993740D01*
G01X5810410Y4353750D02*
Y3953750D01*
G01X5833740Y4220410D02*
X5787080D01*
G01X5718500Y3953750D02*
Y4220410D01*
G01Y4167090D02*
X5710170Y4193750D01*
X5701840Y4213740D01*
X5690170Y4220410D01*
X5681840Y4213740D01*
X5671840Y4193750D01*
G01X5579930Y3953750D02*
X5589930Y3960420D01*
X5599930Y3987080D01*
X5606600Y4033750D01*
X5609930Y4087080D01*
X5606600Y4140410D01*
X5599930Y4187080D01*
X5589930Y4213740D01*
X5579930Y4220410D01*
X5569930Y4213740D01*
X5559930Y4187080D01*
X5553260Y4140410D01*
X5551600Y4087080D01*
X5553260Y4033750D01*
X5559930Y3987080D01*
X5569930Y3960420D01*
X5579930Y3953750D01*
G01X5493020D02*
Y4220410D01*
G01Y4153740D02*
X5486360Y4187080D01*
X5476360Y4213740D01*
X5463020Y4220410D01*
X5451360Y4213740D01*
X5441360Y4187080D01*
X5436360Y4140410D01*
Y3953750D01*
G01X5349450Y4220410D02*
Y3953750D01*
G01Y4327080D02*
X5352780Y4333740D01*
Y4347080D01*
X5349450Y4353750D01*
X5346120Y4347080D01*
Y4333740D01*
X5349450Y4327080D01*
G01X5207540Y4187080D02*
X5219210Y4213740D01*
X5229210Y4220410D01*
X5242540Y4207080D01*
X5252540Y4180420D01*
X5259210Y4133750D01*
X5260880Y4087080D01*
X5259210Y4040410D01*
X5252540Y4000410D01*
X5242540Y3967080D01*
X5229210Y3953750D01*
X5217540Y3967080D01*
X5207540Y3993740D01*
G01X4967060Y4320410D02*
X4977060Y4340420D01*
X4988730Y4353750D01*
X5002060D01*
X5017070Y4333740D01*
X5028730Y4300420D01*
X5037060Y4260410D01*
X5043730Y4193750D01*
X5045400Y4133750D01*
X5042060Y4073750D01*
X5037060Y4033750D01*
X5027060Y3993740D01*
X5015400Y3967080D01*
X5003730Y3953750D01*
X4992060D01*
X4980400Y3967080D01*
X4970400Y3987080D01*
X4962060Y4013740D01*
G01X4930160Y3953750D02*
X4888490Y4353750D01*
X4846820Y3953750D01*
G01X4861820Y4093740D02*
X4915160D01*
G01X4809920Y3953750D02*
Y4353750D01*
X4776580D01*
X4763250Y4333740D01*
X4753250Y4307080D01*
X4744920Y4267090D01*
X4738250Y4220410D01*
X4736580Y4153740D01*
X4738250Y4087080D01*
X4744920Y4040410D01*
X4753250Y4000410D01*
X4763250Y3973750D01*
X4776580Y3953750D01*
X4809920D01*
G01X4889500Y4699000D02*
G03I-254000J0D01*
G01X4950970Y5649470D02*
X4864350Y5707130D01*
G01X4660650D02*
X4574030Y5649470D01*
G01D02*
X4516370Y5562850D01*
G01D02*
X4496050Y5461000D01*
G01D02*
X4516370Y5359150D01*
G01D02*
X4574030Y5272530D01*
G01D02*
X4660650Y5214870D01*
G01D02*
X4762500Y5194550D01*
G01D02*
X4864350Y5214870D01*
G01D02*
X4950970Y5272530D01*
G01X4864350Y5707130D02*
X4762500Y5727450D01*
G01D02*
X4660650Y5707130D01*
G01X4950970Y5272530D02*
Y5649470D01*
G01Y5272530D02*
X4953000Y5274560D01*
G01X5717420Y3826750D02*
Y4226750D01*
X5757420D01*
X5770750Y4206740D01*
X5780750Y4160090D01*
X5784080Y4106750D01*
X5780750Y4053420D01*
X5772420Y4013410D01*
X5757420Y3993410D01*
X5717420D01*
G01X5829320Y4226750D02*
Y3940080D01*
X5835990Y3880070D01*
X5849320Y3840080D01*
X5865990Y3826750D01*
X5882660Y3840080D01*
X5895990Y3880070D01*
X5902660Y3940080D01*
Y4226750D01*
G01X5947900D02*
Y3826750D01*
X6014560D01*
G01X6061470Y3880070D02*
X6074800Y3846750D01*
X6089800Y3826750D01*
X6103140D01*
X6116470Y3846750D01*
X6126470Y3880070D01*
X6131470Y3926750D01*
X6128140Y3973410D01*
X6119800Y4013410D01*
X6104800Y4040090D01*
X6084800Y4053420D01*
X6073140Y4080080D01*
X6068140Y4126750D01*
X6071470Y4173420D01*
X6079800Y4206740D01*
X6091470Y4226750D01*
X6103140D01*
X6114800Y4213420D01*
X6124800Y4180080D01*
G01X6245040Y3826750D02*
X6178380D01*
Y4226750D01*
X6245040D01*
G01X6218380Y4033420D02*
X6178380D01*
G01X6398860Y3826750D02*
Y4226750D01*
X6442190Y3893410D01*
X6485520Y4226750D01*
Y3826750D01*
G01X6557430D02*
X6544090Y3833420D01*
X6532430Y3860080D01*
X6522430Y3900080D01*
X6515760Y3946750D01*
X6512430Y4000080D01*
Y4053420D01*
X6515760Y4106750D01*
X6522430Y4153420D01*
X6532430Y4193410D01*
X6544090Y4220080D01*
X6557430Y4226750D01*
X6570760Y4220080D01*
X6582430Y4193410D01*
X6592430Y4153420D01*
X6599100Y4106750D01*
X6602430Y4053420D01*
Y4000080D01*
X6599100Y3946750D01*
X6592430Y3900080D01*
X6582430Y3860080D01*
X6570760Y3833420D01*
X6557430Y3826750D01*
G01X6636000D02*
Y4226750D01*
X6669340D01*
X6682670Y4206740D01*
X6692670Y4180080D01*
X6701000Y4140090D01*
X6707670Y4093410D01*
X6709340Y4026740D01*
X6707670Y3960080D01*
X6701000Y3913410D01*
X6692670Y3873410D01*
X6682670Y3846750D01*
X6669340Y3826750D01*
X6636000D01*
G01X6751240Y4226750D02*
Y3940080D01*
X6757910Y3880070D01*
X6771240Y3840080D01*
X6787910Y3826750D01*
X6804580Y3840080D01*
X6817910Y3880070D01*
X6824580Y3940080D01*
Y4226750D01*
G01X6869820D02*
Y3826750D01*
X6936480D01*
G01X6976720D02*
X7018390Y4226750D01*
X7060060Y3826750D01*
G01X7045060Y3966740D02*
X6991720D01*
G01X7133630Y4226750D02*
Y3826750D01*
G01X7095300Y4226750D02*
X7171960D01*
G01X7228870D02*
X7268870D01*
G01X7248870D02*
Y3826750D01*
G01X7228870D02*
X7268870D01*
G01X7364110D02*
X7350770Y3833420D01*
X7339110Y3860080D01*
X7329110Y3900080D01*
X7322440Y3946750D01*
X7319110Y4000080D01*
Y4053420D01*
X7322440Y4106750D01*
X7329110Y4153420D01*
X7339110Y4193410D01*
X7350770Y4220080D01*
X7364110Y4226750D01*
X7377440Y4220080D01*
X7389110Y4193410D01*
X7399110Y4153420D01*
X7405780Y4106750D01*
X7409110Y4053420D01*
Y4000080D01*
X7405780Y3946750D01*
X7399110Y3900080D01*
X7389110Y3860080D01*
X7377440Y3833420D01*
X7364110Y3826750D01*
G01X7441020D02*
Y4226750D01*
X7517680Y3826750D01*
Y4226750D01*
G01X6642100Y1651000D02*
X6794500D01*
X6858000Y1587500D01*
X6985000D01*
X7048500Y1651000D01*
X7200900D01*
Y635000D01*
X6642100D01*
Y1651000D01*
G01X6578600Y3111500D02*
X6731000D01*
X6794500Y3048000D01*
X6921500D01*
X6985000Y3111500D01*
X7137400D01*
Y2095500D01*
X6578600D01*
Y3111500D01*
G01X8140700Y2882900D02*
Y3086100D01*
G01X8153400Y2882900D02*
Y3086100D01*
G54D19*
G01X500000Y2373400D02*
Y2492000D01*
G01D02*
Y2610600D01*
G01X381400Y2492000D02*
X500000D01*
G01D02*
X618600D01*
G01X500000Y2373400D02*
Y2492000D01*
G01D02*
Y2610600D01*
G01X381400Y2492000D02*
X500000D01*
G01D02*
X618600D01*
G01X762000Y3754900D02*
Y3873500D01*
G01D02*
Y3992100D01*
G01X643400Y3873500D02*
X762000D01*
G01D02*
X880600D01*
G01X762000Y3754900D02*
Y3873500D01*
G01D02*
Y3992100D01*
G01X643400Y3873500D02*
X762000D01*
G01D02*
X880600D01*
G01X2222500Y3048000D02*
Y3619500D01*
X1662570Y4179430D01*
X1125190D01*
X1016000Y4070240D01*
Y3873500D01*
G01X1460500Y2540000D02*
X1335870Y2756760D01*
X1270000Y3873500D01*
G01X1460500Y5850400D02*
Y5969000D01*
G01D02*
Y6087600D01*
G01X1341900Y5969000D02*
X1460500D01*
G01D02*
X1579100D01*
G01X1460500Y5850400D02*
Y5969000D01*
G01D02*
Y6087600D01*
G01Y5969000D02*
X1579100D01*
G01X2222500Y2540000D02*
X3238500Y2413000D01*
G01X2730500Y1841500D02*
X2222500Y2286000D01*
G01Y2675400D02*
Y2794000D01*
G01D02*
Y2912600D01*
G01X2103900Y2794000D02*
X2222500D01*
G01D02*
X2341100D01*
G01X2222500Y2675400D02*
Y2794000D01*
G01D02*
Y2912600D01*
G01X2103900Y2794000D02*
X2222500D01*
G01D02*
X2341100D01*
G01X2476500Y4453400D02*
Y4572000D01*
G01D02*
Y4690600D01*
G01X2357900Y4572000D02*
X2476500D01*
G01D02*
X2595100D01*
G01X2476500Y4453400D02*
Y4572000D01*
G01D02*
Y4690600D01*
G01X2357900Y4572000D02*
X2476500D01*
G01D02*
X2595100D01*
G01X2222500Y5207000D02*
X2476500Y4826000D01*
G01X2222500Y5715000D02*
Y5461000D01*
G01X4762500Y5334000D02*
X4648600D01*
X2222500Y5461000D01*
G01X3238500Y2548400D02*
Y2667000D01*
G01Y2548400D02*
Y2667000D01*
G01D02*
Y2785600D01*
G01X3119900Y2667000D02*
X3238500D01*
G01D02*
X3357100D01*
G01X3238500D02*
Y2785600D01*
G01X3119900Y2667000D02*
X3238500D01*
G01D02*
X3357100D01*
G01X3302000Y4066050D02*
Y4191000D01*
G01Y4066050D02*
Y4191000D01*
G01D02*
Y4315950D01*
G01X3177050Y4191000D02*
X3302000D01*
G01D02*
X3426950D01*
G01X3302000D02*
Y4315950D01*
G01X3177050Y4191000D02*
X3302000D01*
G01D02*
X3426950D01*
G01X3302000Y5588000D02*
Y5207000D01*
G01Y5588000D02*
X4762500D01*
G01X4381500Y381000D02*
X3746500Y1841500D01*
G01X4381500Y889000D02*
Y1397000D01*
G01X4508500Y4580400D02*
Y4699000D01*
G01D02*
Y4817600D01*
G01X4389900Y4699000D02*
X4508500D01*
G01D02*
X4627100D01*
G01X4508500Y4580400D02*
Y4699000D01*
G01D02*
Y4817600D01*
G01X4389900Y4699000D02*
X4508500D01*
G01D02*
X4627100D01*
G01X5588000D02*
X4762500D01*
G01Y5334000D02*
Y4699000D01*
G01X4826000Y6223000D02*
X4889100Y5593060D01*
Y5546080D01*
X4848320Y5505300D01*
X4762500Y5461000D01*
G01X5397500Y381000D02*
X7429500D01*
X8064500Y1016000D01*
G01X6477000Y2730500D02*
X5778500Y2286000D01*
Y1079500D01*
X5397500Y889000D01*
G01Y1272050D02*
Y1397000D01*
G01D02*
Y1521950D01*
G01X5272550Y1397000D02*
X5397500D01*
G01D02*
X5522450D01*
G01X5397500D02*
Y1521950D01*
G01X5272550Y1397000D02*
X5397500D01*
G01D02*
X5522450D01*
G01X6223000Y4699000D02*
X5588000Y5715000D01*
G01X6223000Y4699000D02*
X8382000Y3873500D01*
Y2667000D01*
X7874000Y1905000D01*
X6667500Y1841500D01*
X6223000Y1587500D01*
Y1270000D01*
X6540500Y1016000D01*
G01X6421900Y1270000D02*
X6540500D01*
G01X6421900D02*
X6540500D01*
G01X6358400Y2476500D02*
X6477000D01*
G01X6358400D02*
X6477000D01*
G01X6223000Y5715000D02*
X7048500Y6350000D01*
G01X6540500Y1151400D02*
Y1270000D01*
G01D02*
Y1388600D01*
G01Y1270000D02*
X6659100D01*
G01X6540500D02*
Y1388600D01*
G01Y1270000D02*
X6659100D01*
G01X6477000Y2357900D02*
Y2476500D01*
G01D02*
Y2595100D01*
G01Y2476500D02*
X6595600D01*
G01X6477000Y2357900D02*
Y2476500D01*
G01D02*
Y2595100D01*
G01Y2476500D02*
X6595600D01*
G01X7302500Y6604000D02*
X7048500Y6350000D01*
G01X8064500Y1016000D02*
X7302500D01*
G01X7594600Y2984500D02*
X7239000Y2476500D01*
G01X7302500Y6096000D02*
X9779000Y3619500D01*
Y1863400D01*
X8931600Y1016000D01*
X8064500D01*
G01X8509000Y1841500D02*
Y2984500D01*
G01D02*
X8616550D01*
X9500000Y3000000D01*
G01X9400050Y1841500D02*
X9525000D01*
G01X9400050D02*
X9525000D01*
G01X9500000Y2627400D02*
Y2746000D01*
G01Y2627400D02*
Y2746000D01*
G01D02*
Y2864600D01*
G01X9381400Y2746000D02*
X9500000D01*
G01D02*
X9618600D01*
G01X9500000D02*
Y2864600D01*
G01X9381400Y2746000D02*
X9500000D01*
G01D02*
X9618600D01*
G01X9525000Y1841500D02*
Y1966450D01*
G01Y1716550D02*
Y1841500D01*
G01D02*
Y1966450D01*
G01Y1841500D02*
X9649950D01*
M02*
