G04 ================== begin FILE IDENTIFICATION RECORD ==================*
G04 Layout Name:  C:/Users/user/Desktop/work/0730/allegro/PULSE_MODULATION.brd*
G04 Film Name:    Silk_t*
G04 File Format:  Gerber RS274X*
G04 File Origin:  Cadence Allegro 17.2-S052*
G04 Origin Date:  Tue Jul 30 16:44:27 2019*
G04 *
G04 Layer:  REF DES/SILKSCREEN_TOP*
G04 Layer:  PACKAGE GEOMETRY/SILKSCREEN_TOP*
G04 Layer:  BOARD GEOMETRY/SILKSCREEN_TOP*
G04 *
G04 Offset:    (0.0000 0.0000)*
G04 Mirror:    No*
G04 Mode:      Positive*
G04 Rotation:  0*
G04 FullContactRelief:  No*
G04 UndefLineWidth:     0.2000*
G04 ================== end FILE IDENTIFICATION RECORD ====================*
%FSLAX25Y25*MOMM*%
%IR0*IPPOS*OFA0.00000B0.00000*MIA0B0*SFA1.00000B1.00000*%
%ADD10C,.4*%
%ADD11C,.2032*%
%ADD12C,.2*%
G75*
%LPD*%
G75*
G54D10*
G01X4358820Y3475250D02*
Y3875250D01*
G01X4414700Y3741910D02*
Y3475250D01*
G01Y3848580D02*
X4413350Y3855240D01*
Y3868580D01*
X4414700Y3875250D01*
X4416050Y3868580D01*
Y3855240D01*
X4414700Y3848580D01*
G01X4459060Y3475250D02*
Y3741910D01*
G01Y3675240D02*
X4461770Y3708580D01*
X4465840Y3735240D01*
X4471260Y3741910D01*
X4476000Y3735240D01*
X4480060Y3708580D01*
X4482100Y3661910D01*
Y3475250D01*
G01X4516300Y3655250D02*
X4537980D01*
X4535940Y3701920D01*
X4532560Y3728580D01*
X4527810Y3741910D01*
X4523070Y3735240D01*
X4519010Y3715250D01*
X4516300Y3668580D01*
X4514940Y3628570D01*
Y3588580D01*
X4516300Y3548580D01*
X4519690Y3508580D01*
X4523750Y3481920D01*
X4528490Y3475250D01*
X4533230Y3488580D01*
X4537980Y3528570D01*
G01X4621290Y3741910D02*
X4629410Y3475250D01*
X4638220Y3741910D01*
X4647030Y3475250D01*
X4655150Y3741910D01*
G01X4694100D02*
Y3475250D01*
G01Y3848580D02*
X4692750Y3855240D01*
Y3868580D01*
X4694100Y3875250D01*
X4695450Y3868580D01*
Y3855240D01*
X4694100Y3848580D01*
G01X4762170Y3875250D02*
Y3475250D01*
G01Y3535240D02*
X4759460Y3501910D01*
X4755400Y3481920D01*
X4750660Y3475250D01*
X4745240Y3488580D01*
X4741170Y3521910D01*
X4738460Y3561910D01*
X4737790Y3608580D01*
X4738460Y3655250D01*
X4741170Y3695250D01*
X4745240Y3728580D01*
X4750660Y3741910D01*
X4755400Y3735240D01*
X4758790Y3721910D01*
X4762170Y3695250D01*
G01X4805860Y3875250D02*
Y3475250D01*
G01X4796380Y3741910D02*
X4815340D01*
G01X4850220Y3475250D02*
Y3875250D01*
G01Y3681920D02*
X4853610Y3715250D01*
X4857000Y3735240D01*
X4862420Y3741910D01*
X4866480Y3735240D01*
X4871220Y3708580D01*
X4873260Y3668580D01*
Y3475250D01*
G01X4973500Y3461920D02*
X4972150Y3468580D01*
Y3481920D01*
X4973500Y3488580D01*
X4974850Y3481920D01*
Y3468580D01*
X4973500Y3461920D01*
G01Y3641910D02*
X4972150Y3648580D01*
Y3661910D01*
X4973500Y3668580D01*
X4974850Y3661910D01*
Y3648580D01*
X4973500Y3641910D01*
G01X5085260Y3875250D02*
X5079840Y3861920D01*
X5075780Y3828580D01*
X5073070Y3788590D01*
X5071040Y3735240D01*
X5070360Y3675240D01*
X5071040Y3615240D01*
X5073070Y3561910D01*
X5075780Y3521910D01*
X5079840Y3488580D01*
X5085260Y3475250D01*
X5090680Y3488580D01*
X5094740Y3521910D01*
X5097450Y3561910D01*
X5099480Y3615240D01*
X5100160Y3675240D01*
X5099480Y3735240D01*
X5097450Y3788590D01*
X5094740Y3828580D01*
X5090680Y3861920D01*
X5085260Y3875250D01*
G01X5141140Y3461920D02*
X5139790Y3468580D01*
Y3481920D01*
X5141140Y3488580D01*
X5142490Y3481920D01*
Y3468580D01*
X5141140Y3461920D01*
G01X5205150Y3475250D02*
Y3875250D01*
X5180090Y3588580D01*
X5213950D01*
G01X5288460Y3475250D02*
Y3741910D01*
G01Y3668580D02*
X5290490Y3701920D01*
X5293880Y3728580D01*
X5298620Y3741910D01*
X5303360Y3728580D01*
X5306750Y3701920D01*
X5308780Y3668580D01*
Y3475250D01*
G01Y3668580D02*
X5310810Y3701920D01*
X5314200Y3728580D01*
X5318940Y3741910D01*
X5323680Y3728580D01*
X5327070Y3701920D01*
X5329100Y3661910D01*
Y3475250D01*
G01X5344340D02*
Y3741910D01*
G01Y3668580D02*
X5346370Y3701920D01*
X5349760Y3728580D01*
X5354500Y3741910D01*
X5359240Y3728580D01*
X5362630Y3701920D01*
X5364660Y3668580D01*
Y3475250D01*
G01Y3668580D02*
X5366690Y3701920D01*
X5370080Y3728580D01*
X5374820Y3741910D01*
X5379560Y3728580D01*
X5382950Y3701920D01*
X5384980Y3661910D01*
Y3475250D01*
G01X5475070Y3401920D02*
X5477770Y3488580D01*
G01X5576660Y3475250D02*
Y3875250D01*
G01Y3681920D02*
X5580050Y3715250D01*
X5583440Y3735240D01*
X5588860Y3741910D01*
X5592920Y3735240D01*
X5597660Y3708580D01*
X5599700Y3668580D01*
Y3475250D01*
G01X5633900Y3655250D02*
X5655580D01*
X5653540Y3701920D01*
X5650160Y3728580D01*
X5645410Y3741910D01*
X5640670Y3735240D01*
X5636610Y3715250D01*
X5633900Y3668580D01*
X5632540Y3628570D01*
Y3588580D01*
X5633900Y3548580D01*
X5637290Y3508580D01*
X5641350Y3481920D01*
X5646090Y3475250D01*
X5650830Y3488580D01*
X5655580Y3528570D01*
G01X5699940Y3741910D02*
Y3475250D01*
G01Y3848580D02*
X5698590Y3855240D01*
Y3868580D01*
X5699940Y3875250D01*
X5701290Y3868580D01*
Y3855240D01*
X5699940Y3848580D01*
G01X5746340Y3375250D02*
X5751080Y3348590D01*
X5756500Y3341920D01*
X5761240Y3348590D01*
X5765300Y3381910D01*
X5768010Y3428580D01*
Y3741910D01*
G01Y3688590D02*
X5765300Y3715250D01*
X5761240Y3735240D01*
X5756500Y3741910D01*
X5751080Y3728580D01*
X5747690Y3701920D01*
X5744980Y3655250D01*
X5743630Y3608580D01*
X5744300Y3568580D01*
X5747010Y3521910D01*
X5751080Y3488580D01*
X5756500Y3475250D01*
X5760560Y3481920D01*
X5765300Y3508580D01*
X5768010Y3535240D01*
G01X5800180Y3475250D02*
Y3875250D01*
G01Y3681920D02*
X5803570Y3715250D01*
X5806960Y3735240D01*
X5812380Y3741910D01*
X5816440Y3735240D01*
X5821180Y3708580D01*
X5823220Y3668580D01*
Y3475250D01*
G01X5923460Y3461920D02*
X5922110Y3468580D01*
Y3481920D01*
X5923460Y3488580D01*
X5924810Y3481920D01*
Y3468580D01*
X5923460Y3461920D01*
G01Y3641910D02*
X5922110Y3648580D01*
Y3661910D01*
X5923460Y3668580D01*
X5924810Y3661910D01*
Y3648580D01*
X5923460Y3641910D01*
G01X6043350Y3475250D02*
Y3875250D01*
X6018290Y3588580D01*
X6052150D01*
G01X6126660Y3475250D02*
Y3741910D01*
G01Y3668580D02*
X6128690Y3701920D01*
X6132080Y3728580D01*
X6136820Y3741910D01*
X6141560Y3728580D01*
X6144950Y3701920D01*
X6146980Y3668580D01*
Y3475250D01*
G01Y3668580D02*
X6149010Y3701920D01*
X6152400Y3728580D01*
X6157140Y3741910D01*
X6161880Y3728580D01*
X6165270Y3701920D01*
X6167300Y3661910D01*
Y3475250D01*
G01X6182540D02*
Y3741910D01*
G01Y3668580D02*
X6184570Y3701920D01*
X6187960Y3728580D01*
X6192700Y3741910D01*
X6197440Y3728580D01*
X6200830Y3701920D01*
X6202860Y3668580D01*
Y3475250D01*
G01Y3668580D02*
X6204890Y3701920D01*
X6208280Y3728580D01*
X6213020Y3741910D01*
X6217760Y3728580D01*
X6221150Y3701920D01*
X6223180Y3661910D01*
Y3475250D01*
G01X5707520Y3953750D02*
Y4353750D01*
X5723780D01*
X5729200Y4333740D01*
X5733260Y4287090D01*
X5734620Y4233750D01*
X5733260Y4180420D01*
X5729880Y4140410D01*
X5723780Y4120410D01*
X5707520D01*
G01X5762050Y4353750D02*
Y4067080D01*
X5764760Y4007070D01*
X5770180Y3967080D01*
X5776950Y3953750D01*
X5783720Y3967080D01*
X5789140Y4007070D01*
X5791850Y4067080D01*
Y4353750D01*
G01X5819280D02*
Y3953750D01*
X5846380D01*
G01X5874490Y4007070D02*
X5879900Y3973750D01*
X5886000Y3953750D01*
X5891420D01*
X5896840Y3973750D01*
X5900900Y4007070D01*
X5902930Y4053750D01*
X5901580Y4100410D01*
X5898190Y4140410D01*
X5892100Y4167090D01*
X5883970Y4180420D01*
X5879230Y4207080D01*
X5877190Y4253750D01*
X5878550Y4300420D01*
X5881940Y4333740D01*
X5886680Y4353750D01*
X5891420D01*
X5896160Y4340420D01*
X5900230Y4307080D01*
G01X5958140Y3953750D02*
X5931040D01*
Y4353750D01*
X5958140D01*
G01X5947300Y4160420D02*
X5931040D01*
G01X6038740Y3953750D02*
Y4353750D01*
X6056350Y4020410D01*
X6073960Y4353750D01*
Y3953750D01*
G01X6112230D02*
X6106810Y3960420D01*
X6102070Y3987080D01*
X6098010Y4027080D01*
X6095300Y4073750D01*
X6093940Y4127080D01*
Y4180420D01*
X6095300Y4233750D01*
X6098010Y4280420D01*
X6102070Y4320410D01*
X6106810Y4347080D01*
X6112230Y4353750D01*
X6117650Y4347080D01*
X6122390Y4320410D01*
X6126450Y4280420D01*
X6129160Y4233750D01*
X6130520Y4180420D01*
Y4127080D01*
X6129160Y4073750D01*
X6126450Y4027080D01*
X6122390Y3987080D01*
X6117650Y3960420D01*
X6112230Y3953750D01*
G01X6153210D02*
Y4353750D01*
X6166760D01*
X6172170Y4333740D01*
X6176240Y4307080D01*
X6179630Y4267090D01*
X6182330Y4220410D01*
X6183010Y4153740D01*
X6182330Y4087080D01*
X6179630Y4040410D01*
X6176240Y4000410D01*
X6172170Y3973750D01*
X6166760Y3953750D01*
X6153210D01*
G01X6209090Y4353750D02*
Y4067080D01*
X6211800Y4007070D01*
X6217220Y3967080D01*
X6223990Y3953750D01*
X6230760Y3967080D01*
X6236180Y4007070D01*
X6238890Y4067080D01*
Y4353750D01*
G01X6266320D02*
Y3953750D01*
X6293420D01*
G01X6318820D02*
X6335750Y4353750D01*
X6352680Y3953750D01*
G01X6346590Y4093740D02*
X6324910D01*
G01X6391630Y4353750D02*
Y3953750D01*
G01X6376050Y4353750D02*
X6407210D01*
G01X6439380D02*
X6455640D01*
G01X6447510D02*
Y3953750D01*
G01X6439380D02*
X6455640D01*
G01X6503390D02*
X6497970Y3960420D01*
X6493230Y3987080D01*
X6489170Y4027080D01*
X6486460Y4073750D01*
X6485100Y4127080D01*
Y4180420D01*
X6486460Y4233750D01*
X6489170Y4280420D01*
X6493230Y4320410D01*
X6497970Y4347080D01*
X6503390Y4353750D01*
X6508810Y4347080D01*
X6513550Y4320410D01*
X6517610Y4280420D01*
X6520320Y4233750D01*
X6521680Y4180420D01*
Y4127080D01*
X6520320Y4073750D01*
X6517610Y4027080D01*
X6513550Y3987080D01*
X6508810Y3960420D01*
X6503390Y3953750D01*
G01X6543690D02*
Y4353750D01*
X6574850Y3953750D01*
Y4353750D01*
G54D11*
G01X4950970Y5649470D02*
X4864350Y5707130D01*
G01X4660650D02*
X4574030Y5649470D01*
G01D02*
X4516370Y5562850D01*
G01D02*
X4496050Y5461000D01*
G01D02*
X4516370Y5359150D01*
G01D02*
X4574030Y5272530D01*
G01D02*
X4660650Y5214870D01*
G01D02*
X4762500Y5194550D01*
G01D02*
X4864350Y5214870D01*
G01D02*
X4950970Y5272530D01*
G01X4864350Y5707130D02*
X4762500Y5727450D01*
G01D02*
X4660650Y5707130D01*
G01X4950970Y5272530D02*
Y5649470D01*
G01Y5272530D02*
X4953000Y5274560D01*
G54D12*
G01X373000Y3127000D02*
X627000D01*
Y2111000D01*
X373000D01*
Y3127000D01*
G01X682880Y3114720D02*
X670180Y3106680D01*
X661710Y3097030D01*
X657480Y3085770D01*
X661710Y3072900D01*
X670180Y3063250D01*
X682880Y3053590D01*
X699810Y3050380D01*
X784480D01*
G01X657480Y2953010D02*
X784480D01*
X759080Y2972310D01*
G01X657480D02*
Y2933710D01*
G01X1397000Y4000500D02*
Y3746500D01*
X635000D01*
Y4000500D01*
X1397000D01*
G01X1562100Y3175000D02*
X1714500D01*
X1778000Y3111500D01*
X1905000D01*
X1968500Y3175000D01*
X2120900D01*
Y2159000D01*
X1562100D01*
Y3175000D01*
G01X1379640Y3707890D02*
X1374770Y3715770D01*
X1368930Y3721020D01*
X1362120Y3723640D01*
X1354330Y3721020D01*
X1348490Y3715770D01*
X1342640Y3707890D01*
X1340700Y3697390D01*
Y3644900D01*
G01X1299930Y3658020D02*
X1294090Y3650150D01*
X1287270Y3646210D01*
X1279480Y3644900D01*
X1269750Y3647520D01*
X1262930Y3654090D01*
X1260980Y3661960D01*
X1261960Y3669840D01*
X1265850Y3676400D01*
X1285320Y3689520D01*
X1294090Y3698710D01*
X1299930Y3711830D01*
X1301880Y3723640D01*
X1260980D01*
G01X1939120Y5044020D02*
X1929470Y5050370D01*
X1918210Y5054600D01*
X1905340D01*
X1890860Y5048250D01*
X1879600Y5037670D01*
X1871560Y5024970D01*
X1865120Y5003800D01*
X1863510Y4984750D01*
X1866730Y4965700D01*
X1871560Y4953000D01*
X1881210Y4940300D01*
X1892470Y4931830D01*
X1903730Y4927600D01*
X1914990D01*
X1926250Y4931830D01*
X1935900Y4938180D01*
X1943950Y4946650D01*
G01X2002700Y5033430D02*
X2012360Y5046130D01*
X2023620Y5052480D01*
X2036490Y5054600D01*
X2052570Y5050370D01*
X2063840Y5039780D01*
X2067050Y5027090D01*
X2065440Y5014380D01*
X2059010Y5003800D01*
X2026840Y4982630D01*
X2012360Y4967820D01*
X2002700Y4946650D01*
X1999490Y4927600D01*
X2067050D01*
G01X1562100Y6096000D02*
X1714500D01*
X1778000Y6032500D01*
X1905000D01*
X1968500Y6096000D01*
X2120900D01*
Y5080000D01*
X1562100D01*
Y6096000D01*
G01X2366180Y3030220D02*
Y2939200D01*
X2372610Y2920150D01*
X2385480Y2907450D01*
X2401570Y2903220D01*
X2417660Y2907450D01*
X2430530Y2920150D01*
X2436960Y2939200D01*
Y3030220D01*
G01X2495720Y2928620D02*
X2505370Y2913800D01*
X2518240Y2905340D01*
X2532720Y2903220D01*
X2545590Y2905340D01*
X2558460Y2915920D01*
X2566500Y2928620D01*
X2568110Y2941320D01*
X2564890Y2956130D01*
X2553630Y2966720D01*
X2542370Y2970950D01*
X2527890D01*
G01X2542370D02*
X2552020Y2977300D01*
X2560070Y2987880D01*
X2563280Y3000590D01*
X2560070Y3013290D01*
X2552020Y3023870D01*
X2537540Y3030220D01*
X2523070Y3028100D01*
X2508590Y3019640D01*
G01X2730500Y4699000D02*
G03I-254000J0D01*
G01X2366180Y5951220D02*
Y5860200D01*
X2372610Y5841150D01*
X2385480Y5828450D01*
X2401570Y5824220D01*
X2417660Y5828450D01*
X2430530Y5841150D01*
X2436960Y5860200D01*
Y5951220D01*
G01X2531110Y5824220D02*
Y5951220D01*
X2511810Y5925820D01*
G01Y5824220D02*
X2550410D01*
G01X3352800Y1692060D02*
X3431540D01*
Y1667720D01*
X3427600Y1659930D01*
X3422350Y1655060D01*
X3411850Y1653120D01*
X3401360Y1655060D01*
X3394800Y1660910D01*
X3390860Y1667720D01*
Y1692060D01*
G01Y1667720D02*
X3352800Y1653120D01*
G01X3361980Y1610400D02*
X3355420Y1603590D01*
X3352800Y1595800D01*
X3355420Y1588010D01*
X3363300Y1581190D01*
X3375110Y1576320D01*
X3386920Y1574380D01*
X3401360D01*
X3413170Y1576320D01*
X3423670Y1581190D01*
X3428920Y1587030D01*
X3431540Y1593850D01*
X3428920Y1601640D01*
X3423670Y1607480D01*
X3415790Y1611380D01*
X3405290Y1613320D01*
X3396110Y1611380D01*
X3386920Y1606510D01*
X3381670Y1600670D01*
X3380360Y1593850D01*
X3382980Y1586060D01*
X3389540Y1580220D01*
X3401360Y1574380D01*
G01X2882900Y1968500D02*
X3594100D01*
Y1714500D01*
X2882900D01*
Y1968500D01*
G01X3492500Y2540000D02*
G03I-254000J0D01*
G01X3152560Y4584700D02*
Y4505960D01*
X3128220D01*
X3120430Y4509900D01*
X3115560Y4515150D01*
X3113620Y4525650D01*
X3115560Y4536140D01*
X3121410Y4542700D01*
X3128220Y4546640D01*
X3152560D01*
G01X3128220D02*
X3113620Y4584700D01*
G01X3072850Y4551890D02*
X3066030Y4542700D01*
X3060190Y4537460D01*
X3052400Y4534830D01*
X3045590Y4537460D01*
X3040720Y4542700D01*
X3036820Y4550580D01*
X3035850Y4559770D01*
X3036820Y4567640D01*
X3040720Y4575520D01*
X3046560Y4582080D01*
X3053380Y4584700D01*
X3061170Y4582080D01*
X3067980Y4574200D01*
X3071880Y4562390D01*
X3072850Y4549270D01*
X3070900Y4532210D01*
X3067980Y4523020D01*
X3063110Y4513830D01*
X3056300Y4507270D01*
X3049480Y4505960D01*
X3042670Y4508580D01*
X3037800Y4515150D01*
G01X3429000Y5054600D02*
Y4343400D01*
X3175000D01*
Y5054600D01*
X3429000D01*
G01X3152560Y5981700D02*
Y5902960D01*
X3128220D01*
X3120430Y5906900D01*
X3115560Y5912150D01*
X3113620Y5922650D01*
X3115560Y5933140D01*
X3121410Y5939700D01*
X3128220Y5943640D01*
X3152560D01*
G01X3128220D02*
X3113620Y5981700D01*
G01X3042670D02*
Y5902960D01*
X3078690Y5959390D01*
X3030010D01*
G01X3429000Y6451600D02*
Y5740400D01*
X3175000D01*
Y6451600D01*
X3429000D01*
G01X5245100Y254000D02*
X4533900D01*
Y508000D01*
X5245100D01*
Y254000D01*
G01X4533900Y1016000D02*
X5245100D01*
Y762000D01*
X4533900D01*
Y1016000D01*
G01X4775200Y530440D02*
X4696460D01*
Y554780D01*
X4700400Y562570D01*
X4705650Y567440D01*
X4716150Y569380D01*
X4726640Y567440D01*
X4733200Y561590D01*
X4737140Y554780D01*
Y530440D01*
G01Y554780D02*
X4775200Y569380D01*
G01Y626700D02*
X4758140Y628650D01*
X4743710Y631570D01*
X4730580Y635470D01*
X4716150Y640330D01*
X4696460Y648120D01*
Y609180D01*
G01X4775200Y1507070D02*
X4696460D01*
Y1531410D01*
X4700400Y1539200D01*
X4705650Y1544070D01*
X4716150Y1546010D01*
X4726640Y1544070D01*
X4733200Y1538220D01*
X4737140Y1531410D01*
Y1507070D01*
G01Y1531410D02*
X4775200Y1546010D01*
G01Y1605280D02*
X4696460D01*
X4712210Y1593600D01*
G01X4775200D02*
Y1616960D01*
G01Y1684020D02*
X4696460D01*
X4712210Y1672340D01*
G01X4775200D02*
Y1695700D01*
G01X5245100Y1270000D02*
X4533900D01*
Y1524000D01*
X5245100D01*
Y1270000D01*
G01X4889500Y4699000D02*
G03I-254000J0D01*
G01X4980520Y5236380D02*
X4986870Y5246030D01*
X4991100Y5257290D01*
Y5270160D01*
X4984750Y5284640D01*
X4974170Y5295900D01*
X4961470Y5303940D01*
X4940300Y5310380D01*
X4921250Y5311990D01*
X4902200Y5308770D01*
X4889500Y5303940D01*
X4876800Y5294290D01*
X4868330Y5283030D01*
X4864100Y5271770D01*
Y5260510D01*
X4868330Y5249250D01*
X4874680Y5239600D01*
X4883150Y5231550D01*
G01X4864100Y5142230D02*
X4991100D01*
X4965700Y5161530D01*
G01X4864100D02*
Y5122930D01*
G01X4919980Y6591720D02*
X5046980D01*
Y6551510D01*
X5040630Y6538640D01*
X5032160Y6530590D01*
X5015230Y6527380D01*
X4998300Y6530590D01*
X4987710Y6540250D01*
X4981360Y6551510D01*
Y6591720D01*
G01Y6551510D02*
X4919980Y6527380D01*
G01Y6430010D02*
X5046980D01*
X5021580Y6449310D01*
G01X4919980D02*
Y6410710D01*
G01X4254500Y6604000D02*
X4889500D01*
Y6096000D01*
X4254500D01*
Y6604000D01*
G01X5003800Y739560D02*
X5082540D01*
Y715220D01*
X5078600Y707430D01*
X5073350Y702560D01*
X5062850Y700620D01*
X5052360Y702560D01*
X5045800Y708410D01*
X5041860Y715220D01*
Y739560D01*
G01Y715220D02*
X5003800Y700620D01*
G01Y641350D02*
X5005110Y634530D01*
X5009050Y626750D01*
X5015610Y621880D01*
X5024800Y619930D01*
X5033980Y621880D01*
X5041860Y627720D01*
X5045800Y636480D01*
Y646220D01*
X5048420Y652060D01*
X5054980Y656930D01*
X5064170Y658880D01*
X5073350Y655950D01*
X5079920Y649140D01*
X5082540Y641350D01*
X5079920Y633560D01*
X5073350Y626750D01*
X5064170Y623820D01*
X5054980Y625770D01*
X5048420Y630640D01*
X5045800Y636480D01*
Y646220D01*
X5041860Y654980D01*
X5033980Y660820D01*
X5024800Y662770D01*
X5015610Y660820D01*
X5009050Y655950D01*
X5005110Y648170D01*
X5003800Y641350D01*
G01X5461000Y4851400D02*
Y5562600D01*
X5715000D01*
Y4851400D01*
X5461000D01*
G01X5278120Y5715000D02*
X5259150Y5718170D01*
X5242560Y5730870D01*
X5228340Y5749920D01*
X5218850Y5772150D01*
X5214110Y5797550D01*
Y5822950D01*
X5218850Y5848350D01*
X5228340Y5870580D01*
X5242560Y5889620D01*
X5259150Y5902330D01*
X5278120Y5905500D01*
X5297080Y5902330D01*
X5313680Y5889620D01*
X5327900Y5870580D01*
X5337390Y5848350D01*
X5342130Y5822950D01*
Y5797550D01*
X5337390Y5772150D01*
X5327900Y5749920D01*
X5313680Y5730870D01*
X5297080Y5718170D01*
X5278120Y5715000D01*
G01X5297080Y5765800D02*
X5325530Y5715000D01*
G01X5468620D02*
Y5905500D01*
X5440170Y5867400D01*
G01Y5715000D02*
X5497060D01*
G01X6096000Y4851400D02*
Y5562600D01*
X6350000D01*
Y4851400D01*
X6096000D01*
G01X6372440Y5321300D02*
Y5400040D01*
X6396780D01*
X6404570Y5396100D01*
X6409440Y5390850D01*
X6411380Y5380350D01*
X6409440Y5369860D01*
X6403590Y5363300D01*
X6396780Y5359360D01*
X6372440D01*
G01X6396780D02*
X6411380Y5321300D01*
G01X6452150Y5386920D02*
X6457990Y5394790D01*
X6464810Y5398730D01*
X6472600Y5400040D01*
X6482330Y5397420D01*
X6489150Y5390850D01*
X6491100Y5382980D01*
X6490120Y5375100D01*
X6486230Y5368540D01*
X6466760Y5355420D01*
X6457990Y5346230D01*
X6452150Y5333110D01*
X6450200Y5321300D01*
X6491100D01*
G01X5737440D02*
Y5400040D01*
X5761780D01*
X5769570Y5396100D01*
X5774440Y5390850D01*
X5776380Y5380350D01*
X5774440Y5369860D01*
X5768590Y5363300D01*
X5761780Y5359360D01*
X5737440D01*
G01X5761780D02*
X5776380Y5321300D01*
G01X5814230Y5333110D02*
X5820070Y5326550D01*
X5826890Y5322610D01*
X5835650Y5321300D01*
X5844410Y5323920D01*
X5851230Y5329170D01*
X5856100Y5338360D01*
X5857070Y5348860D01*
X5855120Y5359360D01*
X5850250Y5365920D01*
X5843440Y5371170D01*
X5836620Y5372480D01*
X5829810Y5371170D01*
X5821050Y5365920D01*
X5823970Y5400040D01*
X5850250D01*
G01X6642100Y1651000D02*
X6794500D01*
X6858000Y1587500D01*
X6985000D01*
X7048500Y1651000D01*
X7200900D01*
Y635000D01*
X6642100D01*
Y1651000D01*
G01X6578600Y3111500D02*
X6731000D01*
X6794500Y3048000D01*
X6921500D01*
X6985000Y3111500D01*
X7137400D01*
Y2095500D01*
X6578600D01*
Y3111500D01*
G01X6921500Y6032500D02*
Y6667500D01*
X7429500D01*
Y6032500D01*
X6921500D01*
G01X6933780Y6697980D02*
Y6824980D01*
X6973990D01*
X6986860Y6818630D01*
X6994910Y6810160D01*
X6998120Y6793230D01*
X6994910Y6776300D01*
X6985250Y6765710D01*
X6973990Y6759360D01*
X6933780D01*
G01X6973990D02*
X6998120Y6697980D01*
G01X7060100Y6723380D02*
X7069750Y6708560D01*
X7082620Y6700100D01*
X7097100Y6697980D01*
X7109970Y6700100D01*
X7122840Y6710680D01*
X7130880Y6723380D01*
X7132490Y6736080D01*
X7129270Y6750890D01*
X7118010Y6761480D01*
X7106750Y6765710D01*
X7092270D01*
G01X7106750D02*
X7116400Y6772060D01*
X7124450Y6782640D01*
X7127660Y6795350D01*
X7124450Y6808050D01*
X7116400Y6818630D01*
X7101920Y6824980D01*
X7087450Y6822860D01*
X7072970Y6814400D01*
G01X7446180Y1506220D02*
Y1415200D01*
X7452610Y1396150D01*
X7465480Y1383450D01*
X7481570Y1379220D01*
X7497660Y1383450D01*
X7510530Y1396150D01*
X7516960Y1415200D01*
Y1506220D01*
G01X7580540Y1485050D02*
X7590200Y1497750D01*
X7601460Y1504100D01*
X7614330Y1506220D01*
X7630410Y1501990D01*
X7641680Y1491400D01*
X7644890Y1478710D01*
X7643280Y1466000D01*
X7636850Y1455420D01*
X7604680Y1434250D01*
X7590200Y1419440D01*
X7580540Y1398270D01*
X7577330Y1379220D01*
X7644890D01*
G01X7382680Y2966720D02*
Y2875700D01*
X7389110Y2856650D01*
X7401980Y2843950D01*
X7418070Y2839720D01*
X7434160Y2843950D01*
X7447030Y2856650D01*
X7453460Y2875700D01*
Y2966720D01*
G01X7512220Y2858770D02*
X7521870Y2848180D01*
X7533130Y2841840D01*
X7547610Y2839720D01*
X7562090Y2843950D01*
X7573350Y2852420D01*
X7581390Y2867230D01*
X7583000Y2884170D01*
X7579780Y2901100D01*
X7571740Y2911690D01*
X7560480Y2920150D01*
X7549220Y2922270D01*
X7537960Y2920150D01*
X7523480Y2911690D01*
X7528310Y2966720D01*
X7571740D01*
G01X8255000Y2882900D02*
X7848600D01*
Y3086100D01*
X8255000D01*
Y2882900D01*
G01X9372600Y1714500D02*
X8661400D01*
Y1968500D01*
X9372600D01*
Y1714500D01*
G01X8260420Y3238500D02*
Y3302000D01*
X8273970D01*
X8279380Y3298820D01*
X8283450Y3294590D01*
X8286840Y3288240D01*
X8289540Y3280830D01*
X8290220Y3270250D01*
X8289540Y3259670D01*
X8286840Y3252260D01*
X8283450Y3245910D01*
X8279380Y3241670D01*
X8273970Y3238500D01*
X8260420D01*
G01X8331200D02*
Y3302000D01*
X8323070Y3289300D01*
G01Y3238500D02*
X8339330D01*
G01X8140700Y2882900D02*
Y3086100D01*
G01X8153400Y2882900D02*
Y3086100D01*
G01X9373000Y3127000D02*
X9627000D01*
Y2619000D01*
X9373000D01*
Y3127000D01*
G01X9236290Y2095500D02*
Y2174240D01*
X9260630D01*
X9268420Y2170300D01*
X9273290Y2165050D01*
X9275230Y2154550D01*
X9273290Y2144060D01*
X9267440Y2137500D01*
X9260630Y2133560D01*
X9236290D01*
G01X9260630D02*
X9275230Y2095500D01*
G01X9334500D02*
Y2174240D01*
X9322820Y2158490D01*
G01Y2095500D02*
X9346180D01*
G01X9413240Y2174240D02*
X9405450Y2171620D01*
X9399610Y2165050D01*
X9395710Y2157180D01*
X9392790Y2146680D01*
X9391820Y2134870D01*
X9392790Y2123060D01*
X9395710Y2112560D01*
X9399610Y2104680D01*
X9405450Y2098120D01*
X9413240Y2095500D01*
X9421030Y2098120D01*
X9426870Y2104680D01*
X9430770Y2112560D01*
X9433690Y2123060D01*
X9434660Y2134870D01*
X9433690Y2146680D01*
X9430770Y2157180D01*
X9426870Y2165050D01*
X9421030Y2171620D01*
X9413240Y2174240D01*
G01X9339160Y3254250D02*
X9344030Y3246370D01*
X9349870Y3241120D01*
X9356680Y3238500D01*
X9364470Y3241120D01*
X9370310Y3246370D01*
X9376160Y3254250D01*
X9378100Y3264750D01*
Y3317240D01*
G01X9415950Y3254250D02*
X9421790Y3245060D01*
X9429580Y3239810D01*
X9438340Y3238500D01*
X9446130Y3239810D01*
X9453920Y3246370D01*
X9458790Y3254250D01*
X9459760Y3262120D01*
X9457820Y3271310D01*
X9451000Y3277870D01*
X9444190Y3280500D01*
X9435420D01*
G01X9444190D02*
X9450030Y3284430D01*
X9454900Y3290990D01*
X9456840Y3298870D01*
X9454900Y3306740D01*
X9450030Y3313300D01*
X9441260Y3317240D01*
X9432500Y3315930D01*
X9423740Y3310680D01*
M02*
