G04 ================== begin FILE IDENTIFICATION RECORD ==================*
G04 Layout Name:  C:/Users/user/Desktop/work/0730/allegro/PULSE_MODULATION.brd*
G04 Film Name:    Silk_t*
G04 File Format:  Gerber RS274X*
G04 File Origin:  Cadence Allegro 17.2-S052*
G04 Origin Date:  Tue Jul 30 17:03:15 2019*
G04 *
G04 Layer:  REF DES/SILKSCREEN_TOP*
G04 Layer:  PACKAGE GEOMETRY/SILKSCREEN_TOP*
G04 Layer:  BOARD GEOMETRY/SILKSCREEN_TOP*
G04 *
G04 Offset:    (0.0000 0.0000)*
G04 Mirror:    No*
G04 Mode:      Positive*
G04 Rotation:  0*
G04 FullContactRelief:  No*
G04 UndefLineWidth:     0.2000*
G04 ================== end FILE IDENTIFICATION RECORD ====================*
%FSLAX25Y25*MOMM*%
%IR0*IPPOS*OFA0.00000B0.00000*MIA0B0*SFA1.00000B1.00000*%
%ADD10C,.4*%
%ADD11C,.2*%
G75*
%LPD*%
G75*
G54D10*
G01X1562100Y3175000D02*
X1714500D01*
X1778000Y3111500D01*
X1905000D01*
X1968500Y3175000D01*
X2120900D01*
Y2159000D01*
X1562100D01*
Y3175000D01*
G01Y6096000D02*
X1714500D01*
X1778000Y6032500D01*
X1905000D01*
X1968500Y6096000D01*
X2120900D01*
Y5080000D01*
X1562100D01*
Y6096000D01*
G01X2730500Y4699000D02*
G03I-254000J0D01*
G01X3492500Y2540000D02*
G03I-254000J0D01*
G01X4388500Y3348250D02*
Y3748250D01*
G01X4503740Y3614910D02*
Y3348250D01*
G01Y3721580D02*
X4500410Y3728240D01*
Y3741580D01*
X4503740Y3748250D01*
X4507070Y3741580D01*
Y3728240D01*
X4503740Y3721580D01*
G01X4590650Y3348250D02*
Y3614910D01*
G01Y3548240D02*
X4597310Y3581580D01*
X4607310Y3608240D01*
X4620650Y3614910D01*
X4632310Y3608240D01*
X4642310Y3581580D01*
X4647310Y3534910D01*
Y3348250D01*
G01X4709220Y3528250D02*
X4762550D01*
X4757550Y3574920D01*
X4749220Y3601580D01*
X4737550Y3614910D01*
X4725890Y3608240D01*
X4715890Y3588250D01*
X4709220Y3541580D01*
X4705890Y3501570D01*
Y3461580D01*
X4709220Y3421580D01*
X4717550Y3381580D01*
X4727550Y3354920D01*
X4739220Y3348250D01*
X4750890Y3361580D01*
X4762550Y3401570D01*
G01X4923030Y3614910D02*
X4943030Y3348250D01*
X4964700Y3614910D01*
X4986370Y3348250D01*
X5006370Y3614910D01*
G01X5079940D02*
Y3348250D01*
G01Y3721580D02*
X5076610Y3728240D01*
Y3741580D01*
X5079940Y3748250D01*
X5083270Y3741580D01*
Y3728240D01*
X5079940Y3721580D01*
G01X5225180Y3748250D02*
Y3348250D01*
G01Y3408240D02*
X5218510Y3374910D01*
X5208510Y3354920D01*
X5196850Y3348250D01*
X5183510Y3361580D01*
X5173510Y3394910D01*
X5166850Y3434910D01*
X5165180Y3481580D01*
X5166850Y3528250D01*
X5173510Y3568250D01*
X5183510Y3601580D01*
X5196850Y3614910D01*
X5208510Y3608240D01*
X5216850Y3594910D01*
X5225180Y3568250D01*
G01X5310420Y3748250D02*
Y3348250D01*
G01X5287090Y3614910D02*
X5333750D01*
G01X5397330Y3348250D02*
Y3748250D01*
G01Y3554920D02*
X5405660Y3588250D01*
X5413990Y3608240D01*
X5427330Y3614910D01*
X5437330Y3608240D01*
X5448990Y3581580D01*
X5453990Y3541580D01*
Y3348250D01*
G01X5656140Y3334920D02*
X5652810Y3341580D01*
Y3354920D01*
X5656140Y3361580D01*
X5659470Y3354920D01*
Y3341580D01*
X5656140Y3334920D01*
G01Y3514910D02*
X5652810Y3521580D01*
Y3534910D01*
X5656140Y3541580D01*
X5659470Y3534910D01*
Y3521580D01*
X5656140Y3514910D01*
G01X5886620Y3748250D02*
X5873280Y3734920D01*
X5863290Y3701580D01*
X5856620Y3661590D01*
X5851620Y3608240D01*
X5849950Y3548240D01*
X5851620Y3488240D01*
X5856620Y3434910D01*
X5863290Y3394910D01*
X5873280Y3361580D01*
X5886620Y3348250D01*
X5899950Y3361580D01*
X5909950Y3394910D01*
X5916620Y3434910D01*
X5921620Y3488240D01*
X5923290Y3548240D01*
X5921620Y3608240D01*
X5916620Y3661590D01*
X5909950Y3701580D01*
X5899950Y3734920D01*
X5886620Y3748250D01*
G01X6001860Y3334920D02*
X5998530Y3341580D01*
Y3354920D01*
X6001860Y3361580D01*
X6005190Y3354920D01*
Y3341580D01*
X6001860Y3334920D01*
G01X6137100Y3348250D02*
Y3748250D01*
X6075430Y3461580D01*
X6158770D01*
G01X6297580Y3348250D02*
Y3614910D01*
G01Y3541580D02*
X6302580Y3574920D01*
X6310910Y3601580D01*
X6322580Y3614910D01*
X6334240Y3601580D01*
X6342580Y3574920D01*
X6347580Y3541580D01*
Y3348250D01*
G01Y3541580D02*
X6352580Y3574920D01*
X6360910Y3601580D01*
X6372580Y3614910D01*
X6384250Y3601580D01*
X6392580Y3574920D01*
X6397580Y3534910D01*
Y3348250D01*
G01X6412820D02*
Y3614910D01*
G01Y3541580D02*
X6417820Y3574920D01*
X6426150Y3601580D01*
X6437820Y3614910D01*
X6449480Y3601580D01*
X6457820Y3574920D01*
X6462820Y3541580D01*
Y3348250D01*
G01Y3541580D02*
X6467820Y3574920D01*
X6476150Y3601580D01*
X6487820Y3614910D01*
X6499490Y3601580D01*
X6507820Y3574920D01*
X6512820Y3534910D01*
Y3348250D01*
G01X6689970Y3274920D02*
X6696630Y3361580D01*
G01X6895450Y3348250D02*
Y3748250D01*
G01Y3554920D02*
X6903780Y3588250D01*
X6912110Y3608240D01*
X6925450Y3614910D01*
X6935450Y3608240D01*
X6947110Y3581580D01*
X6952110Y3541580D01*
Y3348250D01*
G01X7014020Y3528250D02*
X7067350D01*
X7062350Y3574920D01*
X7054020Y3601580D01*
X7042350Y3614910D01*
X7030690Y3608240D01*
X7020690Y3588250D01*
X7014020Y3541580D01*
X7010690Y3501570D01*
Y3461580D01*
X7014020Y3421580D01*
X7022350Y3381580D01*
X7032350Y3354920D01*
X7044020Y3348250D01*
X7055690Y3361580D01*
X7067350Y3401570D01*
G01X7154260Y3614910D02*
Y3348250D01*
G01Y3721580D02*
X7150930Y3728240D01*
Y3741580D01*
X7154260Y3748250D01*
X7157590Y3741580D01*
Y3728240D01*
X7154260Y3721580D01*
G01X7246170Y3248250D02*
X7257830Y3221590D01*
X7271170Y3214920D01*
X7282830Y3221590D01*
X7292830Y3254910D01*
X7299500Y3301580D01*
Y3614910D01*
G01Y3561590D02*
X7292830Y3588250D01*
X7282830Y3608240D01*
X7271170Y3614910D01*
X7257830Y3601580D01*
X7249500Y3574920D01*
X7242830Y3528250D01*
X7239500Y3481580D01*
X7241170Y3441580D01*
X7247830Y3394910D01*
X7257830Y3361580D01*
X7271170Y3348250D01*
X7281170Y3354920D01*
X7292830Y3381580D01*
X7299500Y3408240D01*
G01X7356410Y3348250D02*
Y3748250D01*
G01Y3554920D02*
X7364740Y3588250D01*
X7373070Y3608240D01*
X7386410Y3614910D01*
X7396410Y3608240D01*
X7408070Y3581580D01*
X7413070Y3541580D01*
Y3348250D01*
G01X7615220Y3334920D02*
X7611890Y3341580D01*
Y3354920D01*
X7615220Y3361580D01*
X7618550Y3354920D01*
Y3341580D01*
X7615220Y3334920D01*
G01Y3514910D02*
X7611890Y3521580D01*
Y3534910D01*
X7615220Y3541580D01*
X7618550Y3534910D01*
Y3521580D01*
X7615220Y3514910D01*
G01X7865700Y3348250D02*
Y3748250D01*
X7804030Y3461580D01*
X7887370D01*
G01X8026180Y3348250D02*
Y3614910D01*
G01Y3541580D02*
X8031180Y3574920D01*
X8039510Y3601580D01*
X8051180Y3614910D01*
X8062840Y3601580D01*
X8071180Y3574920D01*
X8076180Y3541580D01*
Y3348250D01*
G01Y3541580D02*
X8081180Y3574920D01*
X8089510Y3601580D01*
X8101180Y3614910D01*
X8112850Y3601580D01*
X8121180Y3574920D01*
X8126180Y3534910D01*
Y3348250D01*
G01X8141420D02*
Y3614910D01*
G01Y3541580D02*
X8146420Y3574920D01*
X8154750Y3601580D01*
X8166420Y3614910D01*
X8178080Y3601580D01*
X8186420Y3574920D01*
X8191420Y3541580D01*
Y3348250D01*
G01Y3541580D02*
X8196420Y3574920D01*
X8204750Y3601580D01*
X8216420Y3614910D01*
X8228090Y3601580D01*
X8236420Y3574920D01*
X8241420Y3534910D01*
Y3348250D01*
G01X4889500Y4699000D02*
G03I-254000J0D01*
G01X4950970Y5649470D02*
X4864350Y5707130D01*
G01X4660650D02*
X4574030Y5649470D01*
G01D02*
X4516370Y5562850D01*
G01D02*
X4496050Y5461000D01*
G01D02*
X4516370Y5359150D01*
G01D02*
X4574030Y5272530D01*
G01D02*
X4660650Y5214870D01*
G01D02*
X4762500Y5194550D01*
G01D02*
X4864350Y5214870D01*
G01D02*
X4950970Y5272530D01*
G01X4864350Y5707130D02*
X4762500Y5727450D01*
G01D02*
X4660650Y5707130D01*
G01X4950970Y5272530D02*
Y5649470D01*
G01Y5272530D02*
X4953000Y5274560D01*
G01X5717420Y3826750D02*
Y4226750D01*
X5757420D01*
X5770750Y4206740D01*
X5780750Y4160090D01*
X5784080Y4106750D01*
X5780750Y4053420D01*
X5772420Y4013410D01*
X5757420Y3993410D01*
X5717420D01*
G01X5829320Y4226750D02*
Y3940080D01*
X5835990Y3880070D01*
X5849320Y3840080D01*
X5865990Y3826750D01*
X5882660Y3840080D01*
X5895990Y3880070D01*
X5902660Y3940080D01*
Y4226750D01*
G01X5947900D02*
Y3826750D01*
X6014560D01*
G01X6061470Y3880070D02*
X6074800Y3846750D01*
X6089800Y3826750D01*
X6103140D01*
X6116470Y3846750D01*
X6126470Y3880070D01*
X6131470Y3926750D01*
X6128140Y3973410D01*
X6119800Y4013410D01*
X6104800Y4040090D01*
X6084800Y4053420D01*
X6073140Y4080080D01*
X6068140Y4126750D01*
X6071470Y4173420D01*
X6079800Y4206740D01*
X6091470Y4226750D01*
X6103140D01*
X6114800Y4213420D01*
X6124800Y4180080D01*
G01X6245040Y3826750D02*
X6178380D01*
Y4226750D01*
X6245040D01*
G01X6218380Y4033420D02*
X6178380D01*
G01X6398860Y3826750D02*
Y4226750D01*
X6442190Y3893410D01*
X6485520Y4226750D01*
Y3826750D01*
G01X6557430D02*
X6544090Y3833420D01*
X6532430Y3860080D01*
X6522430Y3900080D01*
X6515760Y3946750D01*
X6512430Y4000080D01*
Y4053420D01*
X6515760Y4106750D01*
X6522430Y4153420D01*
X6532430Y4193410D01*
X6544090Y4220080D01*
X6557430Y4226750D01*
X6570760Y4220080D01*
X6582430Y4193410D01*
X6592430Y4153420D01*
X6599100Y4106750D01*
X6602430Y4053420D01*
Y4000080D01*
X6599100Y3946750D01*
X6592430Y3900080D01*
X6582430Y3860080D01*
X6570760Y3833420D01*
X6557430Y3826750D01*
G01X6636000D02*
Y4226750D01*
X6669340D01*
X6682670Y4206740D01*
X6692670Y4180080D01*
X6701000Y4140090D01*
X6707670Y4093410D01*
X6709340Y4026740D01*
X6707670Y3960080D01*
X6701000Y3913410D01*
X6692670Y3873410D01*
X6682670Y3846750D01*
X6669340Y3826750D01*
X6636000D01*
G01X6751240Y4226750D02*
Y3940080D01*
X6757910Y3880070D01*
X6771240Y3840080D01*
X6787910Y3826750D01*
X6804580Y3840080D01*
X6817910Y3880070D01*
X6824580Y3940080D01*
Y4226750D01*
G01X6869820D02*
Y3826750D01*
X6936480D01*
G01X6976720D02*
X7018390Y4226750D01*
X7060060Y3826750D01*
G01X7045060Y3966740D02*
X6991720D01*
G01X7133630Y4226750D02*
Y3826750D01*
G01X7095300Y4226750D02*
X7171960D01*
G01X7228870D02*
X7268870D01*
G01X7248870D02*
Y3826750D01*
G01X7228870D02*
X7268870D01*
G01X7364110D02*
X7350770Y3833420D01*
X7339110Y3860080D01*
X7329110Y3900080D01*
X7322440Y3946750D01*
X7319110Y4000080D01*
Y4053420D01*
X7322440Y4106750D01*
X7329110Y4153420D01*
X7339110Y4193410D01*
X7350770Y4220080D01*
X7364110Y4226750D01*
X7377440Y4220080D01*
X7389110Y4193410D01*
X7399110Y4153420D01*
X7405780Y4106750D01*
X7409110Y4053420D01*
Y4000080D01*
X7405780Y3946750D01*
X7399110Y3900080D01*
X7389110Y3860080D01*
X7377440Y3833420D01*
X7364110Y3826750D01*
G01X7441020D02*
Y4226750D01*
X7517680Y3826750D01*
Y4226750D01*
G01X6642100Y1651000D02*
X6794500D01*
X6858000Y1587500D01*
X6985000D01*
X7048500Y1651000D01*
X7200900D01*
Y635000D01*
X6642100D01*
Y1651000D01*
G01X6578600Y3111500D02*
X6731000D01*
X6794500Y3048000D01*
X6921500D01*
X6985000Y3111500D01*
X7137400D01*
Y2095500D01*
X6578600D01*
Y3111500D01*
G01X8140700Y2882900D02*
Y3086100D01*
G01X8153400Y2882900D02*
Y3086100D01*
G54D11*
G01X284060Y3263900D02*
X292100Y3251200D01*
X301750Y3242730D01*
X313010Y3238500D01*
X325880Y3242730D01*
X335530Y3251200D01*
X345190Y3263900D01*
X348400Y3280830D01*
Y3365500D01*
G01X445770Y3238500D02*
Y3365500D01*
X426470Y3340100D01*
G01Y3238500D02*
X465070D01*
G01X373000Y3127000D02*
X627000D01*
Y2111000D01*
X373000D01*
Y3127000D01*
G01X1397000Y4000500D02*
Y3746500D01*
X635000D01*
Y4000500D01*
X1397000D01*
G01X703160Y4206750D02*
X708030Y4198870D01*
X713870Y4193620D01*
X720680Y4191000D01*
X728470Y4193620D01*
X734310Y4198870D01*
X740160Y4206750D01*
X742100Y4217250D01*
Y4269740D01*
G01X782870Y4256620D02*
X788710Y4264490D01*
X795530Y4268430D01*
X803320Y4269740D01*
X813050Y4267120D01*
X819870Y4260550D01*
X821820Y4252680D01*
X820840Y4244800D01*
X816950Y4238240D01*
X797480Y4225120D01*
X788710Y4215930D01*
X782870Y4202810D01*
X780920Y4191000D01*
X821820D01*
G01X1296840Y6159500D02*
Y6068480D01*
X1303270Y6049430D01*
X1316140Y6036730D01*
X1332230Y6032500D01*
X1348320Y6036730D01*
X1361190Y6049430D01*
X1367620Y6068480D01*
Y6159500D01*
G01X1461770Y6032500D02*
Y6159500D01*
X1442470Y6134100D01*
G01Y6032500D02*
X1481070D01*
G01X2544660Y1778000D02*
Y1856740D01*
X2569000D01*
X2576790Y1852800D01*
X2581660Y1847550D01*
X2583600Y1837050D01*
X2581660Y1826560D01*
X2575810Y1820000D01*
X2569000Y1816060D01*
X2544660D01*
G01X2569000D02*
X2583600Y1778000D01*
G01X2626320Y1787180D02*
X2633130Y1780620D01*
X2640920Y1778000D01*
X2648710Y1780620D01*
X2655530Y1788500D01*
X2660400Y1800310D01*
X2662340Y1812120D01*
Y1826560D01*
X2660400Y1838370D01*
X2655530Y1848870D01*
X2649690Y1854120D01*
X2642870Y1856740D01*
X2635080Y1854120D01*
X2629240Y1848870D01*
X2625340Y1840990D01*
X2623400Y1830490D01*
X2625340Y1821310D01*
X2630210Y1812120D01*
X2636050Y1806870D01*
X2642870Y1805560D01*
X2650660Y1808180D01*
X2656500Y1814740D01*
X2662340Y1826560D01*
G01X2366180Y2903220D02*
Y2812200D01*
X2372610Y2793150D01*
X2385480Y2780450D01*
X2401570Y2776220D01*
X2417660Y2780450D01*
X2430530Y2793150D01*
X2436960Y2812200D01*
Y2903220D01*
G01X2495720Y2801620D02*
X2505370Y2786800D01*
X2518240Y2778340D01*
X2532720Y2776220D01*
X2545590Y2778340D01*
X2558460Y2788920D01*
X2566500Y2801620D01*
X2568110Y2814320D01*
X2564890Y2829130D01*
X2553630Y2839720D01*
X2542370Y2843950D01*
X2527890D01*
G01X2542370D02*
X2552020Y2850300D01*
X2560070Y2860880D01*
X2563280Y2873590D01*
X2560070Y2886290D01*
X2552020Y2896870D01*
X2537540Y2903220D01*
X2523070Y2901100D01*
X2508590Y2892640D01*
G01X2447120Y4307420D02*
X2437470Y4313770D01*
X2426210Y4318000D01*
X2413340D01*
X2398860Y4311650D01*
X2387600Y4301070D01*
X2379560Y4288370D01*
X2373120Y4267200D01*
X2371510Y4248150D01*
X2374730Y4229100D01*
X2379560Y4216400D01*
X2389210Y4203700D01*
X2400470Y4195230D01*
X2411730Y4191000D01*
X2422990D01*
X2434250Y4195230D01*
X2443900Y4201580D01*
X2451950Y4210050D01*
G01X2510700Y4296830D02*
X2520360Y4309530D01*
X2531620Y4315880D01*
X2544490Y4318000D01*
X2560570Y4313770D01*
X2571840Y4303180D01*
X2575050Y4290490D01*
X2573440Y4277780D01*
X2567010Y4267200D01*
X2534840Y4246030D01*
X2520360Y4231220D01*
X2510700Y4210050D01*
X2507490Y4191000D01*
X2575050D01*
G01X2882900Y1968500D02*
X3594100D01*
Y1714500D01*
X2882900D01*
Y1968500D01*
G01X3429000Y5054600D02*
Y4343400D01*
X3175000D01*
Y5054600D01*
X3429000D01*
G01X3243160Y5207000D02*
Y5285740D01*
X3267500D01*
X3275290Y5281800D01*
X3280160Y5276550D01*
X3282100Y5266050D01*
X3280160Y5255560D01*
X3274310Y5249000D01*
X3267500Y5245060D01*
X3243160D01*
G01X3267500D02*
X3282100Y5207000D01*
G01X3322870Y5239810D02*
X3329690Y5249000D01*
X3335530Y5254240D01*
X3343320Y5256870D01*
X3350130Y5254240D01*
X3355000Y5249000D01*
X3358900Y5241120D01*
X3359870Y5231930D01*
X3358900Y5224060D01*
X3355000Y5216180D01*
X3349160Y5209620D01*
X3342340Y5207000D01*
X3334550Y5209620D01*
X3327740Y5217500D01*
X3323840Y5229310D01*
X3322870Y5242430D01*
X3324820Y5259490D01*
X3327740Y5268680D01*
X3332610Y5277870D01*
X3339420Y5284430D01*
X3346240Y5285740D01*
X3353050Y5283120D01*
X3357920Y5276550D01*
G01X3429000Y6451600D02*
Y5740400D01*
X3175000D01*
Y6451600D01*
X3429000D01*
G01X3179660Y6604000D02*
Y6682740D01*
X3204000D01*
X3211790Y6678800D01*
X3216660Y6673550D01*
X3218600Y6663050D01*
X3216660Y6652560D01*
X3210810Y6646000D01*
X3204000Y6642060D01*
X3179660D01*
G01X3204000D02*
X3218600Y6604000D01*
G01X3289550D02*
Y6682740D01*
X3253530Y6626310D01*
X3302210D01*
G01X4225120Y4561420D02*
X4215470Y4567770D01*
X4204210Y4572000D01*
X4191340D01*
X4176860Y4565650D01*
X4165600Y4555070D01*
X4157560Y4542370D01*
X4151120Y4521200D01*
X4149510Y4502150D01*
X4152730Y4483100D01*
X4157560Y4470400D01*
X4167210Y4457700D01*
X4178470Y4449230D01*
X4189730Y4445000D01*
X4200990D01*
X4212250Y4449230D01*
X4221900Y4455580D01*
X4229950Y4464050D01*
G01X4319270Y4445000D02*
Y4572000D01*
X4299970Y4546600D01*
G01Y4445000D02*
X4338570D01*
G01X4198620Y5334000D02*
X4179650Y5337170D01*
X4163060Y5349870D01*
X4148840Y5368920D01*
X4139350Y5391150D01*
X4134610Y5416550D01*
Y5441950D01*
X4139350Y5467350D01*
X4148840Y5489580D01*
X4163060Y5508620D01*
X4179650Y5521330D01*
X4198620Y5524500D01*
X4217580Y5521330D01*
X4234180Y5508620D01*
X4248400Y5489580D01*
X4257890Y5467350D01*
X4262630Y5441950D01*
Y5416550D01*
X4257890Y5391150D01*
X4248400Y5368920D01*
X4234180Y5349870D01*
X4217580Y5337170D01*
X4198620Y5334000D01*
G01X4217580Y5384800D02*
X4246030Y5334000D01*
G01X4389120D02*
Y5524500D01*
X4360670Y5486400D01*
G01Y5334000D02*
X4417560D01*
G01X5245100Y254000D02*
X4533900D01*
Y508000D01*
X5245100D01*
Y254000D01*
G01X4259160Y889000D02*
Y967740D01*
X4283500D01*
X4291290Y963800D01*
X4296160Y958550D01*
X4298100Y948050D01*
X4296160Y937560D01*
X4290310Y931000D01*
X4283500Y927060D01*
X4259160D01*
G01X4283500D02*
X4298100Y889000D01*
G01X4357370D02*
X4364190Y890310D01*
X4371970Y894250D01*
X4376840Y900810D01*
X4378790Y910000D01*
X4376840Y919180D01*
X4371000Y927060D01*
X4362240Y931000D01*
X4352500D01*
X4346660Y933620D01*
X4341790Y940180D01*
X4339840Y949370D01*
X4342770Y958550D01*
X4349580Y965120D01*
X4357370Y967740D01*
X4365160Y965120D01*
X4371970Y958550D01*
X4374900Y949370D01*
X4372950Y940180D01*
X4368080Y933620D01*
X4362240Y931000D01*
X4352500D01*
X4343740Y927060D01*
X4337900Y919180D01*
X4335950Y910000D01*
X4337900Y900810D01*
X4342770Y894250D01*
X4350550Y890310D01*
X4357370Y889000D01*
G01X4533900Y1016000D02*
X5245100D01*
Y762000D01*
X4533900D01*
Y1016000D01*
G01X5245100Y1270000D02*
X4533900D01*
Y1524000D01*
X5245100D01*
Y1270000D01*
G01X4254500Y6604000D02*
X4889500D01*
Y6096000D01*
X4254500D01*
Y6604000D01*
G01X5529160Y381000D02*
Y459740D01*
X5553500D01*
X5561290Y455800D01*
X5566160Y450550D01*
X5568100Y440050D01*
X5566160Y429560D01*
X5560310Y423000D01*
X5553500Y419060D01*
X5529160D01*
G01X5553500D02*
X5568100Y381000D01*
G01X5625420D02*
X5627370Y398060D01*
X5630290Y412490D01*
X5634190Y425620D01*
X5639050Y440050D01*
X5646840Y459740D01*
X5607900D01*
G01X5362790Y1333500D02*
Y1412240D01*
X5387130D01*
X5394920Y1408300D01*
X5399790Y1403050D01*
X5401730Y1392550D01*
X5399790Y1382060D01*
X5393940Y1375500D01*
X5387130Y1371560D01*
X5362790D01*
G01X5387130D02*
X5401730Y1333500D01*
G01X5461000D02*
Y1412240D01*
X5449320Y1396490D01*
G01Y1333500D02*
X5472680D01*
G01X5539740D02*
Y1412240D01*
X5528060Y1396490D01*
G01Y1333500D02*
X5551420D01*
G01X5529160Y4635500D02*
Y4714240D01*
X5553500D01*
X5561290Y4710300D01*
X5566160Y4705050D01*
X5568100Y4694550D01*
X5566160Y4684060D01*
X5560310Y4677500D01*
X5553500Y4673560D01*
X5529160D01*
G01X5553500D02*
X5568100Y4635500D01*
G01X5605950Y4647310D02*
X5611790Y4640750D01*
X5618610Y4636810D01*
X5627370Y4635500D01*
X5636130Y4638120D01*
X5642950Y4643370D01*
X5647820Y4652560D01*
X5648790Y4663060D01*
X5646840Y4673560D01*
X5641970Y4680120D01*
X5635160Y4685370D01*
X5628340Y4686680D01*
X5621530Y4685370D01*
X5612770Y4680120D01*
X5615690Y4714240D01*
X5641970D01*
G01X5461000Y4851400D02*
Y5562600D01*
X5715000D01*
Y4851400D01*
X5461000D01*
G01X4983060Y6477000D02*
Y6604000D01*
X5023270D01*
X5036140Y6597650D01*
X5044190Y6589180D01*
X5047400Y6572250D01*
X5044190Y6555320D01*
X5034530Y6544730D01*
X5023270Y6538380D01*
X4983060D01*
G01X5023270D02*
X5047400Y6477000D01*
G01X5144770D02*
Y6604000D01*
X5125470Y6578600D01*
G01Y6477000D02*
X5164070D01*
G01X6227660Y4635500D02*
Y4714240D01*
X6252000D01*
X6259790Y4710300D01*
X6264660Y4705050D01*
X6266600Y4694550D01*
X6264660Y4684060D01*
X6258810Y4677500D01*
X6252000Y4673560D01*
X6227660D01*
G01X6252000D02*
X6266600Y4635500D01*
G01X6307370Y4701120D02*
X6313210Y4708990D01*
X6320030Y4712930D01*
X6327820Y4714240D01*
X6337550Y4711620D01*
X6344370Y4705050D01*
X6346320Y4697180D01*
X6345340Y4689300D01*
X6341450Y4682740D01*
X6321980Y4669620D01*
X6313210Y4660430D01*
X6307370Y4647310D01*
X6305420Y4635500D01*
X6346320D01*
G01X6096000Y4851400D02*
Y5562600D01*
X6350000D01*
Y4851400D01*
X6096000D01*
G01X6921500Y6032500D02*
Y6667500D01*
X7429500D01*
Y6032500D01*
X6921500D01*
G01X7205560Y6731000D02*
Y6858000D01*
X7245770D01*
X7258640Y6851650D01*
X7266690Y6843180D01*
X7269900Y6826250D01*
X7266690Y6809320D01*
X7257030Y6798730D01*
X7245770Y6792380D01*
X7205560D01*
G01X7245770D02*
X7269900Y6731000D01*
G01X7331880Y6756400D02*
X7341530Y6741580D01*
X7354400Y6733120D01*
X7368880Y6731000D01*
X7381750Y6733120D01*
X7394620Y6743700D01*
X7402660Y6756400D01*
X7404270Y6769100D01*
X7401050Y6783910D01*
X7389790Y6794500D01*
X7378530Y6798730D01*
X7364050D01*
G01X7378530D02*
X7388180Y6805080D01*
X7396230Y6815660D01*
X7399440Y6828370D01*
X7396230Y6841070D01*
X7388180Y6851650D01*
X7373700Y6858000D01*
X7359230Y6855880D01*
X7344750Y6847420D01*
G01X7446180Y1379220D02*
Y1288200D01*
X7452610Y1269150D01*
X7465480Y1256450D01*
X7481570Y1252220D01*
X7497660Y1256450D01*
X7510530Y1269150D01*
X7516960Y1288200D01*
Y1379220D01*
G01X7580540Y1358050D02*
X7590200Y1370750D01*
X7601460Y1377100D01*
X7614330Y1379220D01*
X7630410Y1374990D01*
X7641680Y1364400D01*
X7644890Y1351710D01*
X7643280Y1339000D01*
X7636850Y1328420D01*
X7604680Y1307250D01*
X7590200Y1292440D01*
X7580540Y1271270D01*
X7577330Y1252220D01*
X7644890D01*
G01X7382680Y2839720D02*
Y2748700D01*
X7389110Y2729650D01*
X7401980Y2716950D01*
X7418070Y2712720D01*
X7434160Y2716950D01*
X7447030Y2729650D01*
X7453460Y2748700D01*
Y2839720D01*
G01X7512220Y2731770D02*
X7521870Y2721180D01*
X7533130Y2714840D01*
X7547610Y2712720D01*
X7562090Y2716950D01*
X7573350Y2725420D01*
X7581390Y2740230D01*
X7583000Y2757170D01*
X7579780Y2774100D01*
X7571740Y2784690D01*
X7560480Y2793150D01*
X7549220Y2795270D01*
X7537960Y2793150D01*
X7523480Y2784690D01*
X7528310Y2839720D01*
X7571740D01*
G01X8255000Y2882900D02*
X7848600D01*
Y3086100D01*
X8255000D01*
Y2882900D01*
G01X9372600Y1714500D02*
X8661400D01*
Y1968500D01*
X9372600D01*
Y1714500D01*
G01X8387420Y2984500D02*
Y3048000D01*
X8400970D01*
X8406380Y3044820D01*
X8410450Y3040590D01*
X8413840Y3034240D01*
X8416540Y3026830D01*
X8417220Y3016250D01*
X8416540Y3005670D01*
X8413840Y2998260D01*
X8410450Y2991910D01*
X8406380Y2987670D01*
X8400970Y2984500D01*
X8387420D01*
G01X8458200D02*
Y3048000D01*
X8450070Y3035300D01*
G01Y2984500D02*
X8466330D01*
G01X9373000Y3127000D02*
X9627000D01*
Y2619000D01*
X9373000D01*
Y3127000D01*
G01X9172790Y2159000D02*
Y2237740D01*
X9197130D01*
X9204920Y2233800D01*
X9209790Y2228550D01*
X9211730Y2218050D01*
X9209790Y2207560D01*
X9203940Y2201000D01*
X9197130Y2197060D01*
X9172790D01*
G01X9197130D02*
X9211730Y2159000D01*
G01X9271000D02*
Y2237740D01*
X9259320Y2221990D01*
G01Y2159000D02*
X9282680D01*
G01X9349740Y2237740D02*
X9341950Y2235120D01*
X9336110Y2228550D01*
X9332210Y2220680D01*
X9329290Y2210180D01*
X9328320Y2198370D01*
X9329290Y2186560D01*
X9332210Y2176060D01*
X9336110Y2168180D01*
X9341950Y2161620D01*
X9349740Y2159000D01*
X9357530Y2161620D01*
X9363370Y2168180D01*
X9367270Y2176060D01*
X9370190Y2186560D01*
X9371160Y2198370D01*
X9370190Y2210180D01*
X9367270Y2220680D01*
X9363370Y2228550D01*
X9357530Y2235120D01*
X9349740Y2237740D01*
G01X9402660Y3317750D02*
X9407530Y3309870D01*
X9413370Y3304620D01*
X9420180Y3302000D01*
X9427970Y3304620D01*
X9433810Y3309870D01*
X9439660Y3317750D01*
X9441600Y3328250D01*
Y3380740D01*
G01X9479450Y3317750D02*
X9485290Y3308560D01*
X9493080Y3303310D01*
X9501840Y3302000D01*
X9509630Y3303310D01*
X9517420Y3309870D01*
X9522290Y3317750D01*
X9523260Y3325620D01*
X9521320Y3334810D01*
X9514500Y3341370D01*
X9507690Y3344000D01*
X9498920D01*
G01X9507690D02*
X9513530Y3347930D01*
X9518400Y3354490D01*
X9520340Y3362370D01*
X9518400Y3370240D01*
X9513530Y3376800D01*
X9504760Y3380740D01*
X9496000Y3379430D01*
X9487240Y3374180D01*
M02*
