G04 ================== begin FILE IDENTIFICATION RECORD ==================*
G04 Layout Name:  C:/Users/user/Desktop/work/0730/allegro/PULSE_MODULATION.brd*
G04 Film Name:    Silk_b*
G04 File Format:  Gerber RS274X*
G04 File Origin:  Cadence Allegro 17.2-S052*
G04 Origin Date:  Tue Jul 30 17:18:55 2019*
G04 *
G04 Layer:  REF DES/SILKSCREEN_BOTTOM*
G04 Layer:  PACKAGE GEOMETRY/SILKSCREEN_BOTTOM*
G04 Layer:  BOARD GEOMETRY/SILKSCREEN_BOTTOM*
G04 *
G04 Offset:    (0.0000 0.0000)*
G04 Mirror:    No*
G04 Mode:      Positive*
G04 Rotation:  0*
G04 FullContactRelief:  No*
G04 UndefLineWidth:     0.0000*
G04 ================== end FILE IDENTIFICATION RECORD ====================*
%FSLAX25Y25*MOMM*%
%IR0*IPPOS*OFA0.00000B0.00000*MIA0B0*SFA1.00000B1.00000*%
%ADD10C,.4*%
G75*
%LPD*%
G75*
G54D10*
G01X8159160Y3175000D02*
Y3575000D01*
G01X8043920Y3441660D02*
Y3175000D01*
G01Y3548330D02*
X8047250Y3554990D01*
Y3568330D01*
X8043920Y3575000D01*
X8040590Y3568330D01*
Y3554990D01*
X8043920Y3548330D01*
G01X7957010Y3175000D02*
Y3441660D01*
G01Y3374990D02*
X7950350Y3408330D01*
X7940350Y3434990D01*
X7927010Y3441660D01*
X7915350Y3434990D01*
X7905350Y3408330D01*
X7900350Y3361660D01*
Y3175000D01*
G01X7838440Y3355000D02*
X7785110D01*
X7790110Y3401670D01*
X7798440Y3428330D01*
X7810110Y3441660D01*
X7821770Y3434990D01*
X7831770Y3415000D01*
X7838440Y3368330D01*
X7841770Y3328320D01*
Y3288330D01*
X7838440Y3248330D01*
X7830110Y3208330D01*
X7820110Y3181670D01*
X7808440Y3175000D01*
X7796770Y3188330D01*
X7785110Y3228320D01*
G01X7624630Y3441660D02*
X7604630Y3175000D01*
X7582960Y3441660D01*
X7561290Y3175000D01*
X7541290Y3441660D01*
G01X7467720D02*
Y3175000D01*
G01Y3548330D02*
X7471050Y3554990D01*
Y3568330D01*
X7467720Y3575000D01*
X7464390Y3568330D01*
Y3554990D01*
X7467720Y3548330D01*
G01X7322480Y3575000D02*
Y3175000D01*
G01Y3234990D02*
X7329150Y3201660D01*
X7339150Y3181670D01*
X7350810Y3175000D01*
X7364150Y3188330D01*
X7374150Y3221660D01*
X7380810Y3261660D01*
X7382480Y3308330D01*
X7380810Y3355000D01*
X7374150Y3395000D01*
X7364150Y3428330D01*
X7350810Y3441660D01*
X7339150Y3434990D01*
X7330810Y3421660D01*
X7322480Y3395000D01*
G01X7237240Y3575000D02*
Y3175000D01*
G01X7260570Y3441660D02*
X7213910D01*
G01X7150330Y3175000D02*
Y3575000D01*
G01Y3381670D02*
X7142000Y3415000D01*
X7133670Y3434990D01*
X7120330Y3441660D01*
X7110330Y3434990D01*
X7098670Y3408330D01*
X7093670Y3368330D01*
Y3175000D01*
G01X6891520Y3161670D02*
X6894850Y3168330D01*
Y3181670D01*
X6891520Y3188330D01*
X6888190Y3181670D01*
Y3168330D01*
X6891520Y3161670D01*
G01Y3341660D02*
X6894850Y3348330D01*
Y3361660D01*
X6891520Y3368330D01*
X6888190Y3361660D01*
Y3348330D01*
X6891520Y3341660D01*
G01X6661040Y3575000D02*
X6674380Y3561670D01*
X6684370Y3528330D01*
X6691040Y3488340D01*
X6696040Y3434990D01*
X6697710Y3374990D01*
X6696040Y3314990D01*
X6691040Y3261660D01*
X6684370Y3221660D01*
X6674380Y3188330D01*
X6661040Y3175000D01*
X6647710Y3188330D01*
X6637710Y3221660D01*
X6631040Y3261660D01*
X6626040Y3314990D01*
X6624370Y3374990D01*
X6626040Y3434990D01*
X6631040Y3488340D01*
X6637710Y3528330D01*
X6647710Y3561670D01*
X6661040Y3575000D01*
G01X6545800Y3161670D02*
X6549130Y3168330D01*
Y3181670D01*
X6545800Y3188330D01*
X6542470Y3181670D01*
Y3168330D01*
X6545800Y3161670D01*
G01X6410560Y3175000D02*
Y3575000D01*
X6472230Y3288330D01*
X6388890D01*
G01X6250080Y3175000D02*
Y3441660D01*
G01Y3368330D02*
X6245080Y3401670D01*
X6236750Y3428330D01*
X6225080Y3441660D01*
X6213420Y3428330D01*
X6205080Y3401670D01*
X6200080Y3368330D01*
Y3175000D01*
G01Y3368330D02*
X6195080Y3401670D01*
X6186750Y3428330D01*
X6175080Y3441660D01*
X6163410Y3428330D01*
X6155080Y3401670D01*
X6150080Y3361660D01*
Y3175000D01*
G01X6134840D02*
Y3441660D01*
G01Y3368330D02*
X6129840Y3401670D01*
X6121510Y3428330D01*
X6109840Y3441660D01*
X6098180Y3428330D01*
X6089840Y3401670D01*
X6084840Y3368330D01*
Y3175000D01*
G01Y3368330D02*
X6079840Y3401670D01*
X6071510Y3428330D01*
X6059840Y3441660D01*
X6048170Y3428330D01*
X6039840Y3401670D01*
X6034840Y3361660D01*
Y3175000D01*
G01X5857690Y3101670D02*
X5851030Y3188330D01*
G01X5652210Y3175000D02*
Y3575000D01*
G01Y3381670D02*
X5643880Y3415000D01*
X5635550Y3434990D01*
X5622210Y3441660D01*
X5612210Y3434990D01*
X5600550Y3408330D01*
X5595550Y3368330D01*
Y3175000D01*
G01X5533640Y3355000D02*
X5480310D01*
X5485310Y3401670D01*
X5493640Y3428330D01*
X5505310Y3441660D01*
X5516970Y3434990D01*
X5526970Y3415000D01*
X5533640Y3368330D01*
X5536970Y3328320D01*
Y3288330D01*
X5533640Y3248330D01*
X5525310Y3208330D01*
X5515310Y3181670D01*
X5503640Y3175000D01*
X5491970Y3188330D01*
X5480310Y3228320D01*
G01X5393400Y3441660D02*
Y3175000D01*
G01Y3548330D02*
X5396730Y3554990D01*
Y3568330D01*
X5393400Y3575000D01*
X5390070Y3568330D01*
Y3554990D01*
X5393400Y3548330D01*
G01X5301490Y3075000D02*
X5289830Y3048340D01*
X5276490Y3041670D01*
X5264830Y3048340D01*
X5254830Y3081660D01*
X5248160Y3128330D01*
Y3441660D01*
G01Y3388340D02*
X5254830Y3415000D01*
X5264830Y3434990D01*
X5276490Y3441660D01*
X5289830Y3428330D01*
X5298160Y3401670D01*
X5304830Y3355000D01*
X5308160Y3308330D01*
X5306490Y3268330D01*
X5299830Y3221660D01*
X5289830Y3188330D01*
X5276490Y3175000D01*
X5266490Y3181670D01*
X5254830Y3208330D01*
X5248160Y3234990D01*
G01X5191250Y3175000D02*
Y3575000D01*
G01Y3381670D02*
X5182920Y3415000D01*
X5174590Y3434990D01*
X5161250Y3441660D01*
X5151250Y3434990D01*
X5139590Y3408330D01*
X5134590Y3368330D01*
Y3175000D01*
G01X5047680Y3575000D02*
Y3175000D01*
G01X5071010Y3441660D02*
X5024350D01*
G01X4817200Y3161670D02*
X4820530Y3168330D01*
Y3181670D01*
X4817200Y3188330D01*
X4813870Y3181670D01*
Y3168330D01*
X4817200Y3161670D01*
G01Y3341660D02*
X4820530Y3348330D01*
Y3361660D01*
X4817200Y3368330D01*
X4813870Y3361660D01*
Y3348330D01*
X4817200Y3341660D01*
G01X4566720Y3175000D02*
Y3575000D01*
X4628390Y3288330D01*
X4545050D01*
G01X4406240Y3175000D02*
Y3441660D01*
G01Y3368330D02*
X4401240Y3401670D01*
X4392910Y3428330D01*
X4381240Y3441660D01*
X4369580Y3428330D01*
X4361240Y3401670D01*
X4356240Y3368330D01*
Y3175000D01*
G01Y3368330D02*
X4351240Y3401670D01*
X4342910Y3428330D01*
X4331240Y3441660D01*
X4319570Y3428330D01*
X4311240Y3401670D01*
X4306240Y3361660D01*
Y3175000D01*
G01X4291000D02*
Y3441660D01*
G01Y3368330D02*
X4286000Y3401670D01*
X4277670Y3428330D01*
X4266000Y3441660D01*
X4254340Y3428330D01*
X4246000Y3401670D01*
X4241000Y3368330D01*
Y3175000D01*
G01Y3368330D02*
X4236000Y3401670D01*
X4227670Y3428330D01*
X4216000Y3441660D01*
X4204330Y3428330D01*
X4196000Y3401670D01*
X4191000Y3361660D01*
Y3175000D01*
G01X6238040Y3953750D02*
X6304700D01*
Y4353750D01*
X6238040D01*
G01X6264700Y4160420D02*
X6304700D01*
G01X6156130Y3953750D02*
Y4353750D01*
G01X6065890Y4133750D02*
X6012560D01*
X6017560Y4180420D01*
X6025890Y4207080D01*
X6037560Y4220410D01*
X6049220Y4213740D01*
X6059220Y4193750D01*
X6065890Y4147080D01*
X6069220Y4107070D01*
Y4067080D01*
X6065890Y4027080D01*
X6057560Y3987080D01*
X6047560Y3960420D01*
X6035890Y3953750D01*
X6024220Y3967080D01*
X6012560Y4007070D01*
G01X5898980Y4187080D02*
X5910650Y4213740D01*
X5920650Y4220410D01*
X5933980Y4207080D01*
X5943980Y4180420D01*
X5950650Y4133750D01*
X5952320Y4087080D01*
X5950650Y4040410D01*
X5943980Y4000410D01*
X5933980Y3967080D01*
X5920650Y3953750D01*
X5908980Y3967080D01*
X5898980Y3993740D01*
G01X5810410Y4353750D02*
Y3953750D01*
G01X5833740Y4220410D02*
X5787080D01*
G01X5718500Y3953750D02*
Y4220410D01*
G01Y4167090D02*
X5710170Y4193750D01*
X5701840Y4213740D01*
X5690170Y4220410D01*
X5681840Y4213740D01*
X5671840Y4193750D01*
G01X5579930Y3953750D02*
X5589930Y3960420D01*
X5599930Y3987080D01*
X5606600Y4033750D01*
X5609930Y4087080D01*
X5606600Y4140410D01*
X5599930Y4187080D01*
X5589930Y4213740D01*
X5579930Y4220410D01*
X5569930Y4213740D01*
X5559930Y4187080D01*
X5553260Y4140410D01*
X5551600Y4087080D01*
X5553260Y4033750D01*
X5559930Y3987080D01*
X5569930Y3960420D01*
X5579930Y3953750D01*
G01X5493020D02*
Y4220410D01*
G01Y4153740D02*
X5486360Y4187080D01*
X5476360Y4213740D01*
X5463020Y4220410D01*
X5451360Y4213740D01*
X5441360Y4187080D01*
X5436360Y4140410D01*
Y3953750D01*
G01X5349450Y4220410D02*
Y3953750D01*
G01Y4327080D02*
X5352780Y4333740D01*
Y4347080D01*
X5349450Y4353750D01*
X5346120Y4347080D01*
Y4333740D01*
X5349450Y4327080D01*
G01X5207540Y4187080D02*
X5219210Y4213740D01*
X5229210Y4220410D01*
X5242540Y4207080D01*
X5252540Y4180420D01*
X5259210Y4133750D01*
X5260880Y4087080D01*
X5259210Y4040410D01*
X5252540Y4000410D01*
X5242540Y3967080D01*
X5229210Y3953750D01*
X5217540Y3967080D01*
X5207540Y3993740D01*
G01X4967060Y4320410D02*
X4977060Y4340420D01*
X4988730Y4353750D01*
X5002060D01*
X5017070Y4333740D01*
X5028730Y4300420D01*
X5037060Y4260410D01*
X5043730Y4193750D01*
X5045400Y4133750D01*
X5042060Y4073750D01*
X5037060Y4033750D01*
X5027060Y3993740D01*
X5015400Y3967080D01*
X5003730Y3953750D01*
X4992060D01*
X4980400Y3967080D01*
X4970400Y3987080D01*
X4962060Y4013740D01*
G01X4930160Y3953750D02*
X4888490Y4353750D01*
X4846820Y3953750D01*
G01X4861820Y4093740D02*
X4915160D01*
G01X4809920Y3953750D02*
Y4353750D01*
X4776580D01*
X4763250Y4333740D01*
X4753250Y4307080D01*
X4744920Y4267090D01*
X4738250Y4220410D01*
X4736580Y4153740D01*
X4738250Y4087080D01*
X4744920Y4040410D01*
X4753250Y4000410D01*
X4763250Y3973750D01*
X4776580Y3953750D01*
X4809920D01*
M02*
