G04 ================== begin FILE IDENTIFICATION RECORD ==================*
G04 Layout Name:  C:/Users/user/Desktop/work/0730/allegro/PULSE_MODULATION.brd*
G04 Film Name:    TOP*
G04 File Format:  Gerber RS274X*
G04 File Origin:  Cadence Allegro 17.2-S052*
G04 Origin Date:  Tue Jul 30 17:20:54 2019*
G04 *
G04 Layer:  BOARD GEOMETRY/DESIGN_OUTLINE*
G04 Layer:  ETCH/TOP*
G04 Layer:  PIN/TOP*
G04 Layer:  VIA CLASS/TOP*
G04 *
G04 Offset:    (0.0000 0.0000)*
G04 Mirror:    Yes*
G04 Mode:      Positive*
G04 Rotation:  0*
G04 FullContactRelief:  No*
G04 UndefLineWidth:     0.0000*
G04 ================== end FILE IDENTIFICATION RECORD ====================*
%FSLAX25Y25*MOMM*%
%IR0*IPPOS*OFA0.00000B0.00000*MIA1B0*SFA1.00000B1.00000*%
%ADD10C,.635*%
%ADD15O,1.524X1.016*%
%ADD14R,1.524X1.016*%
%ADD11C,1.524*%
%ADD13C,1.651*%
%ADD12R,1.524X1.524*%
%ADD16C,1.397*%
%ADD17R,1.397X1.397*%
%ADD18C,.5*%
%ADD19C,1.*%
%ADD20C,2.2704*%
%ADD22C,2.5244*%
%ADD23R,5.0804X5.0804*%
%ADD21C,2.3974*%
G75*
%LPD*%
G75*
G36*
G01X100010Y6899990D02*
X9899990D01*
Y100010D01*
X100010D01*
Y6899990D01*
G37*
%LPC*%
G75*
G36*
G01X1346980Y5892800D02*
Y6045200D01*
G02X1384300Y6082520I37320J0D01*
G01X1536700D01*
G02X1574020Y6045200I0J-37320D01*
G01Y5892800D01*
G02X1536700Y5855480I-37320J0D01*
G01X1384300D01*
G02X1346980Y5892800I0J37320D01*
G37*
G36*
G01X4269110Y451350D02*
X3721300Y1711320D01*
X3718740Y1711870D01*
G02X3613930Y1841500I27759J129630D01*
G02X3879070I132570J0D01*
G02X3860230Y1773390I-132568J9D01*
G01X3858890Y1771150D01*
X4232160Y912630D01*
G03X4251450Y914710I9321J4045D01*
G02X4306480Y998300I130052J-25708D01*
G01Y1287700D01*
G02X4248930Y1397000I75017J109300D01*
G02X4514070I132570J0D01*
G02X4456520Y1287700I-132567J0D01*
G01Y998300D01*
G02X4514070Y889000I-75017J-109300D01*
G02X4381500Y756430I-132570J0D01*
G02X4311600Y776360I7J132568D01*
G03X4296920Y763670I-5362J-8633D01*
G01X4406700Y511180D01*
X4409260Y510630D01*
G02X4514070Y381000I-27759J-129630D01*
G02X4248930I-132570J0D01*
G02X4267770Y449110I132568J-9D01*
G01X4269110Y451350D01*
G37*
G36*
G01X4803000Y5699880D02*
X4761470Y6114490D01*
X4759350Y6115810D01*
G02X4699780Y6223000I66654J107190D01*
G02X4952220I126220J0D01*
G02X4912590Y6131160I-126232J0D01*
G01X4910770Y6129450D01*
X4963750Y5600540D01*
G02X4964120Y5593060I-74652J-7442D01*
G01Y5546080D01*
G02X4942150Y5493030I-75034J0D01*
G01X4901370Y5452250D01*
G02X4886680Y5440830I-53034J53062D01*
G02X4878000Y5415750I-98788J20148D01*
G02X4888720Y5384800I-39302J-30944D01*
G01Y5283200D01*
G02X4842240Y5233310I-50015J0D01*
G03X4837520Y5228240I361J-5068D01*
G01Y4800510D01*
G02X4864010Y4774020I-75020J-101510D01*
G01X5478700D01*
G02X5588000Y4831570I109300J-75017D01*
G02Y4566430I0J-132570D01*
G02X5478700Y4623980I0J132567D01*
G01X4864010D01*
G02X4762500Y4572780I-101510J75028D01*
G02X4636280Y4699000I0J126220D01*
G02X4687480Y4800510I126228J0D01*
G01Y5228240D01*
G03X4682760Y5233310I-5081J2D01*
G02X4636280Y5283200I3535J49890D01*
G01Y5384800D01*
G02X4647000Y5415750I50022J6D01*
G02X4636280Y5461000I90102J45241D01*
G02X4643710Y5498990I100821J3D01*
G03X4634300Y5512980I-9409J3831D01*
G01X3411300D01*
G02X3377020Y5478700I-109300J75020D01*
G01Y5316300D01*
G02X3434570Y5207000I-75017J-109300D01*
G02X3169430I-132570J0D01*
G02X3226980Y5316300I132567J0D01*
G01Y5478700D01*
G02X3169430Y5588000I75017J109300D01*
G02X3302000Y5720570I132570J0D01*
G02X3411300Y5663020I0J-132567D01*
G01X4669750D01*
G02X4737100Y5688820I67350J-75007D01*
G01X4787900D01*
G02X4792440Y5688720I50J-100821D01*
G03X4803000Y5699880I453J10147D01*
G37*
G36*
G01X7067250Y6474840D02*
X7177660Y6585250D01*
X7177330Y6587730D01*
G02X7176280Y6604000I125171J16247D01*
G02X7302500Y6477780I126220J0D01*
G02X7286230Y6478830I-23J126221D01*
G01X7283750Y6479160D01*
X7173340Y6368750D01*
X7173670Y6366270D01*
G02X7174720Y6350000I-125171J-16247D01*
G02X7048500Y6223780I-126220J0D01*
G02X7016180Y6227990I7J126219D01*
G01X7013760Y6228630D01*
X6355400Y5722200D01*
X6355490Y5719590D01*
G02X6355570Y5715000I-132490J-4605D01*
G02X6223000Y5847570I-132570J0D01*
G02X6261420Y5841880I-2J-132570D01*
G01X6263920Y5841120D01*
X6922280Y6347550D01*
Y6350050D01*
G02X7048500Y6476220I126220J-50D01*
G02X7064770Y6475170I23J-126221D01*
G01X7067250Y6474840D01*
G37*
G36*
G01X2176500Y2422460D02*
G02X2096280Y2540000I46001J117540D01*
G02X2222500Y2666220I126220J0D01*
G02X2331290Y2604000I0J-126218D01*
G01X2332560Y2601850D01*
X3147050Y2500030D01*
X3148810Y2501810D01*
G02X3238500Y2539220I89690J-88810D01*
G02Y2286780I0J-126220D01*
G02X3129710Y2349000I0J126218D01*
G01X3128440Y2351150D01*
X2313950Y2452970D01*
X2312190Y2451190D01*
G02X2268500Y2422460I-89691J88809D01*
G03Y2403540I3703J-9460D01*
G02X2348720Y2286000I-46001J-117540D01*
G02X2348470Y2278090I-126219J30D01*
G01X2348320Y2275600D01*
X2697620Y1969950D01*
X2700160Y1970550D01*
G02X2730500Y1974070I30346J-129049D01*
G02X2597930Y1841500I0J-132570D01*
G02X2598560Y1854440I132572J31D01*
G01X2598820Y1857040D01*
X2249510Y2162680D01*
X2247060Y2162190D01*
G02X2222500Y2159780I-24547J123811D01*
G02X2096280Y2286000I0J126220D01*
G02X2176500Y2403540I126221J0D01*
G03Y2422460I-3703J9460D01*
G37*
G36*
G01X6350780Y3060700D02*
G02X6400800Y3110720I50020J0D01*
G01X6553200D01*
G02X6603220Y3060700I0J-50020D01*
G01Y2908300D01*
G02X6553200Y2858280I-50020J0D01*
G01X6546030D01*
G03X6540890Y2839360I1J-10158D01*
G02X6603220Y2730500I-63898J-108860D01*
G02X6477000Y2604280I-126220J0D01*
G02X6433960Y2611840I-13J126222D01*
G01X6431610Y2612700D01*
X5853520Y2244820D01*
Y1079500D01*
G02X5812050Y1012400I-75020J0D01*
G01X5528840Y870800D01*
X5528430Y868220D01*
G02X5397500Y756430I-130930J20779D01*
G02Y1021570I0J132570D01*
G02X5459430Y1006210I-10J-132568D01*
G01X5461740Y1004990D01*
X5703480Y1125860D01*
Y2286000D01*
G02X5738220Y2349290I75021J0D01*
G01X6351060Y2739280D01*
X6351280Y2741770D01*
G02X6413110Y2839360I125719J-11270D01*
G03X6407970Y2858280I-5141J8762D01*
G01X6400800D01*
G02X6350780Y2908300I0J50020D01*
G01Y3060700D01*
G37*
G36*
G01X7193000Y2866960D02*
G02X7112780Y2984500I46001J117540D01*
G02X7365220I126220J0D01*
G02X7285000Y2866960I-126221J0D01*
G03Y2848040I3703J-9460D01*
G02X7349730Y2791080I-46003J-117538D01*
G03X7366970Y2790130I8915J4876D01*
G01X7479510Y2950900D01*
X7478890Y2953200D01*
G02X7474730Y2984500I115709J31305D01*
G02X7714470I119870J0D01*
G02X7604790Y2865060I-119874J0D01*
G01X7602430Y2864860D01*
X7358690Y2516660D01*
X7359430Y2514280D01*
G02X7365220Y2476500I-120428J-37790D01*
G02X7285000Y2358960I-126221J0D01*
G03Y2340040I3703J-9460D01*
G02X7365220Y2222500I-46001J-117540D01*
G02X7112780I-126220J0D01*
G02X7193000Y2340040I126221J0D01*
G03Y2358960I-3703J9460D01*
G02Y2594040I46001J117540D01*
G03Y2612960I-3703J9460D01*
G02Y2848040I46001J117540D01*
G03Y2866960I-3703J9460D01*
G37*
G36*
G01X1072140Y4232480D02*
G02X1125190Y4254450I53050J-53064D01*
G01X1662570D01*
G02X1715620Y4232480I0J-75034D01*
G01X2275550Y3672550D01*
G02X2297520Y3619500I-53064J-53050D01*
G01Y3149510D01*
G02X2348720Y3048000I-75028J-101510D01*
G02X2096280I-126220J0D01*
G02X2147480Y3149510I126228J0D01*
G01Y3588430D01*
X1631500Y4104410D01*
X1156260D01*
X1091020Y4039170D01*
Y3975010D01*
G02X1133540Y3919500I-75022J-101506D01*
G03X1152460I9460J3703D01*
G02X1270000Y3999720I117540J-46001D01*
G02X1396220Y3873500I0J-126220D01*
G02X1352760Y3778200I-126218J0D01*
G01X1350870Y3776560D01*
X1386400Y3174220D01*
X1536700D01*
G02X1586720Y3124200I0J-50020D01*
G01Y2971800D01*
G02X1536700Y2921780I-50020J0D01*
G01X1529530D01*
G03X1524390Y2902860I1J-10158D01*
G02X1586720Y2794000I-63898J-108860D01*
G02X1506500Y2676460I-126221J0D01*
G03Y2657540I3703J-9460D01*
G02Y2422460I-46001J-117540D01*
G03Y2403540I3703J-9460D01*
G02X1586720Y2286000I-46001J-117540D01*
G02X1334280I-126220J0D01*
G02X1414500Y2403540I126221J0D01*
G03Y2422460I-3703J9460D01*
G02X1334280Y2540000I46001J117540D01*
G02X1343900Y2588320I126218J-11D01*
G01X1344850Y2590630D01*
X1270830Y2719370D01*
G02X1260980Y2752340I65040J37388D01*
G01X1201090Y3767720D01*
X1199020Y3769130D01*
G02X1152460Y3827500I70978J104372D01*
G03X1133540I-9460J-3703D01*
G02X1016000Y3747280I-117540J46001D01*
G02X889780Y3873500I0J126220D01*
G02X940980Y3975010I126228J0D01*
G01Y4070240D01*
G02X962950Y4123290I75034J0D01*
G01X1072140Y4232480D01*
G37*
G36*
G01X1414500Y5597460D02*
G02X1334280Y5715000I46001J117540D01*
G02X1586720I126220J0D01*
G02X1506500Y5597460I-126221J0D01*
G03Y5578540I3703J-9460D01*
G02Y5343460I-46001J-117540D01*
G03Y5324540I3703J-9460D01*
G02X1586720Y5207000I-46001J-117540D01*
G02X1334280I-126220J0D01*
G02X1414500Y5324540I126221J0D01*
G03Y5343460I-3703J9460D01*
G02Y5578540I46001J117540D01*
G03Y5597460I-3703J9460D01*
G37*
G36*
G01X5582330Y5582530D02*
X5579720Y5582690D01*
G02X5455430Y5715000I8279J132310D01*
G02X5720570I132570J0D01*
G02X5710560Y5664460I-132571J-4D01*
G01X5709560Y5662050D01*
X6228670Y4831470D01*
X6231280Y4831310D01*
G02X6351250Y4732550I-8283J-132309D01*
G01X6351910Y4730030D01*
X8408790Y3943570D01*
G02X8457020Y3873500I-26785J-70070D01*
G01Y3104370D01*
X8578850D01*
G02X8627940Y3063930I0J-50015D01*
G01X8628760Y3059750D01*
X9397160Y3073230D01*
X9398650Y3075230D01*
G02X9500000Y3126220I101350J-75229D01*
G02Y2873780I0J-126220D01*
G02X9401350Y2921260I0J126223D01*
G01X9399790Y2923210D01*
X8628800Y2909680D01*
X8628040Y2905600D01*
G02X8588150Y2865500I-49194J9046D01*
G01X8584020Y2864720D01*
Y1950800D01*
G02X8641570Y1841500I-75017J-109300D01*
G02X8376430I-132570J0D01*
G02X8433980Y1950800I132567J0D01*
G01Y2576170D01*
G03X8415370Y2581810I-10160J0D01*
G01X7936420Y1863390D01*
G02X7877940Y1830080I-62426J41607D01*
G01X6689240Y1767520D01*
X6517180Y1669200D01*
G03X6522220Y1650220I5044J-8820D01*
G01X6616700D01*
G02X6666720Y1600200I0J-50020D01*
G01Y1447800D01*
G02X6616700Y1397780I-50020J0D01*
G01X6464300D01*
G02X6414280Y1447800I0J50020D01*
G01Y1600200D01*
G02X6414300Y1601520I50019J-98D01*
G01X6414340Y1602940D01*
X6411110Y1608590D01*
X6298020Y1543960D01*
Y1306060D01*
X6424490Y1204880D01*
G03X6439840Y1217510I6340J7937D01*
G02X6426980Y1270000I100662J52482D01*
G02X6540500Y1156480I113520J0D01*
G02X6511390Y1160280I16J113518D01*
G03X6502440Y1142520I-2608J-9821D01*
G01X6508080Y1138010D01*
X6510510Y1138600D01*
G02X6540500Y1142220I30012J-122597D01*
G02X6666720Y1016000I0J-126220D01*
G02X6586500Y898460I-126221J0D01*
G03Y879540I3703J-9460D01*
G02X6666720Y762000I-46001J-117540D01*
G02X6540500Y635780I-126220J0D01*
G02X6415560Y744050I0J126223D01*
G01X6415320Y745730D01*
X5961780Y1199280D01*
G02X5932480Y1270000I70717J70728D01*
G01Y1778000D01*
G02X5961780Y1848720I100017J-8D01*
G01X6351820Y2238770D01*
X6352060Y2240450D01*
G02X6477000Y2348720I124940J-17953D01*
G02X6603220Y2222500I0J-126220D01*
G02X6494950Y2097560I-126223J0D01*
G01X6493270Y2097320D01*
X6132520Y1736570D01*
Y1311430D01*
X6139310Y1304640D01*
G03X6147980Y1308230I3590J3594D01*
G01Y1587500D01*
G02X6185780Y1652640I75027J0D01*
G01X6630280Y1906640D01*
G02X6663560Y1916420I37219J-65139D01*
G01X7832460Y1977940D01*
X8306980Y2689710D01*
Y3821870D01*
X6298330Y4589880D01*
X6296150Y4588440D01*
G02X6223000Y4566430I-73150J110552D01*
G02X6090430Y4699000I0J132570D01*
G02X6100440Y4749540I132571J4D01*
G01X6101440Y4751950D01*
X5582330Y5582530D01*
G37*
G36*
G01X7321250Y5971160D02*
X7318770Y5970830D01*
G02X7302500Y5969780I-16247J125171D01*
G02X7428720Y6096000I0J126220D01*
G02X7427670Y6079730I-126221J-23D01*
G01X7427340Y6077250D01*
X9832050Y3672550D01*
G02X9854020Y3619500I-53064J-53050D01*
G01Y1863400D01*
G02X9832050Y1810350I-75034J0D01*
G01X8984650Y962950D01*
G02X8931600Y940980I-53050J53064D01*
G01X8095570D01*
X7482550Y327950D01*
G02X7429500Y305980I-53050J53064D01*
G01X5506800D01*
G02X5397500Y248430I-109300J75017D01*
G02Y513570I0J132570D01*
G02X5506800Y456020I0J-132567D01*
G01X7398430D01*
X7866040Y923640D01*
G03X7858860Y940980I-7184J7182D01*
G01X7404010D01*
G02X7348500Y898460I-101506J75022D01*
G03Y879540I3703J-9460D01*
G02X7428720Y762000I-46001J-117540D01*
G02X7176280I-126220J0D01*
G02X7256500Y879540I126221J0D01*
G03Y898460I-3703J9460D01*
G02Y1133540I46001J117540D01*
G03Y1152460I-3703J9460D01*
G02Y1387540I46001J117540D01*
G03Y1406460I-3703J9460D01*
G02X7176280Y1524000I46001J117540D01*
G02X7428720I126220J0D01*
G02X7348500Y1406460I-126221J0D01*
G03Y1387540I3703J-9460D01*
G02Y1152460I-46001J-117540D01*
G03Y1133540I3703J-9460D01*
G02X7404010Y1091020I-45996J-117542D01*
G01X8900530D01*
X9514940Y1705430D01*
G03X9509100Y1722690I-7182J7188D01*
G02X9405130Y1841500I15899J118810D01*
G02X9525000Y1961370I119870J0D01*
G02X9643810Y1857400I0J-119869D01*
G03X9661070Y1851560I10072J1342D01*
G01X9703980Y1894470D01*
Y3588430D01*
X7321250Y5971160D01*
G37*
G36*
G01X245980Y6245980D02*
Y6754020D01*
X754020D01*
Y6328540D01*
G03X770520Y6320600I10161J0D01*
G01X1144120Y6618680D01*
G02X1203470Y6640470I62379J-78182D01*
G01X3211980Y6701340D01*
X3213360Y6702580D01*
G02X3302000Y6736570I88640J-98584D01*
G02X3397260Y6696200I0J-132576D01*
G01X3398550Y6694860D01*
X4505330Y6584190D01*
X4506770Y6585060D01*
G02X4572000Y6603220I65230J-108072D01*
G02X4698220Y6477000I0J-126220D01*
G02X4589950Y6352060I-126223J0D01*
G01X4588270Y6351820D01*
X4443180Y6206730D01*
X4442940Y6205050D01*
G02X4318000Y6096780I-124940J17953D01*
G02X4191780Y6223000I0J126220D01*
G02X4300050Y6347940I126223J0D01*
G01X4301730Y6348180D01*
X4336870Y6383320D01*
G03X4330700Y6400610I-7186J7182D01*
G01X3378650Y6495820D01*
X3377110Y6494760D01*
G02X3302000Y6471430I-75110J109242D01*
G02X3219500Y6500230I0J132564D01*
G01X3218040Y6501390D01*
X2486270Y6479220D01*
X2340900Y6012760D01*
X2341470Y6011170D01*
G02X2348720Y5969000I-118971J-42162D01*
G02X2268500Y5851460I-126221J0D01*
G03Y5832540I3703J-9460D01*
G02X2348720Y5715000I-46001J-117540D01*
G02X2297520Y5613490I-126228J0D01*
G01Y5562510D01*
G02X2348720Y5461000I-75028J-101510D01*
G02X2268500Y5343460I-126221J0D01*
G03Y5324540I3703J-9460D01*
G02X2348720Y5207000I-46001J-117540D01*
G02X2342050Y5166500I-126222J-12D01*
G01X2341240Y5164130D01*
X2482600Y4952100D01*
X2485090Y4951930D01*
G02X2602720Y4826000I-8593J-125930D01*
G02X2350280I-126220J0D01*
G02X2356950Y4866500I126222J12D01*
G01X2357760Y4868870D01*
X2216400Y5080900D01*
X2213910Y5081070D01*
G02X2096280Y5207000I8593J125930D01*
G02X2176500Y5324540I126221J0D01*
G03Y5343460I-3703J9460D01*
G02X2096280Y5461000I46001J117540D01*
G02X2147480Y5562510I126228J0D01*
G01Y5613490D01*
G02X2096280Y5715000I75028J101510D01*
G02X2176500Y5832540I126221J0D01*
G03Y5851460I-3703J9460D01*
G02X2096280Y5969000I46001J117540D01*
G02X2148550Y6071290I126223J0D01*
G01X2149920Y6072280D01*
X2270500Y6459200D01*
G03X2260500Y6472370I-9699J3017D01*
G01X1242830Y6441540D01*
X837100Y6117820D01*
G02X835950Y6116910I-62638J77977D01*
G01X417520Y5792950D01*
Y3115630D01*
G03X433070Y3107010I10161J-6D01*
G02X500000Y3126220I66935J-107009D01*
G02X626220Y3000000I0J-126220D01*
G02X533500Y2878310I-126216J0D01*
G01X532540Y2878040D01*
X527730Y2874360D01*
X532630Y2867940D01*
X534260Y2867480D01*
G02X626220Y2746000I-34258J-121480D01*
G02X500000Y2619780I-126220J0D01*
G02X373790Y2744690I0J126217D01*
G01X373770Y2746380D01*
X238070Y2923720D01*
G02X217480Y2984500I79428J60785D01*
G01Y5842000D01*
G02X256270Y5921090I100024J0D01*
G01X652400Y6227790D01*
G03X646180Y6245980I-6223J8031D01*
G01X245980D01*
G37*
G54D20*
X2222500Y2794000D03*
X6477000Y2476500D03*
X9500000Y2746000D03*
X762000Y3873500D03*
X500000Y2492000D03*
X3238500Y2667000D03*
X2476500Y4572000D03*
X4508500Y4699000D03*
G54D22*
X500000Y2238000D03*
G54D23*
Y500000D03*
X9500000D03*
Y6500000D03*
G54D21*
X3302000Y4191000D03*
X5397500Y1397000D03*
%LPD*%
G75*
G54D10*
X500000Y500000D03*
Y6500000D03*
X9500000Y500000D03*
Y6500000D03*
G54D11*
X500000Y2238000D03*
Y2492000D03*
Y2746000D03*
Y3000000D03*
X762000Y3873500D03*
X1016000D03*
X1460500Y2286000D03*
Y2540000D03*
Y2794000D03*
X1270000Y3873500D03*
X1460500Y5207000D03*
Y5461000D03*
Y5715000D03*
X2222500Y2286000D03*
Y2540000D03*
Y2794000D03*
Y3048000D03*
X2476500Y4826000D03*
Y4572000D03*
X2222500Y5207000D03*
Y5461000D03*
Y5715000D03*
Y5969000D03*
X3238500Y2667000D03*
Y2413000D03*
X4762500Y4699000D03*
X4508500D03*
X4318000Y6223000D03*
X4572000Y6477000D03*
X4826000Y6223000D03*
X6540500Y762000D03*
Y1016000D03*
Y1270000D03*
X6477000Y2222500D03*
Y2476500D03*
Y2730500D03*
X7302500Y762000D03*
Y1016000D03*
Y1270000D03*
Y1524000D03*
X7239000Y2222500D03*
Y2476500D03*
Y2730500D03*
Y2984500D03*
X7302500Y6096000D03*
X7048500Y6350000D03*
X7302500Y6604000D03*
X9500000Y2746000D03*
Y3000000D03*
G54D12*
X1460500Y3048000D03*
Y5969000D03*
X6540500Y1524000D03*
X6477000Y2984500D03*
G54D13*
X2730500Y1841500D03*
X3302000Y4191000D03*
Y5588000D03*
Y5207000D03*
Y6604000D03*
X3746500Y1841500D03*
X4381500Y381000D03*
Y889000D03*
Y1397000D03*
X5397500Y381000D03*
Y889000D03*
Y1397000D03*
X5588000Y4699000D03*
Y5715000D03*
X6223000Y4699000D03*
Y5715000D03*
X8509000Y1841500D03*
X9525000D03*
G54D14*
X4762500Y5334000D03*
G54D15*
Y5461000D03*
Y5588000D03*
G54D16*
X7594600Y2984500D03*
G54D17*
X8509000D03*
G54D18*
G01X500000Y2373400D02*
Y2492000D01*
G01D02*
Y2610600D01*
G01X381400Y2492000D02*
X500000D01*
G01D02*
X618600D01*
G01X762000Y3754900D02*
Y3873500D01*
G01D02*
Y3992100D01*
G01X643400Y3873500D02*
X762000D01*
G01D02*
X880600D01*
G01X2222500Y3048000D02*
Y3619500D01*
X1662570Y4179430D01*
X1125190D01*
X1016000Y4070240D01*
Y3873500D01*
G01X1460500Y2540000D02*
X1335870Y2756760D01*
X1270000Y3873500D01*
G01X1460500Y5850400D02*
Y5969000D01*
G01D02*
Y6087600D01*
G01X1341900Y5969000D02*
X1460500D01*
G01D02*
X1579100D01*
G01X2222500Y2540000D02*
X3238500Y2413000D01*
G01X2730500Y1841500D02*
X2222500Y2286000D01*
G01Y2675400D02*
Y2794000D01*
G01D02*
Y2912600D01*
G01X2103900Y2794000D02*
X2222500D01*
G01D02*
X2341100D01*
G01X2476500Y4453400D02*
Y4572000D01*
G01D02*
Y4690600D01*
G01X2357900Y4572000D02*
X2476500D01*
G01D02*
X2595100D01*
G01X2222500Y5207000D02*
X2476500Y4826000D01*
G01X2222500Y5715000D02*
Y5461000D01*
G01X3238500Y2548400D02*
Y2667000D01*
G01D02*
Y2785600D01*
G01X3119900Y2667000D02*
X3238500D01*
G01D02*
X3357100D01*
G01X3302000Y4066050D02*
Y4191000D01*
G01D02*
Y4315950D01*
G01X3177050Y4191000D02*
X3302000D01*
G01D02*
X3426950D01*
G01X3302000Y5588000D02*
Y5207000D01*
G01Y5588000D02*
X4762500D01*
G01X4381500Y381000D02*
X3746500Y1841500D01*
G01X4381500Y889000D02*
Y1397000D01*
G01X4508500Y4580400D02*
Y4699000D01*
G01D02*
Y4817600D01*
G01X4389900Y4699000D02*
X4508500D01*
G01D02*
X4627100D01*
G01X5588000D02*
X4762500D01*
G01Y5334000D02*
Y4699000D01*
G01X4826000Y6223000D02*
X4889100Y5593060D01*
Y5546080D01*
X4848320Y5505300D01*
X4762500Y5461000D01*
G01X5397500Y381000D02*
X7429500D01*
X8064500Y1016000D01*
G01X6477000Y2730500D02*
X5778500Y2286000D01*
Y1079500D01*
X5397500Y889000D01*
G01Y1272050D02*
Y1397000D01*
G01D02*
Y1521950D01*
G01X5272550Y1397000D02*
X5397500D01*
G01D02*
X5522450D01*
G01X6223000Y4699000D02*
X5588000Y5715000D01*
G01X6223000Y4699000D02*
X8382000Y3873500D01*
Y2667000D01*
X7874000Y1905000D01*
X6667500Y1841500D01*
X6223000Y1587500D01*
Y1270000D01*
X6540500Y1016000D01*
G01X6421900Y1270000D02*
X6540500D01*
G01X6358400Y2476500D02*
X6477000D01*
G01X6223000Y5715000D02*
X7048500Y6350000D01*
G01X6540500Y1151400D02*
Y1270000D01*
G01D02*
Y1388600D01*
G01Y1270000D02*
X6659100D01*
G01X6477000Y2357900D02*
Y2476500D01*
G01D02*
Y2595100D01*
G01Y2476500D02*
X6595600D01*
G01X7302500Y6604000D02*
X7048500Y6350000D01*
G01X8064500Y1016000D02*
X7302500D01*
G01X7594600Y2984500D02*
X7239000Y2476500D01*
G01X7302500Y6096000D02*
X9779000Y3619500D01*
Y1863400D01*
X8931600Y1016000D01*
X8064500D01*
G01X8509000Y1841500D02*
Y2984500D01*
G01D02*
X8616550D01*
X9500000Y3000000D01*
G01X9400050Y1841500D02*
X9525000D01*
G01X9500000Y2627400D02*
Y2746000D01*
G01D02*
Y2864600D01*
G01X9381400Y2746000D02*
X9500000D01*
G01D02*
X9618600D01*
G01X9525000Y1841500D02*
Y1966450D01*
G54D19*
G01X2411990Y6577030D02*
X1206500Y6540500D01*
X774720Y6196000D01*
X317500Y5842000D01*
Y2984500D01*
X500000Y2746000D01*
G01X825500Y2730500D02*
X500000Y2492000D01*
G01X762000Y3873500D02*
X825500Y2730500D01*
G01X2222500Y5969000D02*
X2411990Y6577030D01*
G01X3302000Y6604000D02*
X2411990Y6577030D01*
G01X3238500Y2667000D02*
X4394620Y3103120D01*
G01X3302000Y6604000D02*
X4572000Y6477000D01*
G01X4723600Y3075280D02*
X5397500Y1397000D01*
G01X4394620Y3103120D02*
X4431580D01*
X4464560Y3136100D01*
X4679440D01*
X4723600Y3091940D01*
Y3075280D01*
G01X4318000Y6223000D02*
X4572000Y6477000D01*
G01X6477000Y2222500D02*
X6032500Y1778000D01*
Y1270000D01*
X6540500Y762000D01*
M02*
